<svg clip-rule="evenodd" fill-rule="evenodd" stroke-linejoin="round" stroke-miterlimit="1.41421" viewBox="0 0 116 54" xmlns="http://www.w3.org/2000/svg"><g fill="#fff" fill-rule="nonzero"><path d="m.004 34.869c-.004 1.24-.004 1.569-.004 1.569 6.255 0 11.471-.011 16.61 0 1.041-1.906 1.994-3.659 2.947-5.401-3.725 0-6.925 0-11.559 0-.833 1.445-1.272 2.177-2.257 3.834l-5.737-.002z"/><path d="m12.096 24.133h27.709c.581 3.298.767 4.318 1.063 5.928-10.091 0-21.432-.005-32.289 0-.003 0 2.399-4.032 3.517-5.928z"/><path d="m12.655 23.148c.898-1.523 1.698-2.86 2.574-4.35h10.924c-.811 1.468-.888 1.621-2.356 4.35-3.67 0-7.198 0-11.142 0z"/><path d="m18.385 13.451c6.443-.011 12.994 0 19.448 0 .274 1.49.537 2.804.799 4.338-3.067 0-6.807.001-9.915 0 0 0-.066-.449-.427-2.991-.888 1.698-1.588 2.991-1.611 2.991-3.505-.001-7.111 0-10.869 0 0 0 1.753-2.924 2.575-4.338z"/><path d="m18.955 12.464c.504-.886 1.731-2.947 1.731-2.947 6.022-.002 10.967 0 16.445 0 .187 1.052.231 1.293.516 2.947-5.764 0-12.535.012-18.692 0z"/><path d="m21.533 8.132c.676-1.2.993-1.726 1.563-2.669 4.427-.021 8.963 0 13.29 0 .198 1.151.241 1.37.571 3.057-5.145 0-10.52-.004-15.658 0-.003 0 .18-.294.234-.388z"/><path d="m23.666 4.466c.605-.981 1.819-3.083 1.819-3.083 2.016.005 6.766-.007 10.156-.007.22 1.228.197 1.107.57 3.09-4.054 0-8.425 0-12.545 0z"/><path d="m29.44 23.148c-.23-1.557-.143-.976-.592-4.35 3.364 0 6.651.01 9.96 0 .372 1.993.537 2.95.8 4.35-3.419 0-6.892 0-10.168 0z"/><path d="m31.226 36.449c-.23-1.864-.482-3.682-.724-5.412h10.552c.723 3.911.69 3.659 1.008 5.412-3.539 0-7.253 0-10.836 0z"/><path d="m61.76 36.439c-6.978-.004-8.194.01-17.956.01.471-2.729.668-3.901.931-5.412h28.367c-1.184 2.738-4.228 4.568-7.142 5.121-1.536.291-3.035.25-4.2.281z"/><path d="m44.9 30.061c.252-1.413.745-4.24 1.018-5.928h9.796c-.285 1.742-.339 2.148-.635 4.054 1.358 0 4.032 0 5.467.002 2.585-.155 4.569-1.185 4.701-4.056h8.94c.416 2.017-.285 5.38-.69 5.928-9.533 0-19.021 0-28.597 0z"/><path d="m46.094 23.148c.329-1.874.504-2.97.756-4.35h24.358c1.289 1.205 2.618 3.122 2.782 4.35-1.545 0-3.251-.004-4.908 0-1.276.003-2.664 0-3.967 0-.351-1.721-2.246-2.137-4.81-2.14-.669.003-2.936.003-4.098.003-.164 1.019-.175 1.084-.339 2.137-3.178 0-6.476 0-9.774 0z"/><path d="m47.037 17.789c.262-1.577.438-2.584.745-4.338h9.608c-.153.92-.23 1.457-.405 2.629 3.703 0 4.021.004 6.267.001 1.72-.001 3.452-1.316 3.66-2.63h8.26c-.624 1.928-2.338 3.195-3.845 4.338-8.042 0-16.095 0-24.29 0z"/><path d="m47.946 12.464c.263-1.544.34-2.015.504-2.947h9.554c-.23 1.446-.252 1.698-.46 2.947-3.156 0-6.355 0-9.598 0z"/><path d="m48.626 8.52c.24-1.435.273-1.643.525-3.057h25.617c.656 1.052.855 1.819 1.041 3.057-8.985 0-18.188 0-27.183 0z"/><path d="m49.315 4.466c.307-1.797.373-2.147.537-3.078 4.65 0 11.986-.001 16.029-.001 6.761.001 8.284 3.079 8.284 3.079-7.428 0-16.665 0-24.85 0z"/><path d="m66.977 12.464c-.088-1.051-.109-2.103-2.213-2.947h11.143c.066 1.008-.055 1.979-.383 2.947-2.762 0-5.741 0-8.547 0z"/><path d="m104.863 31.089c-2.633 3.433-6.413 5.107-10.499 5.687-5.457.774-11.114-1.021-14.304-5.739h24.85z"/><path d="m79.534 30.061c-.953-1.348-1.688-3.977-1.95-5.928h10.43c.724 1.823 2.016 3.462 3.928 3.751 2.733.413 4.778-1.645 6.01-3.751h10.88c-.766 2.072-2.278 4.701-3.243 5.928-8.908 0-17.092 0-26.055 0z"/><path d="m77.43 23.148c-.109-.844-.109-2.85.033-4.35h10.278c-.198 1.325-.187 2.816.065 4.35-3.484 0-6.826 0-10.376 0z"/><path d="m77.594 17.789c.187-1.566.428-2.662 1.096-4.338h11.066c-.821 1.279-1.501 2.827-1.862 4.338-3.397 0-6.771 0-10.3 0z"/><path d="m79.074 12.464c.635-1.358 1.639-2.947 1.643-2.947 1.575-.001 8.842 0 13.269 0-1.513.581-2.663 1.589-3.638 2.947-3.692 0-7.385 0-11.274 0z"/><path d="m81.407 8.52c1.654-2.082 2.863-3.057 2.871-3.057 7.64 0 15.096-.003 22.462 0 .01 0 1.084 1.205 2.006 3.057-9.106 0-18.179 0-27.339 0z"/><path d="m85.504 4.466c2.721-1.893 6.038-3.379 9.072-3.634.571-.047.954-.058 1.361-.075.349-.003 1.544.028 1.839.048 1.995.21 2.444.221 4.034.827 4.83-.004 9.576-.004 14.078-.004v1.896c-3.336-.003-6.945-.011-10.912 0 .428.384.635.559.941.942-6.574 0-13.629 0-20.413 0z"/><path d="m98.681 11.19c-.444-.533-.938-1.267-1.715-1.673h12.229c.426.997.601 1.709.732 2.947-3.33 0-7.113 0-10.539 0-.018 0-.176-.46-.707-1.274z"/><path d="m99.716 13.451c3.325-.003 8.119-.002 10.299 0 .004 0 .067.967.067 1.435-3.221 0-6.608 0-10.059 0-.11-.8-.315-1.435-.307-1.435z"/><path d="m99.212 21.365c3.758-.003 7.221-.003 10.366-.003-.045.471-.42 1.786-.428 1.786-1.18-.001-6.99 0-10.672 0 .503-.833.734-1.783.734-1.783z"/><path d="m106.849 33.218v2.283h.401v-.898h.314c.213 0 .359.024.443.073.143.085.215.26.215.524v.18l.008.074c.002.009.004.018.006.025.002.008.004.016.006.022h.381l-.016-.028c-.01-.018-.018-.059-.022-.119-.003-.06-.005-.117-.005-.17v-.167c0-.115-.041-.233-.122-.354-.082-.121-.21-.196-.386-.224.14-.023.25-.06.328-.11.148-.097.223-.247.223-.451 0-.287-.118-.479-.354-.577-.133-.054-.34-.083-.621-.083zm1.385.693c0 .174-.078.294-.236.356-.086.034-.213.051-.383.051h-.365v-.825h.343c.225 0 .387.028.489.084.101.056.152.168.152.334zm1.529.455c0-.574-.201-1.062-.607-1.465-.405-.404-.895-.605-1.469-.605-.572 0-1.059.201-1.463.605-.404.405-.607.893-.607 1.465 0 .576.201 1.067.601 1.472.405.408.893.611 1.469.611.574 0 1.064-.203 1.469-.611.406-.407.607-.897.607-1.472zm-2.076-1.785c.494 0 .914.175 1.264.526.347.348.521.768.521 1.262 0 .496-.174.919-.521 1.269-.348.351-.768.525-1.264.525-.498 0-.92-.174-1.266-.525-.345-.35-.519-.773-.519-1.269 0-.494.174-.914.521-1.262.35-.351.77-.526 1.264-.526z"/><path d="m7.747 47.9c-.111.56-.054 1.627 1.875 1.627 1.046 0 2.262-.239 2.5-1.305.175-.785-.573-.995-1.636-1.248l-1.077-.252c-1.624-.379-3.192-.744-2.698-2.96.251-1.121 1.326-3.099 4.756-3.099 3.241 0 3.659 2.02 3.398 3.254h-2.12c.041-.449.102-1.514-1.827-1.514-.839 0-1.907.294-2.11 1.206-.176.785.464.953.884 1.051l2.442.603c1.368.337 2.569.898 2.165 2.707-.676 3.029-3.975 3.295-4.903 3.295-3.858 0-4.048-2.117-3.77-3.365h2.121z"/><path d="m22.178 50.999h-1.973l.235-1.051h-.03c-.649.798-1.574 1.248-2.664 1.248-1.546 0-2.477-.842-2.052-2.749l1.096-4.909h2.062l-1.034 4.628c-.256 1.15.4 1.374 1.034 1.374.677 0 1.671-.364 1.969-1.697l.961-4.305h2.061z"/><path d="m27.672 43.538h-1.973l-2.313 10.364h2.061l.861-3.857h.029c.16.408.51 1.151 1.953 1.151 2.327 0 3.736-1.964 4.193-4.011.576-2.581-.673-3.843-2.397-3.843-1.383 0-2.111.687-2.626 1.277h-.029zm-.87 3.899c.266-1.191.874-2.399 2.287-2.399 1.311 0 1.505 1.109 1.243 2.288-.198.882-.872 2.256-2.198 2.256-1.31 0-1.579-1.038-1.332-2.145z"/><path d="m36.64 43.538h-1.973l-2.313 10.364h2.061l.861-3.857h.029c.16.408.509 1.151 1.952 1.151 2.328 0 3.738-1.964 4.195-4.011.575-2.581-.675-3.843-2.398-3.843-1.384 0-2.111.687-2.626 1.277h-.029zm-.87 3.899c.266-1.191.874-2.399 2.287-2.399 1.311 0 1.506 1.109 1.242 2.288-.197.882-.872 2.256-2.197 2.256-1.31 0-1.58-1.038-1.332-2.145z"/><path d="m44.134 50.999h-2.062l2.248-10.069h2.061z"/><path d="m50.391 50.873c-1.589 2.763-1.935 3.127-3.731 3.127-.281 0-.63-.014-.922-.028l.35-1.57c.086.013.215.027.392.027.751 0 1.186-.098 1.605-1.121l-1.152-7.77h2.297l.452 5.499h.029l2.832-5.499h2.18z"/><path d="m66.272 44.225c-.04-.603-.121-1.738-1.86-1.738-1.01 0-2.64.673-3.245 3.519-.384 1.81-.015 3.437 1.766 3.437 1.164 0 2.117-.659 2.632-1.894h2.103c-.885 2.189-2.64 3.716-5.165 3.716-2.678 0-4.215-1.809-3.476-5.287.748-3.52 3.163-5.315 5.758-5.315 3.015 0 3.794 2.076 3.591 3.562z"/><path d="m76.339 47.269c.573-2.693-.974-3.927-2.98-3.927-2.005 0-4.076 1.234-4.649 3.927-.573 2.692.974 3.927 2.98 3.927s4.077-1.235 4.649-3.927zm-2.019 0c-.203.953-.764 2.271-2.278 2.271s-1.515-1.318-1.312-2.271c.202-.954.763-2.273 2.278-2.273 1.514 0 1.514 1.319 1.312 2.273z"/><path d="m78.982 50.999h-2.104l.436-2.047h2.104z"/><path d="m88.427 42.655h-1.964l.389-1.824h1.963zm-.187.883-1.586 7.461h-1.964l1.586-7.461z"/><path d="m95.251 50.999h-1.964l.964-4.53c.115-.547.285-1.473-.964-1.473-.869 0-1.667.59-1.91 1.726l-.909 4.277h-1.964l1.586-7.461h1.88l-.232 1.094h.027c.362-.449 1.103-1.29 2.519-1.29 1.459 0 2.412.855 2.065 2.496z"/><path d="m104.048 48.279c-.234.771-1.293 2.917-4.029 2.917-2.805 0-2.993-2.146-2.661-3.717.514-2.412 1.932-4.137 4.458-4.137 1.178 0 3 .533 2.687 2.861h-1.992c.022-.491-.123-1.262-1.047-1.207-1.234 0-1.82 1.235-2.016 2.161-.174.813-.488 2.425.999 2.425.996 0 1.535-.953 1.609-1.303z"/><path d="m106.906 50.999h-2.104l.436-2.047h2.103z"/></g></svg>