<svg xmlns="http://www.w3.org/2000/svg" fill-rule="evenodd" stroke-linejoin="round" stroke-miterlimit="1.414" clip-rule="evenodd" viewBox="0 0 116 54"><path fill="#d21547" d="M104.863 31.089c-2.633 3.432-6.412 5.106-10.499 5.686-5.457.775-11.114-1.02-14.303-5.739h24.849zm-62.801 5.359H31.227a362.4 362.4 0 0 0-.724-5.412h10.552c.722 3.911.69 3.659 1.007 5.412zm19.699-.01c-6.979-.003-8.194.01-17.956.01.471-2.728.668-3.9.931-5.412h28.367c-1.184 2.738-4.229 4.568-7.143 5.121-1.535.291-3.034.25-4.199.281zm-42.203-5.402c-.954 1.742-1.907 3.495-2.948 5.401-5.138-.01-10.354 0-16.61 0 0 0 0-.329.005-1.569l5.736.003c.986-1.657 1.425-2.39 2.258-3.835zm53.939-.976H44.9c.252-1.413.746-4.24 1.019-5.927h9.795c-.284 1.742-.339 2.147-.635 4.054l5.468.001c2.585-.155 4.567-1.184 4.7-4.055h8.941c.416 2.016-.286 5.38-.691 5.927zm32.092 0H79.534c-.953-1.347-1.687-3.977-1.95-5.927h10.431c.723 1.823 2.015 3.462 3.927 3.751 2.734.413 4.778-1.646 6.011-3.751h10.879c-.766 2.071-2.278 4.7-3.243 5.927zm-93.493-5.927h27.71c.58 3.298.766 4.317 1.062 5.927-10.091 0-21.432-.004-32.29 0-.002 0 2.4-4.032 3.518-5.927zm43.772-.986h-9.773c.328-1.874.504-2.969.756-4.349h24.357c1.289 1.205 2.618 3.122 2.782 4.349-1.545 0-3.251-.004-4.908 0-1.275.003-2.663 0-3.968 0-.349-1.72-2.245-2.136-4.808-2.139-.669.003-2.937.003-4.099.003-.164 1.018-.175 1.084-.339 2.136zm43.344-1.783c3.758-.003 7.221-.003 10.366-.003-.045.471-.42 1.786-.428 1.786H98.478c.504-.833.734-1.783.734-1.783zm-11.405 1.783H77.431c-.11-.843-.11-2.849.033-4.349h10.277c-.197 1.325-.186 2.815.066 4.349zm-48.199 0H29.44c-.23-1.556-.142-.975-.591-4.349 3.363 0 6.65.01 9.96 0 .372 1.993.537 2.951.799 4.349zm-15.81 0H12.655c.899-1.523 1.698-2.86 2.574-4.349h10.924c-.81 1.468-.887 1.621-2.355 4.349z"/><path fill="#004b97" d="M50.392 50.873C48.803 53.636 48.457 54 46.66 54c-.28 0-.63-.015-.922-.028l.351-1.571c.085.014.215.028.391.028.751 0 1.186-.098 1.606-1.121l-1.152-7.77h2.296l.453 5.498h.029l2.832-5.498h2.18zm-24.944 3.028h-2.062l2.313-10.363h1.973l-.24 1.08h.029c.514-.59 1.242-1.276 2.626-1.276 1.723 0 2.973 1.261 2.397 3.842-.457 2.047-1.867 4.011-4.194 4.011-1.443 0-1.793-.743-1.952-1.15h-.029zm8.968 0h-2.062l2.313-10.363h1.973l-.241 1.08h.03c.514-.59 1.242-1.276 2.626-1.276 1.723 0 2.972 1.261 2.397 3.842-.457 2.047-1.867 4.011-4.194 4.011-1.443 0-1.793-.743-1.952-1.15h-.03zm-19.551-9.984h-2.12c.041-.449.102-1.515-1.827-1.515-.839 0-1.906.294-2.11 1.206-.175.785.464.953.884 1.051l2.443.604c1.368.337 2.568.897 2.164 2.707-.676 3.029-3.975 3.295-4.903 3.295-3.858 0-4.048-2.118-3.769-3.366h2.12c-.11.561-.054 1.627 1.876 1.627 1.045 0 2.262-.238 2.5-1.304.175-.785-.573-.996-1.637-1.248l-1.077-.252c-1.624-.379-3.191-.744-2.697-2.96.251-1.121 1.324-3.099 4.756-3.099 3.24 0 3.658 2.02 3.397 3.254zm53.511.308h-2.104c-.04-.603-.121-1.739-1.86-1.739-1.01 0-2.64.673-3.245 3.52-.384 1.809-.015 3.436 1.767 3.436 1.164 0 2.117-.659 2.631-1.893h2.104c-.886 2.188-2.641 3.716-5.165 3.716-2.679 0-4.216-1.809-3.477-5.287.749-3.52 3.163-5.315 5.758-5.315 3.016 0 3.794 2.075 3.591 3.562zm-47.965 5.722c-.65.799-1.575 1.248-2.664 1.248-1.547 0-2.478-.842-2.052-2.749l1.095-4.908h2.062l-1.033 4.628c-.257 1.149.4 1.374 1.034 1.374.676 0 1.671-.364 1.968-1.697l.961-4.305h2.062l-1.665 7.461h-1.973l.234-1.052zm55.929-2.678c.572-2.694-.975-3.927-2.981-3.927-2.005 0-4.076 1.233-4.648 3.927-.573 2.692.974 3.926 2.979 3.926 2.006 0 4.078-1.234 4.65-3.926zm28.163-1.067h-1.992c.022-.49-.123-1.262-1.047-1.206-1.234 0-1.82 1.234-2.015 2.16-.174.814-.489 2.426.998 2.426.996 0 1.535-.953 1.609-1.304h1.992c-.234.772-1.293 2.917-4.029 2.917-2.805 0-2.992-2.145-2.66-3.716.514-2.413 1.931-4.137 4.457-4.137 1.178 0 3 .533 2.687 2.86zm-17.849 4.797H84.69l1.586-7.461h1.964zm-7.672 0h-2.103l.435-2.048h2.104zm27.924 0h-2.104l.436-2.048h2.103zm-62.771 0h-2.062L44.32 40.93h2.062zm46.334 0h-1.964l1.586-7.461h1.88l-.233 1.094h.028c.362-.449 1.102-1.29 2.518-1.29 1.46 0 2.413.854 2.065 2.497l-1.097 5.16h-1.965l.964-4.53c.115-.547.285-1.473-.964-1.473-.869 0-1.667.59-1.909 1.726zm-63.667-3.562c.266-1.192.874-2.399 2.288-2.399 1.31 0 1.505 1.108 1.242 2.287-.197.883-.872 2.257-2.197 2.257-1.311 0-1.58-1.038-1.333-2.145zm8.969 0c.265-1.192.873-2.399 2.287-2.399 1.31 0 1.505 1.108 1.242 2.287-.197.883-.872 2.257-2.197 2.257-1.311 0-1.58-1.038-1.332-2.145zm38.549-.168c-.203.953-.763 2.271-2.278 2.271-1.514 0-1.515-1.318-1.312-2.271.203-.955.763-2.273 2.279-2.273 1.513 0 1.513 1.318 1.311 2.273zm14.108-4.615h-1.964l.389-1.823h1.962zm21.335-8.289c0-.573-.201-1.061-.607-1.465a2.006 2.006 0 0 0-1.469-.604c-.572 0-1.059.201-1.463.604a2.003 2.003 0 0 0-.607 1.465c0 .576.201 1.068.601 1.473.405.407.893.61 1.469.61.574 0 1.064-.203 1.469-.61.406-.407.607-.898.607-1.473zm-2.076-1.784c.494 0 .914.175 1.264.525.347.348.521.769.521 1.262 0 .496-.174.92-.521 1.27-.348.35-.768.525-1.264.525-.498 0-.92-.175-1.266-.525a1.745 1.745 0 0 1-.519-1.27c0-.493.174-.914.521-1.262.35-.35.77-.525 1.264-.525zm-.437 2.92h-.401v-2.283h.799c.281 0 .488.028.621.083.236.097.354.29.354.577 0 .204-.075.353-.223.45a.844.844 0 0 1-.328.11.547.547 0 0 1 .386.225c.081.12.122.238.122.354v.166c0 .053.002.111.005.17a.349.349 0 0 0 .022.12l.016.028h-.381l-.002-.005-.003-.012-.001-.005a.35.35 0 0 1-.006-.026l-.008-.073v-.181c0-.263-.072-.438-.215-.523-.084-.049-.23-.074-.443-.074h-.314zm.343-2.009h-.343v.825h.365c.17 0 .297-.016.383-.05.158-.063.236-.182.236-.357 0-.166-.051-.277-.152-.334-.102-.056-.264-.084-.489-.084zM18.385 13.45c6.443-.011 12.995 0 19.448 0 .274 1.49.537 2.805.8 4.339h-9.916s-.066-.449-.427-2.991c-.888 1.698-1.587 2.991-1.61 2.991-3.505-.002-7.112 0-10.87 0 0 0 1.753-2.925 2.575-4.339zm69.51 4.339h-10.3c.186-1.566.427-2.662 1.095-4.339h11.067a14.537 14.537 0 0 0-1.862 4.339zm-16.568 0h-24.29c.263-1.577.438-2.585.745-4.339h9.609c-.154.921-.23 1.457-.406 2.63 3.703 0 4.022.004 6.267.001 1.721-.001 3.452-1.316 3.66-2.631h8.261c-.624 1.929-2.339 3.196-3.846 4.339zm38.755-2.903h-10.059c-.109-.8-.314-1.436-.307-1.436 3.325-.003 8.119-.002 10.299 0 .004 0 .067.968.067 1.436zm-91.127-2.422a248 248 0 0 1 1.732-2.947c6.021-.002 10.967 0 16.445 0 .186 1.052.23 1.293.515 2.947-5.763 0-12.535.011-18.692 0zm71.394 0H79.074c.635-1.359 1.64-2.947 1.644-2.947h13.268c-1.512.581-2.663 1.588-3.637 2.947zm19.578 0H99.388c-.017 0-.176-.46-.707-1.274-.443-.534-.937-1.268-1.715-1.673h12.229c.426.997.601 1.709.732 2.947zm-34.403 0h-8.546c-.088-1.052-.11-2.104-2.213-2.947h11.142a7.495 7.495 0 0 1-.383 2.947zm-17.98 0h-9.598c.263-1.545.34-2.016.504-2.947h9.554c-.23 1.446-.252 1.698-.46 2.947zm51.202-3.944H81.407c1.655-2.082 2.864-3.057 2.871-3.057 7.64-.001 15.096-.003 22.462 0 .01 0 1.084 1.205 2.006 3.057zm-32.936 0H48.626c.24-1.436.273-1.644.525-3.057h25.618c.656 1.052.854 1.819 1.041 3.057zm-54.277-.389c.676-1.2.994-1.726 1.564-2.668 4.426-.022 8.961 0 13.29 0 .197 1.15.241 1.369.57 3.057-5.145 0-10.52-.005-15.658 0-.002 0 .18-.294.234-.389zm84.384-3.665H85.505c2.721-1.894 6.037-3.38 9.071-3.634.572-.048.955-.059 1.361-.075.35-.004 1.545.027 1.84.048 1.994.21 2.443.22 4.033.826 4.83-.003 9.576-.003 14.078-.003v1.895c-3.336-.003-6.945-.01-10.912 0 .428.384.635.559.941.943zm-31.752 0H49.316c.307-1.797.372-2.148.537-3.079 4.649 0 11.986-.001 16.029 0 6.737 0 8.272 3.057 8.283 3.079zm-37.953 0H23.666c.605-.982 1.819-3.083 1.819-3.083 2.016.004 6.766-.007 10.157-.007.219 1.227.197 1.106.57 3.09z"/></svg>