<svg width="160" height="75" viewBox="0 0 160 75" fill="none" xmlns="http://www.w3.org/2000/svg">
<g clip-path="url(#clip0_186_13454)">
<path d="M147.586 44.7587C148.253 44.7587 148.831 45.0014 149.308 45.474C149.778 45.9466 150.019 46.5215 150.019 47.1985C150.019 47.8755 149.784 48.4503 149.308 48.9293C148.838 49.4083 148.26 49.6446 147.586 49.6446C146.913 49.6446 146.335 49.4019 145.865 48.9293C145.395 48.4503 145.159 47.8755 145.159 47.1985C145.159 46.5215 145.395 45.9466 145.865 45.474C146.341 44.995 146.913 44.7587 147.58 44.7587H147.586ZM150.407 47.1985C150.407 46.4193 150.127 45.7486 149.581 45.1994C149.028 44.6501 148.368 44.3755 147.586 44.3755C146.805 44.3755 146.144 44.6501 145.598 45.1994C145.045 45.755 144.772 46.4193 144.772 47.1985C144.772 47.9776 145.045 48.6546 145.591 49.2103C146.138 49.7659 146.805 50.0406 147.586 50.0406C148.368 50.0406 149.035 49.7596 149.581 49.2103C150.134 48.6546 150.407 47.984 150.407 47.1985ZM148.33 46.5789C148.33 46.8216 148.222 46.9813 148.006 47.0643C147.891 47.109 147.713 47.1346 147.485 47.1346H146.989V46.0041H147.459C147.764 46.0041 147.98 46.0424 148.12 46.1191C148.26 46.1957 148.33 46.349 148.33 46.5725V46.5789ZM146.449 45.6337V48.7504H146.995V47.5242H147.421C147.707 47.5242 147.91 47.5561 148.025 47.6264C148.215 47.7413 148.317 47.9776 148.317 48.3417V48.5908L148.33 48.693C148.33 48.693 148.33 48.7185 148.33 48.7249C148.33 48.7377 148.33 48.7441 148.336 48.7568H148.851L148.831 48.7185C148.831 48.7185 148.806 48.6355 148.806 48.5525C148.806 48.4694 148.8 48.3928 148.8 48.3225V48.0926C148.8 47.9329 148.743 47.7733 148.635 47.6072C148.52 47.4412 148.349 47.339 148.107 47.3006C148.298 47.2687 148.444 47.2176 148.552 47.1537C148.755 47.0196 148.851 46.8152 148.851 46.5406C148.851 46.151 148.692 45.8828 148.368 45.755C148.19 45.6784 147.91 45.6401 147.523 45.6401H146.436L146.449 45.6337Z" fill="white"/>
<path d="M139.81 1.20711C137.853 0.479017 136.043 -0.108568 131.608 0.0127808C127.174 0.13413 121.723 1.62864 116.723 5.30744C116.723 5.30744 112.111 8.53916 109.335 13.3676C106.673 17.998 105.777 21.3064 105.441 23.8036C105.053 26.6713 104.786 29.8711 105.377 33.3902C106.482 39.975 107.626 41.4184 109.011 43.6282C110.44 45.9147 116.342 53.3489 129.664 51.7459C136.208 50.9603 140.922 48.2523 144.715 43.5452C151.119 35.6064 151.544 28.1466 151.544 28.1466H135.071C135.071 28.1466 134.366 30.8355 132.904 33.1411C131.539 35.2998 129.023 37.4522 126.59 36.986C124.156 36.5197 122.378 34.6803 121.825 31.653C120.764 25.841 123.419 20.7124 124.29 19.3073C125.16 17.8958 127.701 15.0473 129.811 14.4725C131.99 13.8785 133.985 15.5582 134.906 17.6723C135.821 19.7608 136.049 21.8684 136.049 21.8684L152.103 21.8556C152.103 21.8556 152.281 16.8803 150.934 13.0099C149.676 9.3886 146.792 6.33571 146.792 6.33571H159.994V1.19434C159.994 1.19434 140.229 1.19434 139.81 1.19434V1.20711Z" fill="white"/>
<path d="M105.733 12.5181C105.434 6.48898 101.279 0.874987 90.7842 0.874987H67.9389L59.6037 49.4338L50.7604 0.862213L35.1765 0.874987L8.35418 46.6109H0.012706L0 51.3115H24.5924L29.3254 42.5999H41.4278L42.5841 51.3115L86.1402 51.2924C87.5569 51.2732 99.4814 51.7267 102.702 41.048C105.491 31.7999 101 27.1183 99.2464 25.3556C101.337 23.3821 105.733 21.5938 105.733 12.5245V12.5181ZM35.0113 31.9468L39.001 24.5253L39.9984 31.9468H35.0113ZM83.4783 37.4841C83.383 37.4841 77.589 37.4841 77.589 37.4841L78.7262 30.2351H83.2114C87.5315 30.2351 88.6496 31.5827 88.6496 33.1666C88.6496 34.5206 87.8999 37.2159 83.4783 37.4905V37.4841ZM86.5849 20.9359C86.4896 20.9359 80.1747 20.9423 80.1747 20.9423L81.3119 13.6933H85.7971C89.5962 13.6933 91.0828 15.6477 91.0828 17.2316C91.0828 18.5856 90.0028 20.9359 86.5785 20.9359H86.5849Z" fill="white"/>
<path d="M26.2569 18.6303C35.0113 18.6111 43.9119 18.6303 52.679 18.6303C53.0538 20.6677 53.4096 22.4624 53.7653 24.5572C49.5978 24.5572 44.5154 24.5572 40.2907 24.5572C40.2907 24.5572 40.2017 23.9441 39.7125 20.4697C38.5055 22.7881 37.5589 24.5572 37.5271 24.5572C32.7624 24.5572 27.8642 24.5572 22.7564 24.5572C22.7564 24.5572 25.1388 20.5591 26.2569 18.6303Z" fill="#004990"/>
<path d="M27.0256 17.2827C27.7118 16.0692 29.3762 13.259 29.3762 13.259C37.5589 13.259 44.274 13.259 51.7197 13.259C51.9738 14.696 52.031 15.0281 52.4185 17.2827C44.5853 17.2827 35.3862 17.2955 27.0256 17.2827Z" fill="#004990"/>
<path d="M30.5324 11.3685C31.4536 9.72711 31.8856 9.01178 32.6543 7.72165C38.6706 7.68972 44.833 7.72165 50.7095 7.72165C50.9763 9.2928 51.0399 9.59298 51.4846 11.8986C44.4963 11.8986 37.1904 11.8986 30.2148 11.8986C30.2148 11.8986 30.4562 11.4962 30.5324 11.3685Z" fill="#004990"/>
<path d="M33.4294 6.36125C34.249 5.02003 35.9008 2.15235 35.9008 2.15235C38.6389 2.15235 45.0935 2.14597 49.6994 2.14597C49.998 3.81931 49.9663 3.65964 50.4745 6.36764H33.4294V6.36125Z" fill="#004990"/>
<path d="M65.1816 24.5572C65.5374 22.3985 65.7788 21.0253 66.1918 18.6303H79.2472C79.0375 19.8885 78.9359 20.623 78.6944 22.2197C83.726 22.2197 84.158 22.2197 87.2075 22.2197C89.5454 22.2197 91.896 20.4186 92.1818 18.6239H103.408C102.556 21.2553 100.231 22.9861 98.1854 24.5508H65.1816V24.5572Z" fill="#004990"/>
<path d="M66.4141 17.2827C66.7699 15.175 66.8779 14.53 67.1002 13.259H80.0794C79.7681 15.2325 79.7363 15.5774 79.4568 17.2827H66.4141Z" fill="#004990"/>
<path d="M67.3417 11.8986C67.672 9.93787 67.7165 9.65685 68.0532 7.72165H102.861C103.751 9.15868 104.024 10.2061 104.272 11.8986H67.3353H67.3417Z" fill="#004990"/>
<path d="M68.2819 6.36124C68.6949 3.90871 68.7902 3.4297 69.0125 2.15234H90.7906C99.977 2.15234 102.048 6.36124 102.048 6.36124H68.2883H68.2819Z" fill="#004990"/>
<path d="M92.2771 17.2827C92.1564 15.8457 92.131 14.4086 89.2722 13.259H104.411C104.5 14.6386 104.335 15.9606 103.89 17.2827H92.2771Z" fill="#004990"/>
<path d="M106.698 24.5573C106.953 22.4177 107.277 20.9168 108.191 18.6303H123.223C122.104 20.3739 121.183 22.4879 120.694 24.5573H106.698Z" fill="#004990"/>
<path d="M108.712 17.2827C109.576 15.4305 110.942 13.259 110.949 13.259C113.09 13.259 122.962 13.259 128.972 13.259C126.92 14.051 125.357 15.4305 124.029 17.2827H108.712Z" fill="#004990"/>
<path d="M111.882 11.8986C114.131 9.05649 115.771 7.72165 115.783 7.72165C126.164 7.72165 136.297 7.72165 146.303 7.72165C146.316 7.72165 147.777 9.36944 149.028 11.8986H111.889H111.882Z" fill="#004990"/>
<path d="M117.448 6.36124C121.145 3.77459 125.649 1.74358 129.772 1.3987C130.548 1.33483 131.068 1.31567 131.621 1.29651C132.098 1.29651 133.718 1.33483 134.124 1.36038C136.831 1.64778 137.447 1.66056 139.601 2.49084C146.163 2.49084 152.611 2.49084 158.729 2.49084V5.07749C154.193 5.07749 149.289 5.06472 143.902 5.07749C144.48 5.60121 144.766 5.84391 145.185 6.36763H117.454L117.448 6.36124Z" fill="#004990"/>
<path d="M135.35 15.5455C134.747 14.8174 134.08 13.8147 133.019 13.259H149.632C150.21 14.6194 150.451 15.5966 150.629 17.2827C146.106 17.2827 140.96 17.2827 136.31 17.2827C136.284 17.2827 136.068 16.6568 135.35 15.5391V15.5455Z" fill="#004990"/>
<path d="M136.754 18.6303C141.271 18.6303 147.783 18.6303 150.75 18.6303C150.75 18.6303 150.839 19.9524 150.839 20.5911H137.174C137.028 19.4989 136.748 18.6303 136.761 18.6303H136.754Z" fill="#004990"/>
<path d="M11.8039 65.6882C11.6514 66.4546 11.7276 67.9108 14.3514 67.9108C15.7745 67.9108 17.4263 67.5851 17.7503 66.1289C17.9853 65.0559 16.9688 64.7685 15.5267 64.4236L14.0655 64.0787C11.861 63.5614 9.73279 63.0632 10.3998 60.0359C10.7429 58.5031 12.1977 55.8015 16.8608 55.8015C21.2635 55.8015 21.8289 58.5605 21.4795 60.2467H18.5952C18.6524 59.6335 18.735 58.1773 16.1112 58.1773C14.9676 58.1773 13.5192 58.5797 13.246 59.8251C13.0046 60.8981 13.8749 61.128 14.4467 61.2622L17.763 62.0861C19.618 62.5459 21.2508 63.3123 20.7044 65.784C19.7832 69.9227 15.3044 70.2867 14.0401 70.2867C8.7989 70.2867 8.53842 67.3935 8.9196 65.6882H11.8039Z" fill="white"/>
<path d="M31.4092 69.9163H28.7282L29.0459 68.4793H29.0078C28.1247 69.5714 26.8668 70.1845 25.3866 70.1845C23.2837 70.1845 22.0195 69.0349 22.5976 66.4291L24.0842 59.723H26.8859L25.4819 66.0459C25.1324 67.617 26.0219 67.9236 26.8859 67.9236C27.8071 67.9236 29.1602 67.4254 29.5605 65.6052L30.8628 59.723H33.6645L31.4028 69.9163H31.4092Z" fill="white"/>
<path d="M37.6923 65.0559C38.0544 63.4273 38.8803 61.7795 40.7989 61.7795C42.5777 61.7795 42.8445 63.2932 42.4888 64.9027C42.2219 66.1098 41.3007 67.9875 39.5029 67.9875C37.705 67.9875 37.3555 66.5696 37.6923 65.0559ZM38.8739 59.7293H36.1929L33.0482 73.8825H35.8499L37.0188 68.6134H37.057C37.273 69.169 37.7494 70.1845 39.7061 70.1845C42.8699 70.1845 44.7822 67.5021 45.4048 64.7047C46.1862 61.1791 44.4899 59.4547 42.152 59.4547C40.2716 59.4547 39.2805 60.3936 38.5817 61.1983H38.5436L38.8676 59.723L38.8739 59.7293Z" fill="white"/>
<path d="M49.871 65.0559C50.2331 63.4273 51.059 61.7795 52.9776 61.7795C54.7564 61.7795 55.0232 63.2932 54.6675 64.9027C54.4006 66.1098 53.4795 67.9875 51.6816 67.9875C49.8837 67.9875 49.5343 66.5696 49.871 65.0559ZM51.0526 59.7293H48.3717L45.2269 73.8825H48.0286L49.1975 68.6134H49.2357C49.4517 69.169 49.9281 70.1845 51.8849 70.1845C55.0486 70.1845 56.9609 67.5021 57.5835 64.7047C58.3649 61.1791 56.6687 59.4547 54.3244 59.4547C52.4439 59.4547 51.4592 60.3936 50.754 61.1983H50.7159L51.0399 59.723L51.0526 59.7293Z" fill="white"/>
<path d="M61.2365 69.9163H58.4348L61.4906 56.1591H64.2923L61.2365 69.9163Z" fill="white"/>
<path d="M69.7367 69.7502C67.5767 73.5248 67.1066 74.023 64.6671 74.023C64.2859 74.023 63.8094 74.0038 63.4155 73.9847L63.892 71.8387C64.0064 71.8579 64.1842 71.877 64.4257 71.877C65.4485 71.877 66.033 71.7429 66.6047 70.3442L65.0419 59.7293H68.1612L68.7711 67.2402H68.8092L72.6591 59.7293H75.6196L69.7304 69.7502H69.7367Z" fill="white"/>
<path d="M91.3179 60.6682C91.2607 59.8443 91.1527 58.2923 88.7894 58.2923C87.4171 58.2923 85.1999 59.212 84.3804 63.1016C83.8594 65.5733 84.3613 67.7959 86.7818 67.7959C88.3637 67.7959 89.6597 66.8953 90.3585 65.2092H93.2174C92.0167 68.1982 89.628 70.2867 86.2037 70.2867C82.5634 70.2867 80.4797 67.815 81.4771 63.0632C82.4935 58.254 85.778 55.8015 89.2976 55.8015C93.3953 55.8015 94.4562 58.6372 94.1767 60.6682H91.3179Z" fill="white"/>
<path d="M102.251 64.8196C101.978 66.1225 101.216 67.9236 99.1574 67.9236C97.0991 67.9236 97.0991 66.1225 97.3786 64.8196C97.6518 63.5167 98.4141 61.7156 100.473 61.7156C102.531 61.7156 102.531 63.5167 102.258 64.8196H102.251ZM104.996 64.8196C105.771 61.1408 103.668 59.4611 100.949 59.4611C98.2299 59.4611 95.4092 61.1472 94.6341 64.8196C93.8591 68.4984 95.9555 70.1845 98.681 70.1845C101.406 70.1845 104.221 68.4984 105.002 64.8196H104.996Z" fill="white"/>
<path d="M108.585 69.9163H105.726L106.317 67.1189H109.176L108.585 69.9163Z" fill="white"/>
<path d="M121.164 59.7294L119.011 69.9227H116.342L118.496 59.7294H121.164ZM121.418 58.5223H118.75L119.277 56.0314H121.946L121.418 58.5223Z" fill="white"/>
<path d="M130.687 69.9163H128.019L129.328 63.7275C129.487 62.9802 129.715 61.7156 128.019 61.7156C126.837 61.7156 125.751 62.5204 125.427 64.0724L124.188 69.9163H121.52L123.674 59.723H126.228L125.91 61.2175H125.948C126.437 60.6043 127.447 59.4547 129.366 59.4547C131.285 59.4547 132.644 60.6235 132.168 62.8653L130.675 69.9163H130.687Z" fill="white"/>
<path d="M142.644 66.2056C142.326 67.2594 140.884 70.1909 137.167 70.1909C133.451 70.1909 133.101 67.2594 133.553 65.1134C134.245 61.8178 136.176 59.4611 139.607 59.4611C141.208 59.4611 143.686 60.1892 143.26 63.3698H140.553C140.579 62.6992 140.382 61.6454 139.13 61.722C137.453 61.722 136.659 63.4081 136.392 64.6727C136.157 65.784 135.732 67.9875 137.745 67.9875C139.099 67.9875 139.829 66.6846 139.931 66.2056H142.637H142.644Z" fill="white"/>
<path d="M146.525 69.9163H143.666L144.257 67.1189H147.116L146.525 69.9163Z" fill="white"/>
<path d="M1.28333 47.8818C1.28333 49.5743 1.28333 50.0278 1.28333 50.0278C9.78362 50.0278 16.8672 50.015 23.8491 50.0278C25.2659 47.422 26.5619 45.0333 27.8515 42.651H12.1469C11.0161 44.6246 10.4189 45.6273 9.07844 47.8882H1.28333V47.8818Z" fill="#C32032"/>
<path d="M17.7121 33.2241H55.36C56.1477 37.7268 56.4018 39.1191 56.8021 41.3226C43.0923 41.3226 27.68 41.3162 12.9283 41.3226C12.9283 41.3226 16.1874 35.8172 17.7058 33.2241H17.7121Z" fill="#C32032"/>
<path d="M18.4681 31.8765C19.6879 29.7944 20.7743 27.9742 21.9686 25.9368H36.8092C35.7038 27.9423 35.6022 28.153 33.6073 31.8765H18.4681Z" fill="#C32032"/>
<path d="M41.2753 31.8765C40.964 29.7497 41.0847 30.5417 40.4685 25.9368C45.0363 25.9368 49.5025 25.9496 54.0004 25.9368C54.5086 28.6576 54.731 29.9669 55.0867 31.8765H41.269H41.2753Z" fill="#C32032"/>
<path d="M43.7022 50.0469C43.3909 47.505 43.0478 45.0205 42.7175 42.651H57.0498C58.0345 47.9968 57.9901 47.6519 58.4221 50.0469H43.7022Z" fill="#C32032"/>
<path d="M85.1872 50.0278C75.7022 50.0278 74.0504 50.0406 60.7917 50.0406C61.4334 46.3171 61.7002 44.714 62.056 42.6447H100.593C98.9859 46.3873 94.8501 48.8846 90.8922 49.6382C88.8084 50.0342 86.7691 49.9831 85.1872 50.0214V50.0278Z" fill="#C32032"/>
<path d="M62.2783 41.3226C62.6214 39.3938 63.2884 35.5298 63.6633 33.2241H76.9728C76.5853 35.6064 76.509 36.1557 76.1088 38.7615C77.9511 38.7615 81.5851 38.7615 83.5354 38.7615C87.0486 38.5507 89.7423 37.1456 89.9202 33.2177H102.067C102.633 35.9705 101.68 40.569 101.133 41.3162H62.2783V41.3226Z" fill="#C32032"/>
<path d="M63.9047 31.8765C64.3494 29.3154 64.5908 27.8209 64.9339 25.9368H98.0266C99.7801 27.5846 101.584 30.2032 101.807 31.8765C99.7038 31.8765 97.3913 31.8765 95.136 31.8765C93.4017 31.8765 91.5212 31.8765 89.7487 31.8765C89.2722 29.5262 86.6992 28.9578 83.2115 28.9578C82.303 28.9578 79.2218 28.9578 77.6462 28.9578C77.4239 30.3501 77.4112 30.4395 77.1825 31.8765H63.9047Z" fill="#C32032"/>
<path d="M143.749 42.7213C140.172 47.4092 135.039 49.6957 129.48 50.4876C122.066 51.5415 114.379 49.0953 110.046 42.6447H143.806L143.743 42.7149L143.749 42.7213Z" fill="#C32032"/>
<path d="M109.335 41.3226C108.039 39.4832 107.041 35.8874 106.686 33.2241H120.859C121.844 35.715 123.597 37.9567 126.196 38.3463C129.912 38.9084 132.689 36.0982 134.359 33.2241H149.143C148.101 36.0535 146.049 39.6429 144.74 41.3226H109.341H109.335Z" fill="#C32032"/>
<path d="M106.476 31.8765C106.33 30.7269 106.33 27.987 106.521 25.9368H120.484C120.218 27.7506 120.23 29.7817 120.573 31.8765H106.476Z" fill="#C32032"/>
<path d="M136.068 29.4431C141.176 29.4431 145.877 29.4431 150.153 29.4431C150.096 30.0882 149.581 31.8829 149.575 31.8829H135.077C135.763 30.7461 136.075 29.4495 136.075 29.4495L136.068 29.4431Z" fill="#C32032"/>
<path d="M11.8039 65.6882C11.6514 66.4546 11.7276 67.9108 14.3514 67.9108C15.7745 67.9108 17.4263 67.5851 17.7503 66.1289C17.9853 65.0559 16.9688 64.7685 15.5267 64.4236L14.0655 64.0787C11.861 63.5614 9.72643 63.0632 10.3998 60.0359C10.7429 58.5031 12.1977 55.8015 16.8608 55.8015C21.2635 55.8015 21.8289 58.5605 21.4795 60.2467H18.5952C18.6524 59.6335 18.735 58.1773 16.1112 58.1773C14.9676 58.1773 13.5192 58.5797 13.246 59.8251C13.0109 60.8981 13.8749 61.128 14.4467 61.2622L17.763 62.0861C19.618 62.5459 21.2508 63.3123 20.7044 65.784C19.7832 69.9227 15.3044 70.2867 14.0401 70.2867C8.7989 70.2867 8.53842 67.3935 8.9196 65.6882H11.8039Z" fill="white"/>
<path d="M31.4092 69.9163H28.7282L29.0459 68.4793H29.0078C28.1247 69.5714 26.8668 70.1845 25.3866 70.1845C23.2837 70.1845 22.0195 69.0349 22.5976 66.4291L24.0842 59.723H26.8859L25.4819 66.0459C25.1324 67.617 26.0219 67.9236 26.8859 67.9236C27.8071 67.9236 29.1602 67.4254 29.5605 65.6052L30.8628 59.723H33.6645L31.4028 69.9163H31.4092Z" fill="white"/>
<path d="M37.6923 65.0559C38.0544 63.4273 38.8803 61.7795 40.7989 61.7795C42.5777 61.7795 42.8445 63.2932 42.4888 64.9027C42.2219 66.1098 41.3007 67.9875 39.5029 67.9875C37.705 67.9875 37.3555 66.5696 37.6923 65.0559ZM38.8739 59.7293H36.1929L33.0482 73.8825H35.8499L37.0188 68.6134H37.057C37.273 69.169 37.7494 70.1845 39.7061 70.1845C42.8699 70.1845 44.7822 67.5021 45.4048 64.7047C46.1862 61.1791 44.4899 59.4547 42.152 59.4547C40.2716 59.4547 39.2805 60.3936 38.5817 61.1983H38.5436L38.8676 59.723L38.8739 59.7293Z" fill="white"/>
<path d="M49.871 65.0559C50.2331 63.4273 51.059 61.7795 52.9776 61.7795C54.7564 61.7795 55.0232 63.2932 54.6675 64.9027C54.4006 66.1098 53.4795 67.9875 51.6816 67.9875C49.8837 67.9875 49.5343 66.5696 49.871 65.0559ZM51.0526 59.7293H48.3717L45.2269 73.8825H48.0286L49.1975 68.6134H49.2357C49.4517 69.169 49.9281 70.1845 51.8849 70.1845C55.0486 70.1845 56.9609 67.5021 57.5835 64.7047C58.3649 61.1791 56.6687 59.4547 54.3244 59.4547C52.4439 59.4547 51.4592 60.3936 50.754 61.1983H50.7159L51.0399 59.723L51.0526 59.7293Z" fill="white"/>
<path d="M61.2365 69.9163H58.4348L61.4906 56.1591H64.2923L61.2365 69.9163Z" fill="white"/>
<path d="M69.7367 69.7502C67.5767 73.5248 67.1066 74.023 64.6671 74.023C64.2859 74.023 63.8094 74.0038 63.4155 73.9847L63.892 71.8387C64.0064 71.8579 64.1842 71.877 64.4257 71.877C65.4485 71.877 66.033 71.7429 66.6047 70.3442L65.0419 59.7293H68.1612L68.7711 67.2402H68.8092L72.6591 59.7293H75.6196L69.7367 69.7502Z" fill="white"/>
<path d="M91.3179 60.6682C91.2607 59.8443 91.1527 58.2923 88.7894 58.2923C87.4171 58.2923 85.1999 59.212 84.3804 63.1016C83.8594 65.5733 84.3613 67.7959 86.7818 67.7959C88.3637 67.7959 89.6597 66.8953 90.3585 65.2092H93.2174C92.0167 68.1982 89.628 70.2867 86.2037 70.2867C82.5634 70.2867 80.4797 67.815 81.4771 63.0632C82.4936 58.254 85.7781 55.8015 89.304 55.8015C93.4016 55.8015 94.4626 58.6372 94.1831 60.6682H91.3242H91.3179Z" fill="white"/>
<path d="M102.251 64.8196C101.978 66.1225 101.216 67.9236 99.1574 67.9236C97.0991 67.9236 97.0991 66.1225 97.3786 64.8196C97.6518 63.5167 98.4141 61.7156 100.473 61.7156C102.531 61.7156 102.531 63.5167 102.258 64.8196H102.251ZM104.996 64.8196C105.771 61.1408 103.668 59.4611 100.949 59.4611C98.2299 59.4611 95.4092 61.1472 94.6341 64.8196C93.8591 68.4984 95.9555 70.1845 98.681 70.1845C101.406 70.1845 104.221 68.4984 105.002 64.8196H104.996Z" fill="white"/>
<path d="M108.585 69.9163H105.726L106.317 67.1189H109.176L108.585 69.9163Z" fill="white"/>
<path d="M121.164 59.7294L119.011 69.9227H116.342L118.496 59.7294H121.164ZM121.418 58.5223H118.75L119.277 56.0314H121.946L121.418 58.5223Z" fill="white"/>
<path d="M130.687 69.9163H128.019L129.328 63.7275C129.487 62.9802 129.715 61.7156 128.019 61.7156C126.837 61.7156 125.751 62.5204 125.427 64.0724L124.188 69.9163H121.52L123.674 59.723H126.228L125.91 61.2175H125.948C126.437 60.6043 127.447 59.4547 129.366 59.4547C131.285 59.4547 132.644 60.6235 132.168 62.8653L130.675 69.9163H130.687Z" fill="white"/>
<path d="M142.644 66.2056C142.326 67.2594 140.884 70.1909 137.167 70.1909C133.451 70.1909 133.101 67.2594 133.553 65.1134C134.245 61.8178 136.176 59.4611 139.607 59.4611C141.208 59.4611 143.686 60.1892 143.26 63.3698H140.553C140.579 62.6992 140.382 61.6454 139.13 61.722C137.453 61.722 136.659 63.4081 136.392 64.6727C136.157 65.784 135.732 67.9875 137.745 67.9875C139.099 67.9875 139.829 66.6846 139.931 66.2056H142.637H142.644Z" fill="white"/>
<path d="M146.525 69.9163H143.666L144.257 67.1189H147.116L146.525 69.9163Z" fill="white"/>
</g>
<defs>
<clipPath id="clip0_186_13454">
<rect width="160" height="74.0166" fill="white"/>
</clipPath>
</defs>
</svg>
