<?xml version="1.0" encoding="UTF-8"?>
<svg id="a" data-name="Layer 1" xmlns="http://www.w3.org/2000/svg" xmlns:xlink="http://www.w3.org/1999/xlink" viewBox="0 0 1920 1080">
  <defs>
    <style>
      .h {
        fill: url(#g);
      }

      .i {
        fill: url(#f);
      }

      .j {
        fill: url(#e);
      }

      .k {
        fill: url(#d);
      }

      .l {
        fill: url(#c);
      }

      .m {
        fill: url(#b);
      }

      .n {
        fill: #135ab8;
      }

      .o {
        fill: #ade0fc;
      }

      .p {
        fill: #165bb5;
      }

      .q {
        fill: #1663c3;
      }

      .r {
        fill: #1961be;
      }

      .s {
        fill: #1862c0;
      }

      .t {
        fill: #1695fc;
      }

      .u {
        fill: #196cd6;
      }

      .v {
        fill: #1151ad;
      }

      .w {
        fill: #128dfd;
      }

      .x {
        fill: #1561c5;
      }

      .y {
        fill: #1154b0;
      }

      .z {
        fill: #319af8;
      }

      .aa {
        fill: #1391fe;
      }

      .ab {
        fill: #1456ad;
      }

      .ac {
        fill: #175eb9;
      }

      .ad {
        fill: #2f98f7;
      }

      .ae {
        fill: #1150aa;
      }

      .af {
        fill: #1761be;
      }

      .ag {
        fill: #1187ff;
      }

      .ah {
        fill: #118afe;
      }

      .ai {
        fill: #145dbe;
      }

      .aj {
        fill: #52c0fc;
      }

      .ak {
        fill: #a8defb;
      }

      .al {
        fill: #155ab3;
      }

      .am {
        fill: #11499b;
      }

      .an {
        fill: #1867cf;
      }

      .ao {
        fill: #165fbd;
      }

      .ap {
        fill: #156ad2;
      }

      .aq {
        fill: #114ba0;
      }

      .ar {
        fill: #102e62;
      }

      .as {
        fill: #196bd4;
      }

      .at {
        fill: #1c6ed8;
      }

      .au {
        fill: #114b9e;
      }

      .av {
        fill: #155fc1;
      }

      .aw {
        fill: #1664c8;
      }

      .ax {
        fill: #1285ff;
      }

      .ay {
        fill: #1665ca;
      }

      .az {
        fill: #114ea6;
      }

      .ba {
        fill: #b1e1fc;
      }

      .bb {
        fill: #1565c9;
      }

      .bc {
        fill: #1351a7;
      }

      .bd {
        fill: #1661c4;
      }

      .be {
        fill: #0e295d;
      }

      .bf {
        fill: #145cbb;
      }

      .bg {
        fill: #a3ddfb;
      }

      .bh {
        fill: #1568ce;
      }

      .bi {
        fill: #1862bd;
      }

      .bj {
        fill: #1662c2;
      }
    </style>
    <linearGradient id="b" x1="1416.3" y1="2184.82" x2="1272.3" y2="2941.87" gradientTransform="translate(-272 -1468)" gradientUnits="userSpaceOnUse">
      <stop offset="0" stop-color="#a5dcfa"/>
      <stop offset=".3" stop-color="#a6ddfd"/>
      <stop offset="1" stop-color="#28a6f9"/>
    </linearGradient>
    <linearGradient id="c" x1="1586.92" y1="1626.54" x2="1297.25" y2="2519.84" gradientTransform="translate(-272 -1468)" gradientUnits="userSpaceOnUse">
      <stop offset="0" stop-color="#3cc0fc"/>
      <stop offset=".47" stop-color="#44b9fd"/>
      <stop offset="1" stop-color="#24a0f8"/>
    </linearGradient>
    <linearGradient id="d" x1="837.83" y1="2419.19" x2="267.33" y2="2441.8" gradientTransform="translate(-272 -1468)" gradientUnits="userSpaceOnUse">
      <stop offset="0" stop-color="#1457b8"/>
      <stop offset=".66" stop-color="#145dc2"/>
      <stop offset="1" stop-color="#177ae6"/>
    </linearGradient>
    <linearGradient id="e" x1="529.29" y1="2098.95" x2="800.01" y2="2459.44" gradientTransform="translate(-272 -1468)" gradientUnits="userSpaceOnUse">
      <stop offset="0" stop-color="#11316a"/>
      <stop offset="1" stop-color="#154fac"/>
    </linearGradient>
    <linearGradient id="f" x1="1525.7" y1="1963.93" x2="837.01" y2="2359.12" gradientTransform="translate(-272 -1468)" gradientUnits="userSpaceOnUse">
      <stop offset="0" stop-color="#1156b4"/>
      <stop offset="1" stop-color="#103b7c"/>
    </linearGradient>
    <linearGradient id="g" x1="1318.59" y1="2109.05" x2="1431.28" y2="2511.64" gradientTransform="translate(-272 -1468)" gradientUnits="userSpaceOnUse">
      <stop offset="0" stop-color="#1150ab"/>
      <stop offset=".54" stop-color="#114594"/>
      <stop offset="1" stop-color="#1252ad"/>
    </linearGradient>
  </defs>
  <path class="m" d="M1393.2,772.67c12.98-1.34,25.99-1.47,39.05-.39,1.18-1.3,2.36-2.31,3.53-2.3,24.34.15,56.24,6.9,80.35,12.21,1.17.26,2.24.98,3.35,1.75s2.18,1.76,3.18,2.78c56.02,16.51,107.26,51.28,152.37,87.87,25.38,20.59,52.18,42.9,70.71,69.68l4.54,1.3c46.37,58.31,96.37,117.17,152.61,167.41,7.64,4.58,13.5,10.23,17.57,16.93v29.64c-89.53-31.77-157.58-81.37-257.97-69.99-106.29,12.04-188.05,88.58-293.5,94.93s-180.9-68.7-288.89-20.57c-67.99,30.3-107.63,97.62-175.69,134.74-77.08,42.03-135.17,31.55-216.88,40.51-41.17,4.51-82.64,16.84-123.91,22.72-85.3,12.14-165.15,9.07-247.6-16.66-47.68-14.88-92.29-40.56-142.71-45.27-.33-3.46,1.49-4.86,3.59-1.97l7.33-1.15,3.82-3.11c14.65-1.55,29.09-4.41,43.32-8.6,1.07,1.64,2.48,2.49,4.34,2.34,1.55-1.09,3.13-2.11,4.81-2.94s3.26-1.59,4.95-1.89c49.96-8.78,103.62-14.27,154.04-9.21,6.22.38,11.88-.66,16.97-3.14,36.76.23,73.74-.63,109.69-9.18l7.5,1.4,8.72-5.54c31.46-9.51,62.14-21.07,92.03-34.7l5.32-.32,1.27-4.14c35.54-16.79,68.56-37.32,99.06-61.59l4.19.21c24.66-23.4,51.61-45.35,80.85-65.85l6.5-2.78c.97-1.89,1.99-3.74,3.18-5.48,6.54-9.52,43.48-43.22,53.43-48.31,1.85-.95,3.8-1.69,5.79-2.37,1.19-2.13,2.42-4.22,3.84-6.19s2.81-3.85,4.51-5.43c25.7-23.76,52.23-46.37,79.19-68.66,3.73-3.08,7.59-5.73,12.3-7.08.33-5.46,3.62-9.5,9.36-7.8l3.86-5.65c51.66-43.06,110.56-79.25,170.23-107.13l5.31.46c-.74-6.5,3.32-9.19,12.18-8.08l92.32-29.23c19.96-6.78,40.24-9.94,60.85-9.49,6.36-5.15,35.99-9.43,42.19-6.6,1.08.49,2.08,1.18,3.05,1.92Z"/>
  <path class="l" d="M1154.47,527.4c18.09-6.48,41.2-15.68,58-24.95l1.33-4.33,4.6.92c9.32-5.63,18.32-11.8,27.14-18.16l1.01-4.59c8.68-1.64,24.41-12.84,30.76-20.39l.44-4.57c3.75-.59,8.2-3.94,11.2-6.45,8.8-7.36,20.13-19.37,24.68-29.43l6.65-1.87c22.17-21.22,46.74-40.03,72.65-55.68l1.82-3.29,6.36.32c21.69-10.46,45.07-17.61,69.22-18.87l5.53-3.29c20.31-.42,40.16,1.32,60.33,3.89,4.57-1.73,9.42-1.99,14.55-.77l6.3,3.32c79.11,4.92,142.24,59.91,196.27,113.12,26.24,27.05,52.7,53.57,79.36,79.58l3.54.54c.51,1.6,1.07,3.17,1.83,4.64.74,1.44,1.5,2.83,2.57,3.88,20.49,20.17,46.23,42.49,70.51,57.76,1.28.81,2.8,1.24,4.37,1.64,1.61.41,3.28.59,4.96.71v-132.6c-71.28-22.43-115.53-85.67-168.41-133.44-121.04-109.33-267.76-139.55-407.7-40.98-81.86,57.65-117.07,108.51-223,130.83-2.75.58-5,.98-6.97,1.27-.8.32-1.62.63-2.45.9-6.17,1.99-13.09,2.57-19.49,3.51-.37.05-.73.08-1.1.1-.33.3-.79.51-1.5.54-43.9,1.96-84.6-10.29-127.99-14.2-157.8-14.22-272.06,61.5-357.7,186.69-15.23,22.27-38.84,63.52-59.44,90.68l-11.2,17.36c-40.79,61.07-93.26,117.96-170.72,125.73l-16.51-1.71c1.28,1.17,10.57,7.83,12,8.77,1.4.91,2.77,1.78,4.25,2.18,104.01,27.8,186.54,13.91,278.9-39.06,47.61-29.86,94.6-60.31,140.97-91.34l2.3-.78c2.06-.71,2.36-1.02,3.27-1.56,16.44-9.82,32.6-24.91,38.87-32.79,48.63-70.13,115.41-123.91,203.63-132.28,41.8-3.44,82.65-10.49,122.56-21.16"/>
  <path class="k" d="M-1.4,906.82l3.03-6.23c64.16-50.35,134.17-69.95,210.7-34.48,109.88,60.48,235.42,108.76,363.29,90.54,3.64-.05,5.09,1.46,3.29,4.77-.45,1.44-.96,2.85-1.66,4.15s-1.37,2.53-2.37,3.34c-38.02,30.81-77.8,56.35-124.02,73.17-23.02,8.38-50.59,17.59-74.74,14.49-12,4.84-25.29,6.47-39.86,4.89-14.6,1.07-27.83-1.08-39.7-6.45-12.95,3.09-32.38-2.22-43.68-9.36l-7.36,1.86c-30.48-5.35-61.47-9.15-92.43-6.61-4.63-1.08-9.31-1.86-14.08-1.49l-5.69,3.43c-23.44,1.8-46.08,8.74-67.68,17.78l-9.31.62-4.35,5.44c-15.96,8.04-31.43,16.95-46.42,26.71l-6.94.6v-187.19Z"/>
  <path class="j" d="M784.81,713.39l2.54,3.06c-27.51,26.09-52.56,54.91-75.14,86.46-29.44,44.66-61.34,87.42-95.7,128.29-8.01,10.74-17.43,18.73-28.26,23.99,2.62,4.35-5.35,8.58-9.36,6.24-1.6-3.08-5.44-1.06-7.78-.8-121.76,13.59-219-21.72-325.58-73-18.01-8.66-34.04-20.45-54.66-27.22-74.78-24.51-133.4,1.03-192.27,46.42v-84.24c28.45-19.17,59.48-35.97,93.55-42.95,30.57-6.26,68.04-5.2,98.33,2.39,12.23-.33,24.46,2.37,36.7,8.11,39.54,16.39,79.48,31.67,119.81,45.85l7.28,5.32c133.62,36.3,218.52,10.25,329.88-64.01,36.08-24.06,62.29-42.32,100.67-63.9Z"/>
  <path class="bi" d="M1700.51,552.71c10.17,2.97,19.43,8.62,27.78,16.93,33.1,28.01,64.97,57.54,96.75,87.05,1.12,1.04,1.96,2.38,2.79,3.78s1.53,2.98,2.15,4.56l5.03,1.51c25.1,19.87,51.29,38.2,78.56,54.99l6.88,7.45v168.48c-6.39,2.78-16.48-.42-20.28-6.24-30.17-53.74-76.15-100.96-120.13-145.17-39.66-39.87-80.94-78.45-124.47-113.81l-3.43-6.21,1.99-3.27,20.2,4.49c2.4-4.6,5-8.43,10.5-9.22-.55-5,1.46-7.88,6.6-8.62-.44-11.85.6-18.58,14.19-14.21,4.11-16.57,3.97-23.16-7.39-36.32-1.51-3-.99-4.9,2.27-6.16Z"/>
  <path class="ad" d="M1893.94,889.66c2.72-2.44,5.01-1.89,6.24,1.56,6.67,1.73,13.71,4.04,20.28,6.24v49.92c-2.9,9.98-6.6,12.12-11.09,6.43-6.24,8.1-8.4,8.91-17.59,3.51-1.79-7.36-10-14.42-17.22-10.46,8.85,8.99-8.84,14.49-8.65,2.67-7.52-2.06-15.22-2.65-23.11-1.77l-2.94-3.4c-3.98-1.34-18.84-3.85-19.25-2.75,2.28,8.67-16.22,7.32-21.22,5.07l-4.86-5.54c-5.11,6.22-16.11-.66-10.57-7.5l-1.15-1.7c-8.5,3-14.4-7.07-7.12-12.27,1.11-5.85-1.77-10.17-7.19-6.08,4.22,6.74-2.78,9.36-8.2,5.58.22,1.96-.41,3.87-1.88,5.74,2.46,5.34,4.64,11.03-3.52,11.06-.8,5.65-2.86,8.26-9.15,8.29-63.58-66.12-137.2-123.22-223.07-157.56,20.21.71,40.29,4.24,60.25,10.59,101.49,27.88,202.52,57.27,303.1,88.14l7.92,4.22Z"/>
  <path class="z" d="M1745.75,944.26c-.07-.11,1.28-.98.45-2.57-1.16-2.22-8.48-9.42-6.67-11.47.5-.57,2.38,1.99,3.86,2.38,1.15.3,3.32-1.3,3.92-.81.92.76-3.52,3.28-3.1,4.64.11.37,5.9,4.95,6.2,4.71.38-.29,1.08-7.41,3.05-8.69,1.22-.8,4.09,1.43,4.77.88.5-.4-4.79-9.5-3.1-12.46l4.63.77-7.76-3.11c3.42-6.03,9.59,0,15.58-.8.7-2.82-3.2-.63-3.11-2.31.45-8.12,17.5-11.15,14.05,5.94-.34,1.71-4.69.07-2.65,5.39,2.58,6.71,8.52-.8,13.54.38.49,3.06-3.78.86-4.68,1.56-.6.47,2.79,3.7,2.67,5.46-.1,1.42-3.27,2.95-2.66,3.85.18.26,5.15,3.09,5.46,3.12,2.21.23.95-3.72,1.04-3.9,2.6-5,8.57,6.95,9.88,7.01,7.31.32-2.23-5-2.34-5.44-.49-1.88,1.95-4.28,3.88-3.88,3.83.81,1.66,9.81,2.38,10.91.14.21,4.47-1.42,4.66-1.58.67-.54-4.81-4.73-3.11-6.21.21-.19,3.73-.56,4.41.71,1.43,2.72-2.46,8.83,8.05,5.5-7.62-5.59-.29-3.98,3.09-7.01,2.55-2.29,3.31-5.63,6.26-7.01-7.15,18.58,3.91,5.62,4.67,6.27.21.18-.28,2.11.33,2.51,2.74,1.78,8.61,2.47,9.07,2.78,1.44,1.01,1,4.08,2.33,4.06,2.18-.03-1.11-6.61,2.32-6.25l4.69,6.22c-4.24-10.74,1.93-7.4,2.82-8.19,7.89-6.98-9.16-.51-7.49-5.8.05-.16,2.45.31,3.14-1.07,1.5-3,.02-7.75,4.63-6.75.69,1.78-1.83,5.94-1.55,6.21,2.64,2.52,4.86-4.98,5.45-4.66,1.35.74,9.7,13.3,10.17,4.69l1.56,3.11,3.12-2.31c.04,2-2.6,12.66-3.17,13.23-.28.28-7.51-1.29-7.78-1.58-.41-.44,4.74-7.56-5.51-5.8-3.07.53-2.34,6.67-2.26,8.92,2.87.69.55-3.23,2.32-3.13,1.49.08.06,3.1,1.7,3.3,1.94.23,4.32-1.82,5.99-1.77.9.02.82,2.5,1.22,2.7.77.39,2.68-1.21,2.77-1.09,2.18,3.09-4.92,10.12,6.26,6.23-.08-4.15-5.86.3-4.63-3.82,2.32-7.8,7.17-3.47,7.75-3.97.7-.61-2.9-3.82-.78-4.62,2.66-1.01,11.95,10.06,14.76,9.26.24-.07,3.27-3.61,3.18-3.84-.46-1.25-4.53-2.96-3.1-5.48.32-.56,3.94,3.73,3.12-.77-3.23-3.14-3.39-7.03-6.24-7.04-1.05-2.27,4.82-1.23,3.09-3.08-1.25-1.33-8.5-3.52-10.9-3.16l2.31-4.69c-7.99.17-2.6,5.19-6.98,7.82-4.16-6.52,7.38-12.6,9.19-10.81.37.37,3.26,8.21,5.15,9,2.29.95,3.7-4.02,6.71,3.38,1.64.15-.03-3.7,1.54-3.11,6.57,2.45-2.68,8.87-2.32,9.33.1.13,1.91-.21,3.04,1.2,5.82,7.31,1.11,4.19.41,5.25-.57.87,2,3.28.5,6.16-.26.5-12.71,4.88-4.73,7.69,1.55.54-.31-4.87,2.34-2.35l2.32,5.47c1.9-3.9,5.51-10.3,10.86-9.45.72.11,1.12,6.06,3.96,3.21.33-.33-.97-6.23,4.69-6.24v182.51c-11.48-7.69-22.42-16.61-32.78-25.72-23.38-20.56-42.39-42.33-62.39-65.53-22.05-25.58-63.04-67.83-79.55-94.38Z"/>
  <path class="af" d="M1820.62,597.95c-2.08-1.18-2.63-3.97-.54-5.34,2.6-1.71-33.1-37.01-42.36-41.9-1.59-2.98-2.15-6.28-1.69-9.88-12.75-1.31-15.84-4.25-8.31-15.36-7.97,2.11-12.68-.16-14.13-6.81-6.23-2.98-11.28-9.7-4.2-14.66,4.76-1.25,14.62-6.8,7.33-8.61-6.43-1.88-10.67-5.24-12.72-10.08-16.97-12.05-4.91-26.67,11.11-9.48,10.48-12,20.76-.68,25.12,10.91,8.05,1.73,14.22,5.1,19.3,11.57,7.07,11.26,15.9,19.92,26.49,25.99,2.81,4.61,6.21,7.32,10.19,8.14,26.04,25.15,53.57,49.23,84.24,68.64v65.52c-1.86-.07-3.7-.2-5.5-.55s-3.47-.74-4.98-1.52c-28.81-14.99-58.68-36.72-83.56-57.65-1.28-1.08-2.27-2.54-3.25-4.04s-1.8-3.18-2.56-4.87Z"/>
  <path class="au" d="M1820.62,597.95c31.02,26.22,63.68,49.79,99.84,68.64v62.4c-32.64-17.85-62.16-40.05-90.48-63.96-3.47-4.87-4.02-8.81-1.65-11.83-7.86-16.14-11.78-24.2-11.78-24.2l1.01-2.6c-7.73-3.05-8.52-9.7-2.6-15.13l-.36-3.06c-7.36-3.66-18.49-17.52-8.02-21.17,4.13-2.71,15.93,6.25,14.04,10.92Z"/>
  <path class="ba" d="M196.71,591.71l-4.98-.83c-8.81-8.14-16.79-16.82-23.94-26.04-9.8,9.2-14.41-7.04-14.26-15.5-8.61,2.29-10.51-4.48-11.76-11.48l-3.15-2.55c1.01-4.87.1-8.44-2.75-10.69,20.18-18.35,44.22-32.91,68.61-8.55s10.93,53.72-7.77,75.63Z"/>
  <path class="bg" d="M106.23,555.83c6.37-4,6.38,5.78,5.49,10.7,3.34,3.4,6.85,7.37,8.65,11.86l4.55.38c2.23,4.19,3.59,8.84,4.08,13.96l4.29-.52c4.22,3.7,9.03,7.38,14.41,11.04,7.8-7.64,19.68,3.1,7.26,6.38,2.01,2.51,2.21,5.87.62,10.08,4.54,4.3,5.77,7.96,3.7,10.99-46.1,36.24-96.24-8.91-69.29-56.03,4.44-7.76,10.9-12.59,16.25-18.85Z"/>
  <path class="ah" d="M514.94,574.55c.07,2.95-1.04,3.91-3.67,4.33,5.28,6.15,5.3,13.37,5.21,21.32-.25,22.59-5.85,50.13-12.47,71.07-15.32,6.1-19.51,6.11-34.32,0-5.95-3.42-1.07-6.11,4.39-6.7,8.39-6.17,17.07-60.34,4.71-69.14-7.08,2.89-14.19,5.87-21.33,8.95l-1.81-3.31c15.01-20.44,31.9-33.01,59.28-26.52Z"/>
  <path class="ax" d="M455.66,601.07c6.8,2.4,21.19-15.28,27.21-6.16.36.54,4.98,11.12,5.2,11.96,1.17,4.55-2.01,37.39-3.54,42.52-.48,1.61-7.99,17.96-8.83,18.56-1.96,1.39-7.17-2.19-5.99,3.32-32.19-13.27-32.75-44.71-14.04-70.2Z"/>
  <path class="ag" d="M549.26,346.8c3.76-2.47,4.52-2.2,7.41.87,15.05-3.91,16.22,10.26,15.85,21.55-.68,14.83-.22,29.65,1.38,44.46-1.81,8.22-4.62,12.65-13.72,11.12-39.34-8.65-37.47-53.7-10.92-78Z"/>
  <path class="aa" d="M504.02,671.27c-1.75-2.31-.93-4.79-.38-7.26,3.55-16.1,13.76-65.72,8.08-78.8-2.53-5.83-13.3-6.24,3.22-10.65,48.99,11.61,31.94,79.66-10.92,96.72Z"/>
  <path class="w" d="M592.94,334.32c4.89,1.49,3.09,5.11-1.5,6.19l-1.03,3.36c8.83,1.31,11.61,20.96,7.52,27.62,2.17,4.16,1.22,6.6-1.52,10.21,3.23,11.28,5.15,19.98-4.82,28.05-.06,4.17-1.17,8.14-3.33,11.92-11.78,5.36-15.34,5.92-28.08,3.12,6.41.95,10.96-8.83,10.77-13.39-.04-1.04-1.13,1.58-.58-6.82.51-7.75-1.74-12.93-1.88-18.19-.16-6.16,4.13-33.82-4.44-36.02-3.04-.78-9.46,1.07-9.9.84-.61-.32-1.15-5.33-4.88-4.41,13.61-12.46,24.87-14.97,43.68-12.48Z"/>
  <path class="ak" d="M121.83,538.67c4.36-1.71,4.74.45,4.68,4.58,4.77-.57,7.33,3.06,5.48,7.41,5.81,1.76,7.39,6.23,8.15,11.84,3.86.15,5,2.67,5.36,6.26,6.56,2.02,10.85,5.03,7.08,11.67,3.99.94,7.11,2.86,9.09,6.57,9.93-4.76,11.5,1.27,9.62,10.24l7.53,8.73c-1.6,2.87-2.92,5.92-3.96,9.14-5.32,5.33-9.55,10.85-15.6,15.6-.56-3.58-5.18-3.78-6.23-4.7-2-1.77,5.01-.92,2.35-3.11l-5.47-1.57c-.68-2.66,2.57-.96,2.99-1.7.68-1.2-1.7-3.5-1.15-4.34.32-.49,2.55.07,2.81-.21.35-.37-5.32-6.57-3.08-9.33.23-.29,11.75,2.69,4.66-1.55-5.52-3.3-9.49,6.4-10.12,6.22-1-.3-3.15-3.57-5.46-3.13.44-3.66,7.63.5,3.02-3.79-5.45-5.07-10.05-1.89-10.83-2.45-.33-.24,2.62-4.98,1.54-6.22-.35-.4-6.67,4.43-8.93-2.58-.36-1.11,1.63-3.28,1.14-3.66-.81-.61-3.16,1.46-3.92,1.32-.53-.1-1.78-4.44-5.43-2.9.89-4.79,6.06-1.26,6.23-1.53,4.6-7.47-5.86-2.71-6.22-3.13-1-1.19,2.85-9.01-5.48-6.28-1.96.64.8,5.25-2.31,4.72l-4.69-4.69c.37-3.32,5.79-.14,7.77-3.91,1.47-2.78-2.9-1.96-3.62-4.23-1.1-3.45,2.55-9.15-2.6-12.12,5.08-5.95,10.14-11.55,15.6-17.16Z"/>
  <path class="o" d="M135.87,524.63c10.2-1.02,4.37,8.21,4.9,9.18.25.46,3.15.68,3.57,1.66.74,1.71,1.31,8.76,4.04,10.98,3.36,2.72,3.14-5.01,4.62-3.09.15.2-.36,2.03.52,2.63,1.48,1.01,3.92.26,4.19.49.64.54-2.51,6.86-1.57,7.78.43.42,6.53-.64,7.8,2.36l-6.22,2.35c-.69,2.61,2.41,1,2.83,1.73.31.53-1.3,2.49-1.09,2.76.15.19,4.3,1.91,4.47,1.73.25-.27.46-5.36,1.51-6.92,3.01-4.46,3.11,2.24,4.11,3.65,4.58,6.41,3.28,6.09,9,11.2,6.55,5.84,11.76,11.54,18.16,18.58-6.8,7.96-14.44,15.98-21.84,23.4-4.08-6.16,1.68-6.6,1.57-7-1.23-4.42-13.46-10.6-6.25-14.07l-4.66-.79c-.92-1.98,6.6-1.74,3.1-4.65-2.29-1.91-6.88,3.31-7.76,3.09-.4-.1-2.26-4.79-4.81-6.64-1.19-.86-7.39-2.47-7.71-2.72s3.43-7.42,3.12-7.76c-2.6-2.93-7,10.84-9.35,3.88-.13-.4,7.61-3.33,4.66-7.01-.19-.24-5.66,3.1-6.08-.74-.1-.9,2.19-4.14,1.4-5.51-.1-.17-2.47,1.62-3.93.13-1.87-1.91-1.13-7.37-3.74-9.9-1.69-1.64-4.9-1.5-5.7-2.6-.94-1.3,1.68-5.59.9-6.34-.73-.7-8.15.73-9.35-.03-.62-.39,6.13-5.82,1.56-7.78,4.74-4.87,8.96-9.42,14.04-14.04Z"/>
  <path class="t" d="M588.26,421.68c-3.83-7.71,1.69-8.06,1.56-8.57-.27-1.01-3.46-2.39-3.1-3.87.17-.68,9.41-3.85,6.24-10.94l3.13,2.31c1.14-5.09-3.39-18.79-3.24-21.73.04-.85,3.19-.83,3.32-1.82.28-2.19-1.91-4.97-1.75-7.45.06-.97,2.72-.83,2.83-1.74.26-2.19-3.49-20.4-4.38-21-.28-.18-5.46,3.03-5.93-.79-.05-.43,1.32-8.14,1.57-8.49.64-.85,5.74,1.48,4.43-3.27,12.37,1.64,26.2,16.86,27.94,29,3.6,25.19-9.7,47.94-32.62,58.36Z"/>
  <path class="aj" d="M706.39,342.44c15.72-3.37,16.59,16.81,7.1,19.62-16.19,4.78-20.13-16.82-7.1-19.62Z"/>
  <path class="i" d="M1156.08,524.63c4.89-1.49,9.59-.11,12.23,4.35,7.76-3.56,10.12,2.93,8.4,9.77,4.86,1.46,7.31,3.92,7.35,7.37,8.81-.64,17.62.1,26.41,2.2,6.92-1.74,12.18-1.32,15.81,1.26l2.63-3.57,26.02-4.77,4.1,2.11c2.28-5.67,14.25-9.88,20.28-10.92.87-2.92,2.24-2.92,3.12,0,4.67.52,2.83,5.52.91,8.63l14.12-2.27,2.13,3.01-1.71,3.85c-8.44,4.9-24.3,11.14-32.61,10.19-1.65,1.34-3.34,2.62-5.14,3.7s-3.56,2.1-5.46,2.65c-26.77,7.73-54.27,13.82-81.6,19.23-1.94.38-3.98.3-6.06.2s-4.18-.43-6.26-.83c-14.07,7.82-32.36,10.96-48.36,9.36-6.6,3.65-17.26,8.74-24.96,4.68l-10.44,2.82c-1.58,3.93-11.2,7.26-14.52,3.42-5.52,6.05-18.34,10.5-26.52,7.8-5.15,5.76-17.35,12.2-24.96,9.36l-3.48,4.76c-18.37,7.36-36.2,15.93-53,26.41l-5.92.02c-4.83,8.72-18.29,18.41-28.08,20.28l-2.36,3.55c-28.2,28.72-55.15,58.63-80.84,89.73l-4.16,1.88c-2.25,10.7-10.51,21.65-20.28,26.52,1.07,5.95-3.23,12.05-9.36,12.48l-1.68,7.16c-40.14,52.68-78.63,101.34-141.29,127.44-13.91,5.79-55.23,22-69.94,20.51-1.21-.12-1.9-2.29-2.36-3.79,62.68-57.23,101.48-133.55,154.48-197.29,11.38-13.68,26.28-25.61,38.21-38.24,1.8-1.91,3.85-3.24,3.87-6.26,33.97-19.1,45.2-44.09,69.4-71.78,46.38-53.07,91.83-81.07,160.89-93.38,45.41-8.09,96.36-9.65,140.98-23.6Z"/>
  <path class="s" d="M1550.75,335.88c117.76,1.58,209.72,123.39,285.47,196.55-8.93,4.51-5.31-3.02-10.94-7-3.24-2.29-7.89-1.86-10.27-3.79-6.4-5.21-12.79-16.67-17.74-22.79-6.33-7.82-16.26-7.52-19.4-9.91-1.02-.78-3.25-11.53-11.92-15.05-5.05-2.05-8.37,5.91-11.39,5.38-1.21-.21-13.37-11.14-15.04-9.23-1.01,1.15.57,9.29,2.32,10.97,3.38,3.25,7.8-.88,8.58-.05,3.09,3.27-4.33,5.38-3.1,6.21,4.33,2.93,15.69,5.94,17.12,11.76,1,4.08-3.56,1.28-5.85,2.69-.73.45-.92,2.73-2.01,3.36-3.56,2.08-10.83.56-6.19,7.6,1.15,1.75,4.09,2.37,5.6,4.1s3.27,7.94,4.57,7.92c.37,0,1.95-2.62,3.35-2.63,15.28-.1.68,11.5,2.12,13.56.54.77,13.48,2.37,14.01,3.19.86,1.33-2.89,7,.42,10.46,1.15,1.21,4.21,1.41,5.74,2.8,13.67,12.47,26.32,26.13,37.5,40.58l-3.08,5.38c-4.23-3.57-10.38-7.71-14.04-10.92-2.82-.32-5.42-1.22-7.79-2.75-37.86-38.38-77.89-74.2-120.08-107.45-11.73-6.43-22.14-13.9-31.24-22.4.66-6.62-9.25-14.61-14.21-9.66l-16.15-7.46c-5.93-.15-13.32-1.14-15.73-7.46-11.24,5.1-24.45-3.74-30.37-12.28-8.83-.52-11.72-3.81-8.67-9.87-13.1,6.76-16.18-4.15-3.31-9.29l-.75-1.33c-12.27,4.07-12.81-6.94-2.12-11.24-8.58,3.03-11.5-6.92-11.52-14.11-5.15-.13-6.97-2.52-6.2-7.31-13.17-10.57-8.48-35.84,12.32-28.55Z"/>
  <path class="aw" d="M1475.87,332.76c9.18.25,18.44.31,27.79.2,8.85-.52,13.21,2.58,6.31,10.17,2.61,3.08,1.89,5.95-.94,8.62,4.62,3.67,9.48,7.92,10.82,13.87,5.34,1.91,7.22,4.92,5.37,10.38,4.19,4.28,7.06,9.57,8.63,15.88,5.12,1.25,3.56,5.11,1.8,8.88l7.8,13.35c6.66,2.23,12.93,9.86,2.63,9.13l-4.62,2.65-34.65-1.12-4.41-3.09c-10.58,3.22-21.74,5.03-33.47,5.44l-27.47,5.52-6.13-1.61-3.26,4.15c-17.06,4.7-33.12,12.28-47.59,22.47l-5.31-.1c-4.99,9.49-17.63,20.89-28.08,23.4-11.76,4.88-22.83-5.08-10.97-14.53-8.91,1.84-8.17-10.47-.05-12.12,2.27-4.12,4.03-8.49,5.28-13.09,1.77-6.15,8.01-8.29,13.98-8.38-.62-3.5-1.63-7.19-3.02-11.06-16.73,3.77-3.52-19.89,6.32-9.22l3.38-3.42c-1.4-7.96,2.04-14.75,10.78-12.75-4.45-5.77-1.89-9.61,7.67-11.51.66-4,1.74-5.58,5.41-7.43-8.68-10.36-7.25-15.62,2.92-20.07l1.99-2.78c24.83-12.7,52.63-21.54,81.12-21.84Z"/>
  <path class="x" d="M1394.76,354.6c4.84,7.48-6.74,5.44-7.65,8.69-1.58,5.66,7.4,14.38,7.64,15.49.22,1-6.93,2.24-7.78,4.69l6.23.78c-3.47,3.31-3.06,9.54-6.43,6.78-.4-.33-.86-3.6-2.15-3.64-.19,0-1.39,1.89-3.12,2.29-1.21.28-3.46-1.23-3.89-.76-.51.57,1.44,6.01,1.71,6.19.35.24,10.79-1.4,6.06,3.17-.61.59-2.75-2.11-4.31-1.27-.36.19-.24,2.63-1.42,2.84-1.85.32-7.92-1.56-9.85,0-.1.08,1.37,1.99,1.17,2.27-.86,1.2-2.46.77-2.67,1.78-.25,1.19,1.64,3.44.53,6.42-.62,1.65-6.31,7.53-8.46,5.92-.91-.68-1.21-3.56-1.67-3.8-3.18-1.67-9.35,6.48-7.62,7.66.64.43,10.02-5.11,14.03.81-.52,1.95-6.67-.34-6.25,1.55.35,1.57,2.67.3,3,.88.4.68-1.94,3.3-1.34,4.39.32.59,3.79.91,4.59,2.54.6,1.22-6.36-1.03,0,5.44-6.63.57-12.4-.7-16.58,5.09-.52.72.38,2.97-.47,4.76-.66,1.38-3.13.97-3.22,1.11-.54.95,2.34,2.3,2.54,3.82.8,6.2-3.89,2.05-4.1,2.37-.42.65.5,3.47-.13,4.55-.25.42-6.79-2.04-6.19,5.58,2.18,6.21,1.24-1.98,1.63-2.32,5.34-4.55,4.84,8.27,4.32,9.11-.48.77-5.12,2-5.87,4.17-.46,1.34,2.21.48,2.49,1.11.46,1.07-.41,2.41-.15,2.77,2.17,2.9,3.77-.55,5.98-.08.52.11,2.17,4.26,5.71,3.21,1.96,3.74-16.31,22.03-17.75,22.38s-2.79.11-4.09-.54c.83,5.78-13.5,16.56-18.72,14.04-5.45,3.29-10.41,5.46-16.35,1.93-12.67-7.54-.18-18.23,9.6-13.5-1.51-4.22-1.19-8.14.79-12.1-4.82-2.98-3.8-5.99-.2-9.29-3.55-11.5-3.24-18.09,10.09-20.46.82-6.22,1.47-12.45,1.97-18.71-7.57-2.14-5.3-5.98-1.47-11.38-3.95-8.59,7.85-9.17,8.64-3.62.18,1.27-5.3,8.24-1.78-.64-6.49-4.81-7.46-5.75-8.16-13.61,26.8-24.64,48.17-43.99,81.12-60.84Z"/>
  <path class="q" d="M1550.75,335.88c-2.8-.04-8.6-.68-10.59.35-.5.26-6.31,8.6-6.28,9.48.02.61,1.94,11.22,2.16,11.93,1.06,3.41,4.42,4.29,4.92,5.17,1.09,1.92.06,5.34.45,5.83.53.67,5.68-2.23,6.22-1.56s-1.39,12.63,4.67,16.47c1.85,1.17,6.85-4.9,7.82-.07,1.45,7.21-12.39,6.8-7.79,11.66,1.01,1.06,6.33-2.12,7.55-1.41.3.17,3.55,5.77,3.36,6.06-.35.52-12.36,4.93-9.34,7.83.34.32,6.29-3.05,8.76-3.16,2.3-.11,2.68,4.64,6.81,3.18-.37,3.38-9.9,2.36-4.67,5.47,2.85,1.69,9.25-1.62,10.87,7.64,7.06.32,8.39,7.32,15.64,8.11,4.88.53,11.87-4,14.06-2.49.15.1-1.53,2.27-1.19,2.78,5.46,8.03,9.74,3.7,14.04,5.27,2.86,1.04,14.53,7.84,15.97,7.55,1.97-.39,1.51-6.14,4.69-4.69,1.82,6.35,17.93,11.1,8.6,17.15l-8.15-.5c-23.94-11.17-49.46-18.49-75.41-23.22l-6.92-4.36c-4.67,1.56-10.27,2.96-10.92-3.12,8.58-.75-4.33-6.41-4.75-6.91-1.21-1.43-8.46-13.72-8.69-14.93-.75-3.89,3.12-5.45,2.52-6.2-.13-.16-2.94-.09-3.81-1.61-2.54-4.46-3.34-11.78-7.77-15-1.38-1-6.59-.2-3.99-3.69.11-.14,3.08.41,3.2-.94.62-7.2-4.31-3.59-4.66-3.85-.62-.47-1.89-6.91-3.13-8.28-2.07-2.29-2.8-2.82-5.36-5.74-1.85-2.11-5.47-2.82-5.67-3.08-2.54-3.34,4.36-3.72,4.69-5.46s-2.76-3.72-2.77-4.67c-.02-1.57,6-4.45,4.3-6.98-1.24-1.84-27.68-1.62-31.99-1.62-2.33,0-2.18-1.51-2.31-1.51,24.92-3.01,50.29-1.57,74.88,3.12Z"/>
  <path class="av" d="M1313.64,415.44c5.42-.85,3.6,5,3.13,7.81,2.91-1.59,3.44-2.11,3.13,1.53l6.2-7.78c1.68,4.17-3.18,7.63-3.13,10.12.03,1.83,3.82-.51,3.14,2.34l-5.45,4.7c1.51-4.04-.82-7.12-3.9-4.66-.3.24,1.23,2.47,1.24,3.89s-1.55,3.65-1.26,3.89c.86.71,5.19-1.5,4.69,1.55l-7.78.04c.22,3.44,5.68,2.62,6.18,3.18.93,1.06-1.73,6.15-1.52,8.47.22,2.34,3.65,4.89,3.14,5.48-.47.54-3.78-1.2-3.11,1.55l4.66,4.69c-10.45-3.07-4.19-.59-5.12,3.14-1.61,6.45-4.9-1.07-5.79,0s2.25,5.6,1.54,6.23c-3.43,3.03-5.17-4.19-6.21-3.09-6.4,6.7,5.29,15.66-3.15,19.5-.78,4.96,4.14.02,4.68.77.88,1.22-2.78,7.57-3.06,10.33-.44,4.29,4.3,9.99-2.45,9.34-5.01-.48-8.36-7.71-5.4,3.72-2.83.64-.16-4.54-3.86-3.09-10.14,3.97,10.34,12.8,16.35,7.78,1.63,6.29-23.76,19.51-26.43,17.46-.65-.5-1.17-1.16-1.65-1.86-.98.06-2.16.11-3.12,0-9.37,5.69-13.03-7.68-8.7-15.19-4.54-8.78-2.92-18.41,6.91-10.44l-.22-2.86c-8.53.28-7.8-11.62.86-9.44-.56-2.92.09-5.35,2.73-6.94-3.03-8.85,3.39-8.08,9.84-5.8-3.46-1.65-5.84-3.55-4.17-7.24-6.36-3.07-4-9.41,2.83-8.85l-3.03-10.56c-4.82,5.35-13.61,3.27-8.6-3.79,12.16-11.03,23.42-24.43,35.88-35.88Z"/>
  <path class="ai" d="M1277.76,451.31c2.87,10.64,7.01-1.98,9.38-4.67.19-.21,4.57,2.88,4.64,3.15.33,1.23-2.48,2.38-2.58,3.84-.09,1.33,5.51,11.41,2.31,14.64-2.15,2.17-6.75-1.68-5.95,2.53,7.15,1.96,2.49,6.43,3.11,7.02s4.26-1.02,4.72.81c2.96,11.84-10.15,3.23-10.95,3.89-.27.22,2.11,4.05,1.62,6.77-.18,1-2.66.82-3.04,2.04-.2.65,1.06,6.04-.15,6.77-1.54.94-5.9-1.97-6.22-1.56-.16.21-.15,4.49,0,4.67.6.73,5.16-2.18,6.22-1.54.35.21-1,2.09-.67,3.25.47,1.66,2.17,3.28,2.24,3.8.15,1.01-2.47.58-2.67,1.03-.31.69,3.43,5.76-4.81,1.78-2.39-1.16-.97-3.98-3.43-3.63-2.23,4.23,3.28,5.1,3.12,5.45-.2.44-9,3.68,0,3.13-.65,3.59-3.41,8.57-3.06,12.22.09.95,2.26.96,2.52,1.39.38.64-3.11,3.35,5.2,4.31-3.73,5.02-14.27,9.2-20.28,10.92-6.85-1.58-16.22-4.91-12.49-13.5-3.48-3.91-7.2-8.11-4.5-13.55-4.72-6.52,1.75-17.34,6.26-22.97-.31-4.87,1.97-8.81,6.84-11.82l-.42-1.44c-5.12,2.81-12.73,2.17-8.17-3.8,9.68-7.09,22.39-16.97,31.2-24.96Z"/>
  <path class="bf" d="M1246.56,476.27c2,7.07,8.3-2.6,9.34-1.56.27.27,2.72,6.69,2.71,7.07-.04,2.11-8.12,6.28-7.37,9.29,1.11,4.47,9.55.66,9.34,4.68-2.85-.02-5.05,3.97-5.41,3.94-3.04-.26-3.73-5.64-5.5-3.93-1.96,1.89-12.32,26.67-3.13,14.85,1.42,3.61-2.57,7.02-2.4,9.49.28,4.12,4.7,6.46,5.33,8.81.79,2.97-1.57,6.36-1.36,6.63.42.55,11.73,3.85,10.94,7.82-10.35,2.96-23.22,4.71-32.76,6.24-2.81-2.73-5.56-5.6-8.24-8.6-3.56,3.1-7.12,1.44-6.97-3.02-11.54.46-11.6-15.41.21-12.52-2.73-8.26-1.48-15.05,3.75-20.38-3.14-2.4-5.14-4.37-1.23-6.95,10.27-5.89,23.11-14.78,32.76-21.84Z"/>
  <path class="n" d="M1213.8,498.11c.13,3.38,3.73,4.16,4.32,5.53,1.44,3.28-3.91,5.22-4.32,8.5l10.89-2.32c-3.06,6.96-11.84,3.48-12.45,3.91-.46.33,2.68,9.55,2.4,11.02-1.32,7-6.79,2.14-8.64,3.02-.28.13-.22,5.93,0,6.15,1.33,1.35,9.84-.96,7.81,6.31,3.06.49.88-3.76,1.56-4.67.56-.74,14.44,9.88,10.9,14.04-17.65,2.82-14.81,2.37-31.88-.8-4.17-.77-14.37,1.31-14.91.79-.74-.71,2.2-5.56,1.56-6.21-.29-.3-4.84.45-7.05-3.19-1.84-3.03,3.3-9.52-3.13-9.32-.75.02-7.94,10.96-6.23-3.12-3.3-.86-3.37,4.91-4.66,4.69-4.51-.76,2.69-9.16-3.91-7.79,16.93-5.29,42.14-17.59,57.72-26.52Z"/>
  <path class="h" d="M1489.91,569.87c3.01-4.28,10.49-3.34,12.48,1.56,1.45-.52,2.82-1.38,4.11-2.59.88-.99,24.44,2.84,23.97,7.27,3.7-4.03,12.38-2.09,14.04,3.12,10.11-2.33,25.45,2.82,32.76,10.92,1.29-.39,2.59-.72,3.91-.83,8.98-.78,64.46,25.49,69.26,33.07.71,1.12,1.24,2.36,1.71,3.64,19.3,13.1,38.31,30.82,55.4,46.72,59.49,55.36,156.87,145.61,193.55,215.21,1.25,2.37,4.7,3.53-.92,3.25-2.07-.54-4.15-1.02-6.24-1.56,2.63-3.38-4.5-14.65-6.52-17.66-14.56-21.66-28.86-24.99-48.56-38.79-67.15-47.02-112.87-118.58-184.67-161.64-67.55-40.51-149.93-56.12-228.23-58.02-57.43-1.39-109.71,4.34-165.36,17.16-42.03,9.69-81.89,22.47-121.68,39-60.81,25.26-118.43,57.96-171.6,96.72-67.32,49.08-111.43,98.15-168.43,156.82-83.41,85.84-182.69,177.81-312.03,170.77-33.76-3.91-58.29-12.76-88.92-26.52-7.46,1.89-18.46-3.97-21.84-10.92,75.86-8.1,146-46.34,202.79-95.16,2.72-2.33,7.46-4.51,9.36-6.24,5.95,2.55,16.16-1.55,22.5-3.24,102.16-27.38,130.83-69.8,192.78-148.07,11.79-3.4,23.73-6.32,35.81-8.75,4.25-4.41,8.95-8.25,14.11-11.53,2.13-8.9,8.41-15.97,17.16-18.72l-.42-4.06c14.76-13.49,28.7-27.71,41.82-42.67l3.85-.07c3.28-5.67,9.09-11.11,14.23-15.5,14.13-12.07,32.31-26.68,49.72-31.29,7.13-10.21,24.98-20.05,37.44-20.28,1.12-6.04,16.67-12.64,21.84-9.36.82-5.59,16.04-11.67,20.28-7.8,1.13-1.53,2.59-3.34,4.24-4.21,9.2-4.87,20.69-6.04,30.08-5.15.54-1.66,1.54-2.93,2.93-3.96s12.49-1.01,15.79-.72c11.3-7.75,28.54-9.9,42.12-7.8l3.06-2.66c50.77-7.65,101.83-18.04,152.22-30.79,26.4-6.68,53.05-10.65,79.94-11.93l5.01,1.7c3.36-.03,6.23-1.28,8.65-3.65,25.98-1.34,52.05-.9,77.98,1.27l8.53,3.95Z"/>
  <path class="be" d="M1252.56,629.1c-35.58,6.85-69.8,19.24-103.42,33.09-1.88.78-3.04,1.42-4.96,2.33-2.42,1.15-3.35,1.34-5.86,2.87l-6.5,3.04c-52.55,22.1-110,50.33-155.23,85.51-3.71,2.89-6.48,4.2-15.2,10.63-14.62,9.52-17.47,12.28-30.36,24-51.56,45.11-100.56,92.91-147,143.39-77.8,79.3-171.67,160.04-289.38,157.24l-5.9-.08-7.7-.99c-26.51-3.47-51.88-12.08-76.19-22.97l-8.13-2.84c-7.3-3.28-13.38-4.3-20.64-7.74-26.09,2.79-53.54,2.45-79.56-1.56-14.84-2.29-28.89-6.69-43.68-9.36-37.49-6.77-75.92-11.95-113.88-6.24-28.65.99-56.79,10.3-82.68,21.84-21.27,9.48-38.01,20.74-57.72,32.76v184.07l3.78.71c2.86-1.46,25.32-23.41,28.56-27.13.57-.66-.41-2.24-1.14-3.22l6.56-2.97c9.13-10.05,20.33-17.86,31.87-24.86l2.13-4.92c9.32-1.01,15.56-4.65,18.72-10.92,7.28-2.98,23.61-8.17,31.2-7.8,2.15-.87,8.5-3.12,10.14-3.12h29.64c3.38,0,18.43,2.31,22.62,3.12,27.12,5.25,58.48,20.57,84.24,31.2,16.41,6.77,31.5,13.74,48.36,20.28,30.45,11.8,50.32,20.31,84.24,23.4-1.34.6-1.36,1.12,0,1.56,4.49-.02,8.88-.02,13.19-.02,1.31.11,2.23.13,2.4,0,0,0,0,0,0,0,41.45-.01,75.74-.11,118.56-10.9,36.73-9.26,72.38-23.64,106.08-40.56,27.21-13.66,84.53-44.5,104.52-65.52,8.69-4.71,15.64-12.02,23.47-17.87,21.61-16.12,43.3-33.21,63.88-50.77,21.27-18.15,41.9-37.99,62.4-56.16,33.12-29.34,65.19-59.68,99.84-87.36,3.15-2.52,6.28-5.38,9.36-7.8,42.6-33.47,88.63-64.77,136.23-90.74,13.63-7.43,30.36-13.55,43.16-21.57.31-.19,0,0,1.8-.76.95-.4,3.82-2.1,5.53-2.57,2.08-.57,2.45-.82,5.56-1.72,54.67-15.82,92.89-33.88,152.46-41.75,14.46-1.91,30.76-4.02,45.24-4.68,47.76-2.19,83.63,4.61,129.48,14.04,125.09,25.72,247.19,70.77,371.27,102.96l3.64-1.57c-9.36-28.52-32.22-43.27-56.93-57.43-39.54-30.97-74.18-64.05-108.76-100.49-77.87-83.33-185.49-115.42-296.94-119.46-1.46-.05-1.91-.27-4.38-.21-1.63.04-3.43-.06-6.41-.16-4.17-.61-4.7-.14-9.6-.09-34.02.34-104.5,3.98-139.75,13.35l-22.25,5.5Z"/>
  <path class="am" d="M1556.99,426.36c31.16,5.08,62.27,13.76,90.48,28.08,62.34,31.65,107.52,87.36,159.12,132.6-4.86,12.07,9.78,17.35,10.7,19.7,2.92,7.51-2.81,8.84-2.92,9.38-1.72,8.11,7.11,7.41,7.82,8.38.61.83-2.9,3.84-2.77,5.45.13,1.49,3.99,3.43,5,5.56,1.6,3.37,7.37,15.57,7.13,17.7-.22,1.92-2.46,3.65-2.54,4.84-.12,1.9,4.57,5.65.98,6.98-44.69-37.73-80.6-78.42-129.48-112.32l-4.64-.67c-36-21.89-73-43.02-114.33-53.49l-7.39-5.12c-5.96,2.85-9.08,2.33-9.36-1.56-8.03-7.02-9.35-9.98-2.4-19.15-9.3-.55-15.09-9.59-7.24-16.46-11.46-5.41-13.53-31,1.84-29.91Z"/>
  <path class="r" d="M1700.51,552.71c-1.62,7.42,10.01,15.51,10.95,21.15.23,1.35-2.35,23.22-3.36,23.88-3.04,1.97-9.8-2.04-12.3-.61-1.84,1.05-.42,12.54-1.75,14.63-.7,1.09-4.78.75-5.71,2.1-.81,1.19.1,4.3-1.04,5.91-1.26,1.78-4.78,1.59-6.32,3.09-2.01,1.96-3.44,6.16-5.43,7.16-3.1,1.56-18.23-5.31-23.38-3.99-22.49-15.26-49.27-26.98-74.88-35.88-7.71-6.95-14.56-28.7-13.89-39.24.15-2.36,1.63-4.93,3.08-6.7-3.78-5.69-3.28-12.99,1.51-21.9-7.48-11.54-12.83-26.88,6.17-28.88,46.88,11.39,87.03,32.01,126.36,59.28Z"/>
  <path class="ar" d="M937.68,981.71c.8.87.09,4.8-1.04,6.36-1.29,1.79-16.89,14.39-19.22,12.34-2.66-2.33,8.1-8.82,9.38-10.1.68-.68,6.61-13.24,10.88-8.6Z"/>
  <path class="at" d="M1265.28,555.83c3.85.58.92,1.69,1.07,1.59,5.03-3.11,20.26-5.99,23.79.88,4.7-1.51,9.75-1.94,15.17-1.29-1.22-3.42-.36-6.27,3.19-7.25,8.59,4.67,11.02,3.72,18.87-1.38,2.9,3.1,6.91,4.4,12.03,3.91l2.97,3.12c9.34-6.77,15.72-6.58,24.54.09l10.47-.39c5.39,5.59,10,5.6,13.84.01,8.9,4.1,20.18,12.11,3.52,13.2-62.93,4.41-119.82,23.39-180.92,35.13-19.65,3.78-40.14,4.98-59.31,8.55-8.81.19-16.89-3.32-5.46-9.5.6-4.18,3.24-7.53,7.91-10.05-3.44-3.84-2.18-7.72,3.79-11.65,35.02-7.26,70.28-14.57,104.52-24.96Z"/>
  <path class="u" d="M1307.4,540.23c10.18-4.75,17.39-4.44,21.62.93,5.63-5.96,17.99-3.35,24.83-1.75,5.95-2.09,14.15-3.4,19.32,1.89,2.55-6.56,8.01-7.09,10.67-.34l4.28-.73c4.63,3.75,12.32,3.44,18.16.94,6.8,4.06,14.46,5.65,21.74,3.04,2.61,4.8,7.2,5.87,13.78,3.21,8.55,4.36,17.74,6.94,27.59,7.75l15.61,7.28c6.49-1,12.08,6.92,4.91,7.42-30.47-3.2-64.63-3.7-95.16-1.56l7.79-2.33c-2.44-.54-5.69-4.42-6.63-4.96-1.16-.67-3.55,3.86-2.74-3.62-4.24.76-4.34,10.32-7.76,7.77-.14-.11.39-3.05-.93-3.25-1.76-.27-4.91,2.17-5.31,1.72-.34-.38.83-3.43-.95-4.86-2.48-2-8.96.33-12.07-.3-1.16-.24-9.01-5.24-9.61-5.33-5.68-.87-16.6,8.5-17.94,7.35-.44-.38,5.31-7.12-5.51-5.4-1.37.22-3.24,2.87-3.83,2.3-.24-.23-.16-6.19-2.36-6.21-5.38-.04,1.16,8.96.78,9.31-.3.27-3.46-.09-4.82.8-1.67,1.09.28,3.73.14,3.89-4.04,4.42-2.15-8.12-3.14-9.34-3.93-4.87-.59,5.32-3.86,3.1-1.61-1.09-5.55-6.17-6.26-6.19-4.75-.18-1.18,3,.77,4.63-7.21,5.68-9.06,2.14-14.18,2.32-3.32.11-7.81,4.01-10,.83-.42-.61.93-3.02.8-3.11-2.07-1.25-8.3,2.37-9.37,1.53-.24-.19,1.85-2.89,1.59-3.09-1.37-1.1-8.99,7.71-9.4,0-2,1.53-4.15,7.24-4.65-.02,10.98-3.33,24-10.9,34.32-14.04-.22-4.65,6.23-5.79,7.8-1.56Z"/>
  <path class="al" d="M920.53,669.71l2.52,3.18c-7.7,7.09-9.02,14.62-3.95,22.6,13.43-8.84,13.21,12.29.82,16.35l-4.07,6.23c-8.5,12.98-33.16,34.04-45.24,46.8l-3.17,1.58c-7.36-2.42-15.37-1.21-24.04,3.63-5.44,1.83-14.15,1.54-10.23-5.21,28.01-35.05,52.36-66.42,87.36-95.16Z"/>
  <path class="p" d="M948.61,649.43c5.52,1.9,10.71,2.66,16.81,1.56,5.36,1.38,6.06,5.78,2.1,13.21l3.02,1.03c4.16-5.22,12.5.84,9.26,6.04-22.39,13.42-43.8,30.25-63.96,46.8.6-.92-.13-4.95,2.37-7.76,4.01-4.51,7.86.12,7.64-10.76s-5.5,2.53-8.44-.2c-.47-.43-4.59-11.2-4.68-11.83-1.56-11.42,6.96-9.2,7.78-17.81,9.3-7.63,17.92-13.83,28.08-20.28Z"/>
  <path class="ac" d="M1011.01,618.23c6.88,8.83,8.96,19.75,6.24,32.76-12.37,5.82-25.69,13.24-37.44,20.28-9.38-10.87-4.27-3.78-8.6-1.57-2.99,1.53-2.02-3.04-3.01-2.98-1.06.07-3.37,2.07-3.98,1.42-1.92-2.03,4.08-13.13,3.1-14.03-.77-.71-18.99,3.54-18.71-4.69,21.69-13.77,38.7-21.74,62.4-31.2Z"/>
  <path class="as" d="M1160.76,580.79c3.77,4.18-2.86,3.84-2.99,5.37-.17,2.01,2.28,5.71,4.55,6.32-6.73,2.02-3.32,11.99-9.34,3.92-.01,7.1-.28,9.13-7.81,10.93l9.36,4.66c-13.83,2.58-28.44,4.83-42.12,7.8-13.06,3.18-20.19-.18-7.76-11.41-8.78-4.87-.54-17.43,7.76-18.22,16.15-3.41,32.2-6.01,48.36-9.36Z"/>
  <path class="y" d="M1329.24,502.79c5.08-3.03,6.45.16,4.11,9.55,4.64-.28,7.69,2,6.21,6.51,3.6-.5,5.88.39,6.84,2.66.39,1.16.84,2.93.09,3.42-4.73,3.04-15.95,8.18-21.38,10.26-5.89,2.26-10.72,3.4-17.71,5.04-2.44.62-5.12.74-7.8,1.56-8.2.16-15.13,4.15-23.4,1.55-1.18-4.94,2.78-2.18,4.25-3.41,1.66-1.4,1.71-5.34,1.99-7.5,6.71-.41,21.9-11.25,28.08-15.6,5.5-3.87,13.73-9.82,18.72-14.04Z"/>
  <path class="ab" d="M870.61,764.87c-5.8,6.12-11.38,12.54-17.16,18.72-8.83,7.67-26.36,10.38-37.96,10.59l-2.6-2.79c6.9-8.69,13.31-17.8,20.28-26.52,1.18,3.5,3.58,3.33,6.61,2.84,9.62-1.54,20.22-11.14,30.83-2.84Z"/>
  <path class="bd" d="M1062.49,601.07c.93,5.97,2.16,11.69,4.99,17.37,2.24,7.15-2.77,11.58-8.11,15.39-5.96,1.97-14.22,5.38-20.28,7.8-5.29,1.75-5.77-2.82-5.78-7.37l1.03-12.02c-4.74-6.22-6.59-9.26,1.63-13.37,9.22-3.03,17.22-5.24,26.52-7.8Z"/>
  <path class="ao" d="M1035.97,608.87c-6.25,7.73.03,7.84,1.26,12.04,1.49,5.08-3.78,16.66,1.86,20.72-6.59,2.63-15.48,6.37-21.84,9.36-5.04.81-2.84-2.32-2.83-5.26.01-5.54.65-11.81-.36-17.28-.73-3.92-5.76-6.12-3.04-10.22,8.95-3.57,15.65-6.3,24.96-9.36Z"/>
  <path class="ay" d="M1087.45,594.83c-.02,2.93-1.29,4.41-3.96,5.19,4.62,5.86,8.15,13.23,7.26,20.87l2.94,3.58c-10.52,2.58-24.19,6.01-34.32,9.36.28-4.08,5.5-7.96,5.6-11.69.15-5.69-8.98-15.6-2.48-21.07,8.24-2.27,16.22-5.94,24.96-6.24Z"/>
  <path class="an" d="M1112.4,590.15c-5.56,2.55-6.98,2.12-1.57,6.22-5.54-1.28-6.21,4.2-7.81,8.58l7.8-.74c.62,2.83-2.61.98-3.09,1.54-2.82,3.31,7.15,4.38,4.65,7.79-.68.93-12.18-6-10.36,5.52,4.58,6.14.26-3.34,4.88-2.35.5.11,3.95,2.76,5.5,3.06-5.96,1.3-12.65,3.19-18.72,4.68-14.72.09.98-5.61-9.35-10.9,6.9.64-3.73-13.05-7.8-14.85,4.09-.13,7.5-2.74,10.91-3.89,9.43-3.18,16.3-2.85,24.96-4.68Z"/>
  <path class="bc" d="M853.45,783.59c-4.18,4.47-6.95,11.65-12.93,14.4-2.43,1.12-12.14,1.84-15.53,2.88-4.42,1.35-8.96,4.18-16.04,4.65-2.16.14-3.36,1.95-5.42-1.65,3.19-4.02,6.09-8.37,9.36-12.48l25.33-3.52,15.22-4.28Z"/>
  <path class="af" d="M1736.37,470.04c1.02,2.45-3.24,6.49-3.81,9.16-.45,2.11,1.45,7.27.71,7.99-2.97,2.91-14.01-.63-13.59-6.75.18-2.63,2.58-5.3,2.52-8.1-.03-1.41-6.56-14.82-.63-14.74,2.88.04,1.47,8.27,3.88,10.11,3.17,2.42,10.71,1.82,10.93,2.33Z"/>
  <path class="ae" d="M1435.32,431.04c3.92,2.33,6.79,6.19,8.61,11.59,5.09.37,6.89,2.9,6,7.7,3.33-.58,6.25.05,8.22,2.87,4.07,5.31,8.76,11.25,14.63,14.48.37,3.3,2.19,6.74,5.47,10.33l23.89-1.11c3.68.91,4.58,2.9,1.83,5.61-8.72,3.04-18.31,4.31-28.78,3.82-10.28,2.34-19.93,2.62-28.94.86-8.33,6.37-23.98,9.47-34.32,7.8-10.54.46-15.38-2.3-14.5-8.28l-4.35-8.09c-.5-7.47-1.85-8.15-4.06-2.04-9.05.35-14.95-12.45-9.84-19.02,19.17-13.6,33.67-20.4,56.16-26.52Z"/>
  <path class="az" d="M1502.39,421.68c.26,2.39-1.32,4.7-4.75,6.92,9.21,3.63,14.33,13.12,14.58,23.35,8.81,8.39,11.56,12.67,9.64,25.82,5.76,1.62,7.07,3.72,3.93,6.31-.99,4.31-7,4.59-7.8,0-2.29,4.52-12.36,2.96-14.04-1.56-1.3-4.28-3.53-2.09-5.97-2.14-4.31-.08-19.05,1.14-20.99.64s-2.57-5.74-5-5.97c-1.04-.1-6.96,4.52-8.59,2.78-.21-.23-.23-5.74,0-6.23.18-.37,11.05,1.35,6.21-3.11-.66-.61-4.26,1.96-4.65,1.57-.29-.29-.52-5.09-2.4-7.86-2.28-3.35-4.94-1.56-5.16-1.83-.97-1.16-.33-5.2-3.37-6.83-3.12-1.68-7.33,3.11-7.79,2.46-.93-1.3,4.47-18.09-4.68-6.25,1.29-8.2-5.54-11.2-6.26-18.71,23.57-6.41,42.53-9.15,67.08-9.36Z"/>
  <path class="aq" d="M1546.07,423.24c2.47.29,8.31,2.69,10.92,3.12-9.63,3.39-9.14,16.85-4.49,23.99,2.52,3.87,8.41,2.67,4.45,9.22-.84,1.38-5.66,1.05-.61,7.21s7.94,1.08,8.43,1.7c4.1,5.21-5.53,12.3-4.38,14.78.82,1.76,6.54,2.64,4.39,8.62-4.93,3.8-18.61.53-21.84-4.68-3.21,4.13-15.62,1.88-17.16-3.12-.73-4.45-5.8-1.1-6.22-1.54-2.04-2.12.61-16.42-1.56-20.81-.29-.58-5.77-2.27-8.71-8.84-1.29-2.88,4.17-5.63-3.78-4.7-.74-2.8,3.5-.65,3.1-2.31-.15-.65-5.77-11.25-6.26-11.7-2.9-2.71-4.96,6.23-6.2,4.67-.88-1.11,1.66-4.2,1.61-5.35-.04-.87-9.63-5.78,4.61-11.81,13.62-.12,30.26-.04,43.68,1.56Z"/>
  <path class="v" d="M1379.16,457.55c.77,6.04,7.68,10.37-1.55,8.57,5.79,1.84,5.2,3.94,7.4,6.52,6.63,7.77-.82-7.79,5.05-8.85-1.13,4.76,3.49,5.38,4.66,7.45s.74,6.78,1.97,7.89c.36.32,10.67,1.38,1.19,3.4-.68,2.66,3.04.61,3.26,2.54.18,1.64-1.94,3.68-.96,5.26,2.2,3.54,8.63-3.04,11.74,4.67l-2.49,4.16-45.59,20c-6.77,3.98-12.58,4.77-17.44,2.36-14.55,3.21-8.61-5.24-9.37-6.24s-6.51,3.27-7.77,4.67c.01-4.14,1.39-9.11,1.75-13,.21-2.26,3.25-1.56-1.77-4.15,6.83-5.76,14.64-15.7,21.84-21.84,9.21-7.85,18.19-16.38,28.08-23.4Z"/>
  <path class="bh" d="M1503.95,482.51c5.21.19,9.24,1.16,14.04,1.56,4.17,4.48,2,13.53-.74,18.86,2.34,2.06,1.66,5.21-.56,7.26l3.02,2.49c9.22-.9,15.15,6.64,4.49,9.2-1.04,3.32-.38,6.89,1.99,10.7,4.6,9.85,5.63,18.81,3.08,26.89,8,5.53,9.63,11.39,1.2,16.63-8-1.61-20.05-3.65-28.08-4.68.64-1.31.91-2.76.24-3.18-4.51-2.8-13.51-6.13-18.54-6.81-4.52-5.59-10.61-9.1-18.25-10.5-1.26-7.68-2.33-8.7-8.92-13.89-1.75-8.69-5.57-9.97-13.28-11.44l-1.68-2.56c-5,.34-7.29-3.46-6.85-11.4-7.36-1.09-4.88-16.18,1.03-16.75,4.78,3.11,9.4-2.89,10.08-7.72,19.97-3.59,37.25-5.43,57.72-4.68Z"/>
  <path class="ap" d="M1446.24,487.19c6.91,3.25-.18,6.29-2.23,9.52-.92,1.45-.76,4.36-.91,4.53-.33.36-6.72-4.49-9.33-3.11-.75,2.79,3.55.66,3.1,2.31-.14.5-2.24,1.77-2.75,3.5-2.59,8.85,3.7,2.69,4.3,3.53.45.64-.64,3.83,0,5.16.83,1.71,3.01.98,3.11,1.11.63.81-4.78,4.45-3.09,6.2.53.55,3.38-1.64,4.74-.82s1.7,4.55,3.72,5c1.23.28,6.09-2.02,7.11-1.05.5.48-.44,4.12.03,4.68.44.52,4.12-2.27,4.65-1.57.42.55-.48,5.84.3,8.34.64,2.05,8.48,6.59,8.92,8.25.51,1.9-1.62,5.01-1.43,5.23.43.49,9.88,2.81,12.29,4.14,4.04,2.22,6.12,6.51,6.55,6.69,2.78,1.14,5.2-3.72,6.11-3.01.33.26,1.32,6.08,1.59,6.25.38.24,3.3-2.15,4.42-1.43.53.34.62,3.04,1.81,3.73,2.1,1.22,5.68.51,6.13.93.26.24,1.85,7.68-3.02,6.13-4.02-.52-8.52-1.14-12.48-1.56,2.28.35-1.36-4.59-1.6-4.66-1.51-.45-5.54,7.81-6.22-3.13l-4.65,4.67c4.73-11.6-3.76-2.4-7.82-4.69-.14-.08,1.2-2.35.79-3.11-.78-1.43-9.88-1.21-12.25-1.74-.58-.13-7.14-3.72-9.86-3.98-3.32-.32-7.64,2.05-11.43,1.03l6.22-3.08c-4.02-2.51-8.33,1.73-10.94.98-4.33-1.24-4.38-5.48-4.69-5.68-.58-.39-2.54,2.3-4.77,2.41-2.8.13-14.03-2.25-15.2-2.83-.76-.37.46-2.7-1.05-2.72s-.34,2.56-.98,2.78c-.82.28-2.35-.91-3.37-.61-10.02,2.95-3.81.02-6.53-.3-1.48-.18-4.7,1.38-6.75.76-.27-.08-.12-4.76-3.37-2.51-.21.15-.03,5.97-3.16,3.02-.47-.44-1.27-6.95-3.93-7.79-.91-.28-2.16,5.74-4.83,6.18-2.11.35-3.89-3.43-7.34-4.27-3.05-.74-6.91,3.04-7.27,2.71s.49-3.22-.8-3.09c-.9.1-3.59,3.44-6.25,3.22-.77-.06-.69-3.32-1.59-3.28-2.21.1-3.5,2.61-4.64,2.64-1.21.03-3.21-3.05-6.24-2.66-1.19.15-.22,3.62-1.57,3.2-1.06-.33-2.47-3.53-3.87-3.1-.7.21-5.5,10.54-9.42-1.57l-3.08,4.66c-2.27-11.3-2.95-3.76-3.4-3.62-1.9.58-9.73.28-10.66.51l39-18.72c20.03-4.43,45.04-19.84,65.52-26.52,11.19-3.65,22.74-5.72,34.32-7.8Z"/>
  <path class="bj" d="M1564.79,491.87c3.15.69,6.71.92,9.36,1.56-20.99,12.73-3.29,20.32-3.08,29,.06,2.48-4.77,13.28-4.67,15.44.11,2.43,3.03,3.99,3.06,6.25s-3.33,4.11-3.1,9.14c.42,9.31,7.93,27.44,10.9,36.88-10.7-3.72-21.75-8.26-32.76-10.92.11-1.81.65-3.22,2.43-3.35-4.5-10.79-7.65-22.03-.65-32.73-4.81-3.31-6.17-9.04-4.1-17.17-6.08-2.63-10.4-8.23-3.2-12.29-4.6-7.67-6.9-23.91,3.95-26.51,8.17,1.33,14.05,2.96,21.84,4.68Z"/>
  <path class="bb" d="M1525.79,484.07c5.03.56,11.5,2.2,17.16,3.12-3.88,6.14-5.68,12.09-4.33,19.5.17.92,2.2.74,2.58,2.03,3.24,10.79-3.62,5.89-2.92,10.43.3,1.95,6.32,4.03,7.09,5.49.99,1.85-1.56,10.83-.73,12.99.64,1.67,5.48,3.3,6.11,6.52.17.89-3.2.45-4.06,3.74-.17.65-1.65,12.68-1.62,13.36.27,5.08,11.34,18.2-.56,17.98-4.45-1.08-9.58-2.22-14.04-3.12-.77-5.43,3.19-6.55,3.13-6.99-.56-4.05-7.87-7.4-7.94-7.95-.35-3.07,3.07-5.05,2.95-7.41-.15-2.9-5.79-23.28-7.38-25.03-1.14-1.25-8.41-1.13-4.05-3.83.2-.12,1.67,1.31,3.09-.16.82-.85.66-3.72,1.63-4.79,2.03-2.26,5.66-.25,5.44-3.09-3.39-1.5-7.91.12-10.79-2.37-7.43-6.44.03-7.27-.12-7.78-.34-1.16-4.47-3.69-4.67-4.7-.22-1.15,2.79-.71,3.96-3.02,2.81-5.53-.36-9.9,2.28-14.91,2.56.21,5.26-.28,7.8,0Z"/>
</svg>