<svg width="137" height="23" viewBox="0 0 137 23" fill="none" xmlns="http://www.w3.org/2000/svg">
<path d="M42.8471 11.7427C42.9255 11.742 42.9998 11.7091 43.0514 11.6523C43.1031 11.5954 43.1272 11.5201 43.1178 11.445C43.0492 10.698 42.7316 9.99256 42.2124 9.43435C41.6385 8.82366 40.8191 8.51832 39.7545 8.51832C39.2817 8.51375 38.813 8.60313 38.3776 8.78092C37.966 8.95288 37.5905 9.19607 37.2697 9.49847C36.9533 9.79597 36.6945 10.1454 36.5052 10.5305C36.3648 10.8167 36.2668 11.1204 36.214 11.4328C36.2021 11.5088 36.2249 11.586 36.2765 11.6446C36.3281 11.7031 36.4034 11.7373 36.4831 11.7382L42.8471 11.7427ZM44.6482 12.2008V12.5168C44.6481 12.6362 44.6413 12.7554 44.6277 12.874H36.4403C36.3626 12.874 36.2885 12.906 36.2368 12.962C36.1851 13.018 36.1606 13.0927 36.1697 13.1672C36.2075 13.5449 36.3041 13.9149 36.4562 14.2649C36.6396 14.6906 36.9085 15.0772 37.2475 15.4023C37.5868 15.7266 37.987 15.9856 38.4266 16.1656C39.5526 16.6174 40.8326 16.5367 41.888 15.9473C42.321 15.6909 42.7023 15.3609 43.0133 14.9733C43.0571 14.9183 43.1219 14.8824 43.1933 14.8738C43.2647 14.8652 43.3366 14.8846 43.3931 14.9275L44.061 15.4328C44.1192 15.4766 44.1565 15.5414 44.1642 15.6122C44.172 15.683 44.1496 15.7538 44.1022 15.8084C43.6019 16.3977 42.9728 16.8732 42.2599 17.2008C41.5144 17.5266 40.7043 17.6922 39.8859 17.6863C39.1617 17.6935 38.4434 17.5611 37.773 17.2969C37.1447 17.0493 36.5758 16.6798 36.1016 16.2115C35.6262 15.7372 35.25 15.1789 34.9937 14.5672C34.7214 13.9096 34.5869 13.2065 34.5981 12.4985C34.5905 11.7919 34.7243 11.0905 34.9921 10.4328C35.2401 9.82058 35.6113 9.26175 36.0842 8.78855C37.0461 7.83203 38.3731 7.29878 39.7545 7.31374C40.4813 7.29983 41.2031 7.43243 41.8737 7.70305C42.4566 7.94381 42.9786 8.30315 43.4042 8.75649C43.8168 9.20859 44.1321 9.73535 44.3317 10.3061C44.5467 10.9171 44.6537 11.5586 44.6482 12.2038V12.2008ZM54.6573 12.4985C54.0463 12.4985 53.4312 12.5229 52.8118 12.5718C52.2418 12.613 51.6778 12.7123 51.1294 12.8679C50.6734 12.9909 50.2517 13.2105 49.8949 13.5107C49.5745 13.7975 49.4009 14.2055 49.4201 14.6267C49.4091 14.9343 49.4811 15.2395 49.629 15.5122C49.7621 15.7466 49.9529 15.9458 50.1845 16.0924C50.4225 16.2407 50.6855 16.3476 50.9616 16.4084C51.2446 16.4712 51.5339 16.5029 51.8242 16.5031C52.3047 16.5112 52.7815 16.4212 53.2233 16.2389C53.6147 16.0744 53.9646 15.8301 54.2489 15.5229C54.5272 15.2176 54.7421 14.8636 54.882 14.4802C55.0287 14.0807 55.1026 13.6597 55.1004 13.2359V12.7611C55.1004 12.616 54.9785 12.4985 54.8282 12.4985H54.6573ZM55.0957 11.0466C55.0957 10.1967 54.8625 9.56209 54.3961 9.14275C53.9297 8.72341 53.2523 8.51425 52.3639 8.51527C51.7794 8.5111 51.1998 8.61959 50.6593 8.83435C50.2459 8.99644 49.8622 9.22172 49.523 9.50153C49.4083 9.59293 49.2386 9.57793 49.1431 9.46794L48.6683 8.91985C48.5727 8.81341 48.5825 8.65285 48.6905 8.55801C49.1326 8.19967 49.6339 7.91532 50.1735 7.71679C50.9227 7.43985 51.72 7.30407 52.5222 7.31679C53.048 7.31267 53.5712 7.38735 54.0732 7.53817C54.5365 7.67698 54.9668 7.90267 55.3394 8.20229C55.7093 8.506 56.0008 8.88862 56.1909 9.31985C56.4052 9.82045 56.5092 10.3586 56.4964 10.9V15.2206C56.4964 15.5992 56.5111 15.9926 56.5407 16.4008C56.5597 16.6725 56.5866 16.9168 56.6182 17.1336C56.6318 17.2098 56.6097 17.288 56.5577 17.347C56.5058 17.4059 56.4294 17.4396 56.3492 17.4389H55.5705C55.4366 17.4404 55.3219 17.3467 55.3014 17.2191C55.2745 17.0435 55.2492 16.8573 55.2286 16.6603C55.2001 16.3794 55.1859 16.1046 55.1859 15.8374H55.1416C54.7483 16.4341 54.2035 16.9239 53.5589 17.2603C52.8929 17.5641 52.1617 17.7111 51.4254 17.6893C51.0156 17.6889 50.6076 17.6376 50.2114 17.5366C49.8026 17.4338 49.4172 17.2583 49.0751 17.0191C48.7255 16.7709 48.4351 16.4534 48.2236 16.0878C47.9854 15.6595 47.8686 15.1781 47.8849 14.6924C47.8849 13.931 48.0853 13.3285 48.4863 12.8847C48.9185 12.4191 49.4729 12.0747 50.0912 11.8878C50.8385 11.6546 51.6132 11.5125 52.3972 11.4649C53.2634 11.4008 54.1629 11.3687 55.0957 11.3687V11.0466ZM61.4961 12.3718C61.4929 12.8743 61.5813 13.3735 61.7573 13.8466C61.9249 14.2968 62.1813 14.7116 62.5122 15.0679C62.8499 15.4262 63.2633 15.7105 63.7246 15.9015C64.2427 16.1119 64.8006 16.2159 65.3627 16.2069C65.9004 16.2122 66.4343 16.119 66.9359 15.9321C67.4026 15.758 67.8267 15.4923 68.1815 15.1519C68.5372 14.8063 68.8162 14.3944 69.0013 13.9412C69.2032 13.4407 69.3032 12.9073 69.2957 12.3702C69.3076 10.8439 68.3811 9.45577 66.9359 8.83435C66.4412 8.62085 65.9046 8.51304 65.3627 8.51832C64.801 8.50962 64.244 8.6174 63.7293 8.83435C63.2688 9.03083 62.8559 9.31786 62.517 9.6771C62.186 10.0335 61.9297 10.4482 61.762 10.8985C61.5862 11.3716 61.4978 11.8707 61.5009 12.3733L61.4961 12.3718ZM61.0071 19.6267C61.0582 19.5743 61.1295 19.5446 61.2041 19.5446C61.2787 19.5446 61.35 19.5743 61.4012 19.6267C61.8253 20.0676 62.3295 20.4298 62.8889 20.6954C64.1641 21.3111 65.6464 21.3912 66.9849 20.9168C67.4587 20.7371 67.8817 20.452 68.2195 20.0847C68.5372 19.7254 68.7719 19.3048 68.9079 18.8511C69.0564 18.3618 69.1299 17.8541 69.1263 17.3443V15.4939H69.082C68.6804 16.119 68.0977 16.6168 67.4059 16.926C66.7239 17.2541 65.9729 17.427 65.2107 17.4313C64.4673 17.4414 63.7289 17.3128 63.0361 17.0527C62.4153 16.817 61.8504 16.4623 61.3758 16.0099C60.9088 15.5566 60.5439 15.015 60.3043 14.4191C59.7958 13.1367 59.7958 11.7183 60.3043 10.4359C60.5493 9.83313 60.9132 9.28197 61.3758 8.81298C61.8455 8.34165 62.4106 7.96853 63.0361 7.71679C63.7252 7.44216 64.4652 7.30605 65.2107 7.31679C65.9694 7.32106 66.7168 7.49398 67.3949 7.82214C68.0885 8.14178 68.6724 8.64676 69.0773 9.2771H69.1216V7.8313C69.1216 7.68627 69.2435 7.5687 69.3938 7.5687H70.3434C70.4938 7.5687 70.6157 7.68627 70.6157 7.8313V17.3489C70.6071 17.9275 70.5269 18.5031 70.3767 19.0634C70.2208 19.6716 69.9297 20.24 69.5236 20.729C69.0646 21.2676 68.4858 21.6997 67.8301 21.9931C67.1168 22.331 66.192 22.5 65.0556 22.5C64.1247 22.4999 63.2034 22.3176 62.3476 21.9641C61.5991 21.6637 60.9144 21.2325 60.3281 20.6924C60.2241 20.5902 60.2241 20.4266 60.3281 20.3244L61.0071 19.6267ZM75.6882 17.4313H74.7481C74.5978 17.4313 74.4759 17.3137 74.4759 17.1687V1.7626C74.4759 1.61757 74.5978 1.5 74.7481 1.5H75.6882C75.8386 1.5 75.9605 1.61757 75.9605 1.7626V17.1702C75.9605 17.2407 75.9311 17.3082 75.8791 17.3575C75.827 17.4069 75.7565 17.4341 75.6835 17.4328L75.6882 17.4313ZM87.7864 11.7427C87.8647 11.7421 87.9389 11.7091 87.9903 11.6522C88.0417 11.5953 88.0655 11.5199 88.0555 11.445C87.9868 10.6984 87.6698 9.99312 87.1518 9.43435C86.5757 8.82366 85.7564 8.51832 84.6938 8.51832C84.221 8.51375 83.7523 8.60313 83.3169 8.78092C82.4905 9.12368 81.8224 9.7459 81.4382 10.5305C81.2971 10.8164 81.199 11.1202 81.147 11.4328C81.1351 11.5088 81.1579 11.586 81.2095 11.6446C81.261 11.7031 81.3364 11.7373 81.416 11.7382L87.7864 11.7427ZM89.5876 12.2008V12.5168C89.5869 12.6362 89.5795 12.7554 89.5654 12.874H81.3781C81.3003 12.8749 81.2266 12.9074 81.175 12.9635C81.1235 13.0196 81.0989 13.0942 81.1074 13.1687C81.1452 13.5464 81.2418 13.9165 81.3939 14.2664C81.5779 14.6919 81.8468 15.0783 82.1852 15.4038C82.5248 15.7278 82.9249 15.9868 83.3644 16.1672C84.4935 16.6153 85.7748 16.5295 86.8289 15.9351C87.2615 15.6787 87.6422 15.3486 87.9526 14.9611C87.9967 14.9059 88.0618 14.8701 88.1334 14.8615C88.2051 14.8529 88.2773 14.8723 88.3341 14.9153L89.0004 15.4206C89.0584 15.4645 89.0957 15.529 89.1037 15.5997C89.1117 15.6704 89.0899 15.7412 89.0431 15.7962C88.5419 16.3852 87.9124 16.8606 87.1992 17.1885C86.4537 17.5145 85.6437 17.6801 84.8252 17.674C84.1027 17.6805 83.386 17.5482 82.717 17.2847C82.0892 17.0363 81.5205 16.667 81.0457 16.1992C80.5702 15.7249 80.1941 15.1667 79.9378 14.555C79.6634 13.8988 79.5257 13.1969 79.5326 12.4893C79.5251 11.7827 79.6589 11.0814 79.9267 10.4237C80.1759 9.81201 80.5469 9.25339 81.0188 8.77939C81.9816 7.82324 83.3089 7.2901 84.6907 7.30458C85.4175 7.29067 86.1393 7.42327 86.8099 7.69389C87.3921 7.93505 87.9135 8.29434 88.3388 8.74733C88.7519 9.19937 89.0677 9.72612 89.2679 10.2969C89.482 10.9081 89.589 11.5495 89.5844 12.1947L89.5876 12.2008ZM97.1339 17.4206H95.8677C95.7571 17.4209 95.6575 17.3562 95.6161 17.2573L91.6593 7.91832C91.6251 7.83741 91.6348 7.74536 91.6853 7.67279C91.7358 7.60021 91.8204 7.55661 91.911 7.55649H92.9793C93.0921 7.55657 93.193 7.62409 93.2325 7.72595L96.4913 15.9153H96.5356L99.8118 7.73664C99.8519 7.63538 99.9527 7.56854 100.065 7.5687H101.07C101.161 7.56883 101.245 7.61242 101.296 7.685C101.346 7.75758 101.356 7.84962 101.322 7.93053L97.3903 17.2695C97.3489 17.3684 97.2492 17.4331 97.1386 17.4328L97.1339 17.4206ZM105.171 17.4206H104.229C104.079 17.4206 103.957 17.303 103.957 17.158V7.8313C103.957 7.68627 104.079 7.5687 104.229 7.5687H105.171C105.321 7.5687 105.443 7.68627 105.443 7.8313V17.1702C105.443 17.3135 105.324 17.4303 105.176 17.4328L105.171 17.4206ZM116.856 11.7305C116.935 11.7303 117.009 11.6975 117.061 11.6406C117.113 11.5836 117.137 11.508 117.127 11.4328C117.058 10.6858 116.74 9.98034 116.221 9.42214C115.646 8.81145 114.827 8.50611 113.763 8.50611C113.291 8.50135 112.823 8.59075 112.388 8.7687C111.976 8.9403 111.601 9.18354 111.28 9.48626C110.963 9.78328 110.703 10.1328 110.514 10.5183C110.374 10.8044 110.276 11.1082 110.223 11.4206C110.211 11.4966 110.234 11.5738 110.285 11.6324C110.337 11.6909 110.412 11.7251 110.492 11.726L116.856 11.7305ZM118.659 12.1885V12.5046C118.658 12.624 118.651 12.7432 118.637 12.8618H110.449C110.371 12.8627 110.298 12.8952 110.246 12.9513C110.195 13.0074 110.17 13.082 110.179 13.1565C110.216 13.5342 110.313 13.9042 110.465 14.2542C110.648 14.68 110.917 15.0665 111.256 15.3916C111.596 15.7159 111.996 15.9749 112.435 16.155C113.564 16.6031 114.845 16.5173 115.898 15.9229C116.332 15.6669 116.713 15.3368 117.024 14.9489C117.068 14.8938 117.132 14.858 117.204 14.8494C117.275 14.8408 117.347 14.8601 117.404 14.9031L118.072 15.4084C118.13 15.4522 118.167 15.517 118.175 15.5878C118.182 15.6586 118.16 15.7294 118.113 15.784C117.616 16.3816 116.989 16.8656 116.275 17.2008C115.53 17.5267 114.72 17.6924 113.901 17.6863C113.179 17.6927 112.462 17.5604 111.793 17.2969C111.165 17.0493 110.596 16.6798 110.122 16.2115C109.646 15.7372 109.27 15.1789 109.014 14.5672C108.739 13.9112 108.601 13.2091 108.609 12.5015C108.601 11.7949 108.735 11.0936 109.003 10.4359C109.251 9.82364 109.622 9.26481 110.095 8.7916C111.057 7.83508 112.384 7.30184 113.765 7.31679C114.492 7.30289 115.214 7.43548 115.884 7.70611C116.467 7.94686 116.989 8.3062 117.415 8.75954C117.827 9.21165 118.143 9.73841 118.342 10.3092C118.557 10.9202 118.664 11.5617 118.659 12.2069V12.1885ZM136.059 7.91832L132.998 17.2573C132.963 17.3667 132.857 17.441 132.738 17.4405H131.518C131.401 17.4407 131.297 17.368 131.26 17.2603L128.582 9.44504H128.538L125.912 17.2511C125.876 17.3597 125.771 17.4331 125.653 17.4328H124.434C124.315 17.4333 124.21 17.359 124.174 17.2496L121.112 7.91832C121.086 7.83849 121.1 7.75138 121.152 7.68381C121.203 7.61623 121.285 7.57631 121.371 7.57634H122.392C122.513 7.57675 122.619 7.65296 122.653 7.76412L125.064 15.5855H125.108L127.799 7.75649C127.836 7.64912 127.94 7.57654 128.057 7.57634H129.106C129.223 7.57701 129.327 7.64941 129.364 7.75649L132.102 15.5779H132.146L134.536 7.75802C134.571 7.64625 134.677 7.56932 134.798 7.5687H135.796C135.886 7.56683 135.97 7.60735 136.023 7.67712C136.075 7.74688 136.089 7.83703 136.059 7.91832Z" fill="#00729E"/>
<path d="M65.1045 22.5C64.1605 22.5021 63.2259 22.3216 62.3566 21.9694C61.5955 21.6669 60.8995 21.2323 60.3035 20.6876C60.1564 20.5447 60.1564 20.3152 60.3035 20.1722L60.981 19.4829C61.0553 19.4069 61.1597 19.3646 61.2684 19.3665C61.3721 19.3668 61.4708 19.4091 61.5401 19.4829C61.9539 19.9106 62.4458 20.2625 62.9914 20.5214C63.6653 20.8575 64.4141 21.0328 65.174 21.0323C65.7925 21.0447 66.4078 20.942 66.9854 20.73C67.4413 20.5575 67.8486 20.2852 68.1746 19.9349C68.4798 19.5903 68.7058 19.1881 68.8379 18.7544C68.9827 18.2796 69.0545 17.7872 69.0511 17.2927V15.7509C68.6497 16.2758 68.117 16.6958 67.5018 16.9722C66.8047 17.3055 66.0369 17.4813 65.2577 17.4862C64.5018 17.4951 63.7511 17.3648 63.0467 17.1022C62.4132 16.8622 61.8369 16.5024 61.3521 16.0441C60.877 15.5839 60.5051 15.0356 60.2593 14.4328C59.9961 13.7885 59.8637 13.1021 59.8692 12.4104C59.8649 11.7256 59.9973 11.0463 60.2593 10.4091C60.5092 9.79974 60.8797 9.24234 61.3506 8.76754C61.83 8.29189 62.4062 7.91533 63.0435 7.66108C63.7444 7.38453 64.4965 7.24672 65.2545 7.25599C66.029 7.26098 66.792 7.4363 67.4845 7.7684C68.1036 8.05316 68.6392 8.48062 69.0432 9.01241V7.87421C69.0432 7.77653 69.0839 7.68288 69.1562 7.61395C69.2285 7.54502 69.3265 7.5065 69.4285 7.50691H70.3761C70.5881 7.50691 70.7599 7.67135 70.7599 7.87421V17.2972C70.7543 17.8759 70.6763 18.4519 70.5277 19.0128C70.3686 19.63 70.0711 20.2066 69.656 20.7027C69.1881 21.2489 68.5975 21.6871 67.9282 21.9845C67.197 22.3231 66.2495 22.5 65.1045 22.5ZM61.2526 19.5827C61.208 19.5832 61.1655 19.6006 61.1342 19.6311L60.463 20.3203C60.4028 20.3791 60.4028 20.4732 60.463 20.5319C61.0383 21.0576 61.7096 21.4777 62.4434 21.7714C63.2849 22.1117 64.1894 22.286 65.1029 22.2838C66.2084 22.2838 67.1275 22.1191 67.8224 21.7941C68.4607 21.509 69.0245 21.0912 69.4728 20.5712C69.8678 20.0997 70.1508 19.5514 70.3019 18.9645C70.4459 18.4208 70.5217 17.8626 70.5277 17.3018V7.87723C70.5277 7.79375 70.457 7.72608 70.3698 7.72608H69.4222C69.335 7.72608 69.2643 7.79375 69.2643 7.87723V9.30867C69.2643 9.36795 69.2141 9.41599 69.1522 9.41599H69.108C69.069 9.41653 69.0325 9.39764 69.0116 9.36611C68.6205 8.76052 68.0574 8.27399 67.3881 7.96339C66.7266 7.64603 65.9977 7.47847 65.2577 7.47365C64.529 7.46447 63.8059 7.59662 63.132 7.86212C62.5222 8.10474 61.9712 8.46491 61.5132 8.92021C61.0616 9.3744 60.7065 9.90831 60.4677 10.4922C60.2165 11.104 60.0894 11.7561 60.0935 12.4134C60.0862 13.0789 60.2116 13.7397 60.463 14.3603C60.6973 14.9358 61.052 15.4594 61.5053 15.899C61.9692 16.3359 62.5203 16.6788 63.1257 16.9072C63.8032 17.1605 64.5256 17.2857 65.2529 17.2761C65.9964 17.2706 66.7287 17.1031 67.3944 16.7863C68.0627 16.4867 68.6256 16.0078 69.0148 15.4078C69.0349 15.3751 69.0715 15.355 69.1111 15.3549H69.1553C69.2175 15.3557 69.2675 15.4042 69.2675 15.4637V17.3002C69.271 17.8153 69.196 18.3281 69.0448 18.8224C68.9048 19.2861 68.6631 19.7159 68.3357 20.083C67.9874 20.4601 67.5506 20.7528 67.0612 20.937C65.6951 21.4198 64.1811 21.3394 62.8793 20.7148C62.3092 20.4437 61.7954 20.0754 61.3632 19.628C61.3359 19.5988 61.2967 19.5823 61.2558 19.5827H61.2526ZM51.4959 17.7431C51.0771 17.7407 50.6604 17.6864 50.2561 17.5814C49.8346 17.4762 49.4372 17.2968 49.0843 17.0524C48.7233 16.7971 48.423 16.4715 48.2031 16.0971C47.9567 15.6561 47.8352 15.161 47.8509 14.6611C47.8509 13.8841 48.061 13.2568 48.4826 12.8004C48.9285 12.3265 49.4989 11.9758 50.1345 11.7846C50.8886 11.5515 51.67 11.4089 52.4608 11.3598C53.2931 11.3009 54.1633 11.2692 55.0492 11.2661V11.0636C55.0492 10.2564 54.8266 9.64877 54.3875 9.24972C53.9485 8.85067 53.2899 8.6572 52.4371 8.6572C51.8694 8.65172 51.3062 8.75449 50.7805 8.95951C50.3788 9.11641 50.0057 9.33323 49.675 9.60192C49.6 9.66399 49.5021 9.69451 49.4033 9.68656C49.2999 9.67862 49.204 9.6319 49.1364 9.55657L48.6627 9.01392C48.5281 8.86317 48.5435 8.63725 48.6974 8.50453C49.148 8.14207 49.6589 7.85442 50.2088 7.65353C50.9699 7.37414 51.7799 7.23664 52.5951 7.24843C53.1305 7.24517 53.6632 7.32115 54.1743 7.47365C54.6509 7.61534 55.0936 7.84544 55.4772 8.15083C55.8599 8.46212 56.1616 8.85439 56.3585 9.29658C56.5779 9.80626 56.6854 10.3537 56.6743 10.9049V15.1826C56.6743 15.5574 56.6885 15.9489 56.717 16.3434C56.7359 16.608 56.7628 16.8498 56.7943 17.0614C56.8109 17.1671 56.778 17.2744 56.7043 17.3547C56.6312 17.4352 56.5252 17.4815 56.4137 17.4816H55.6367C55.4501 17.4824 55.2898 17.355 55.2561 17.1793C55.2293 17.0025 55.204 16.815 55.1835 16.62C55.163 16.4251 55.1519 16.2497 55.1456 16.0683C54.7626 16.5814 54.2611 17.003 53.68 17.3002C53.0005 17.6095 52.2544 17.7612 51.5022 17.7431H51.4959ZM52.4324 8.4486C53.3436 8.4486 54.0527 8.66778 54.5376 9.09857C55.0224 9.52936 55.2703 10.1944 55.2703 11.0636V11.3659C55.2708 11.3946 55.2591 11.4223 55.2381 11.4428C55.217 11.4632 55.1882 11.4747 55.1582 11.4747C54.2391 11.4747 53.3357 11.5065 52.4734 11.5684C51.7009 11.6157 50.9375 11.7548 50.2009 11.9826C49.6035 12.161 49.0673 12.4899 48.6484 12.9349C48.2678 13.3521 48.0767 13.9295 48.0767 14.6535C48.0589 15.1152 48.1678 15.5733 48.3926 15.9822C48.5967 16.3299 48.8755 16.6324 49.2107 16.8695C49.5413 17.0984 49.9135 17.2665 50.3083 17.3652C50.6937 17.4638 51.0907 17.5146 51.4896 17.5164C52.2053 17.5354 52.9156 17.393 53.5631 17.1007C54.1893 16.7757 54.7187 16.3033 55.1014 15.7282C55.1225 15.699 55.1573 15.6815 55.1945 15.6814H55.2514C55.3136 15.6814 55.3642 15.7292 55.3651 15.7887C55.3651 16.0517 55.3793 16.3208 55.4077 16.5913C55.4267 16.7833 55.452 16.9677 55.4788 17.14C55.4913 17.2139 55.5585 17.268 55.6367 17.267H56.4137C56.4599 17.267 56.5038 17.2477 56.5338 17.2141C56.5637 17.1807 56.5769 17.1366 56.5701 17.0932C56.5369 16.877 56.5117 16.6306 56.4911 16.3601C56.4627 15.961 56.4485 15.565 56.4485 15.1841V10.9064C56.4604 10.3848 56.3593 9.86658 56.1516 9.38425C55.9684 8.9726 55.6878 8.60729 55.3319 8.3171C54.9711 8.02989 54.5547 7.81364 54.1064 7.68073C53.6166 7.53511 53.1063 7.46271 52.5935 7.46609C51.807 7.45457 51.0255 7.58694 50.2909 7.85607C49.7648 8.04826 49.2759 8.32311 48.8443 8.66929C48.7844 8.72505 48.7802 8.81581 48.8348 8.87637L49.3086 9.41902C49.3361 9.45086 49.3761 9.47052 49.4191 9.47343C49.4581 9.47648 49.4968 9.46451 49.5265 9.44018C49.8746 9.1557 50.2681 8.92655 50.692 8.76149C51.2468 8.54744 51.8406 8.44109 52.4387 8.4486H52.4324ZM113.843 17.7416C113.107 17.7479 112.377 17.6143 111.696 17.3486C111.055 17.0972 110.474 16.7233 109.989 16.2497C109.508 15.7688 109.127 15.2045 108.866 14.587C108.587 13.9244 108.447 13.2156 108.454 12.5011C108.447 11.7878 108.583 11.0798 108.854 10.4151C109.109 9.79669 109.487 9.23187 109.969 8.75242C110.949 7.78446 112.303 7.24454 113.711 7.25901C114.453 7.24567 115.188 7.38056 115.872 7.65504C116.468 7.89911 117.002 8.26425 117.437 8.72521C117.858 9.1835 118.18 9.71733 118.385 10.2957C118.6 10.9123 118.707 11.5591 118.7 12.2093V12.5222C118.7 12.6445 118.693 12.7666 118.678 12.888C118.673 12.9431 118.624 12.985 118.566 12.9848H110.397C110.352 12.9849 110.31 13.003 110.28 13.0346C110.249 13.0684 110.234 13.1126 110.239 13.1571C110.275 13.5212 110.369 13.8779 110.517 14.2152C110.693 14.623 110.951 14.9938 111.276 15.3065C111.605 15.62 111.993 15.8709 112.42 16.0457C113.511 16.4767 114.75 16.395 115.769 15.825C116.189 15.5772 116.559 15.2592 116.862 14.8863C116.922 14.8086 117.012 14.7578 117.112 14.7457C117.215 14.7337 117.319 14.7608 117.402 14.8213L118.067 15.3216C118.15 15.3843 118.203 15.4764 118.214 15.5771C118.224 15.6754 118.192 15.7735 118.126 15.8492C117.615 16.4439 116.974 16.9238 116.248 17.2549C115.492 17.5804 114.671 17.7464 113.843 17.7416ZM113.711 7.47516C112.364 7.46237 111.069 7.97859 110.13 8.90358C109.669 9.36327 109.307 9.90443 109.064 10.4968C108.803 11.1343 108.672 11.8136 108.678 12.498C108.671 13.184 108.806 13.8645 109.073 14.5009C109.323 15.0933 109.688 15.6346 110.15 16.0955C110.613 16.5481 111.168 16.9051 111.78 17.1446C112.432 17.3989 113.129 17.5273 113.833 17.5224C114.632 17.5278 115.423 17.3674 116.151 17.0524C116.848 16.734 117.462 16.2732 117.952 15.7025C117.978 15.6716 117.991 15.6319 117.987 15.5922C117.982 15.5503 117.96 15.5118 117.927 15.4849L117.26 14.9861C117.226 14.9602 117.183 14.9487 117.14 14.9543C117.101 14.9588 117.065 14.9784 117.041 15.0087C116.722 15.4031 116.332 15.739 115.889 16.0003C114.807 16.6092 113.489 16.6976 112.328 16.2391C111.876 16.0528 111.464 15.7867 111.115 15.4546C110.769 15.1214 110.494 14.7265 110.307 14.2923C110.15 13.9362 110.051 13.5596 110.013 13.1752C110.002 13.0701 110.037 12.9653 110.111 12.8865C110.183 12.8096 110.287 12.7657 110.395 12.7656H118.462C118.462 12.6779 118.473 12.5963 118.473 12.5192V12.2063C118.475 11.5796 118.368 10.9569 118.157 10.3637C117.962 9.8122 117.654 9.30312 117.252 8.86579C116.84 8.42806 116.333 8.08146 115.766 7.85003C115.115 7.59054 114.415 7.46291 113.71 7.47516H113.711ZM84.8312 17.7416C84.0957 17.7479 83.3662 17.6143 82.685 17.3486C82.0441 17.0975 81.4636 16.7235 80.9794 16.2497C80.4976 15.7689 80.116 15.2046 79.8549 14.587C79.5762 13.9242 79.4362 13.2155 79.4427 12.5011C79.4357 11.7876 79.5718 11.0794 79.8439 10.4151C80.0954 9.79711 80.4709 9.23223 80.9494 8.75242C81.9306 7.78408 83.2845 7.24412 84.6938 7.25901C85.4349 7.24581 86.1707 7.38069 86.8543 7.65504C87.4505 7.89953 87.9844 8.26461 88.4193 8.72521C88.8402 9.18383 89.1623 9.71756 89.3669 10.2957C89.5828 10.9123 89.6896 11.5591 89.6828 12.2093V12.5222C89.6827 12.6445 89.6753 12.7666 89.6606 12.888C89.6549 12.9431 89.6064 12.985 89.5485 12.9848H81.3789C81.3349 12.9853 81.2931 13.0034 81.2636 13.0346C81.231 13.0673 81.2154 13.1122 81.221 13.1571C81.258 13.5211 81.3517 13.8777 81.499 14.2152C81.6752 14.6234 81.9339 14.9942 82.2602 15.3065C82.5883 15.62 82.9758 15.8708 83.402 16.0457C84.4933 16.4767 85.7323 16.395 86.7516 15.825C87.1719 15.5775 87.5421 15.2595 87.8445 14.8863C87.9047 14.8087 87.9954 14.7579 88.0956 14.7457C88.1985 14.7339 88.3022 14.761 88.3846 14.8213L89.0495 15.3216C89.1324 15.3843 89.1854 15.4764 89.1963 15.5771C89.2071 15.6755 89.1751 15.7739 89.1079 15.8492C88.5976 16.4442 87.9565 16.9242 87.2301 17.2549C86.4756 17.5797 85.657 17.7457 84.8296 17.7416H84.8312ZM84.7017 7.47516C83.3538 7.46166 82.0591 7.97799 81.1199 8.90358C80.6587 9.36247 80.2965 9.90384 80.0539 10.4968C79.7923 11.134 79.661 11.8134 79.667 12.498C79.6602 13.184 79.7943 13.8645 80.0618 14.5009C80.3118 15.093 80.6774 15.6342 81.1389 16.0955C81.6022 16.5481 82.1574 16.9051 82.7703 17.1446C83.4218 17.3992 84.1196 17.5276 84.8233 17.5224C85.6225 17.528 86.4135 17.3676 87.1417 17.0524C87.8381 16.7344 88.4528 16.2735 88.9421 15.7025C88.9684 15.6716 88.9809 15.6319 88.9768 15.5922C88.9734 15.55 88.9516 15.511 88.9168 15.4849L88.2504 14.9861C88.2166 14.9602 88.1732 14.9487 88.1303 14.9543C88.0913 14.9589 88.0559 14.9785 88.0324 15.0087C87.7137 15.4031 87.3232 15.739 86.8795 16.0003C85.797 16.6092 84.479 16.6976 83.3183 16.2391C82.8664 16.0531 82.4554 15.787 82.107 15.4546C81.7602 15.1215 81.485 14.7266 81.2968 14.2923C81.1408 13.9362 81.0417 13.5596 81.0031 13.1752C80.9919 13.0701 81.0274 12.9653 81.101 12.8865C81.1736 12.8096 81.2769 12.7657 81.3852 12.7656H89.4522C89.4601 12.6779 89.4632 12.5963 89.4632 12.5192V12.2063C89.4655 11.5796 89.3588 10.9569 89.1474 10.3637C88.9562 9.81496 88.654 9.30753 88.2583 8.87032C87.8449 8.43282 87.3373 8.08627 86.7706 7.85456C86.1155 7.59163 85.4103 7.46241 84.7001 7.47516H84.7017ZM39.9877 17.7416C39.2517 17.7479 38.5216 17.6143 37.8399 17.3486C37.1992 17.0971 36.6188 16.7232 36.1343 16.2497C35.6531 15.7684 35.2715 15.2043 35.0098 14.587C34.7311 13.9242 34.5911 13.2155 34.5976 12.5011C34.5913 11.7877 34.7275 11.0797 34.9988 10.4151C35.2537 9.79669 35.6325 9.23187 36.1137 8.75242C36.5898 8.28647 37.1577 7.91553 37.7846 7.66108C38.4399 7.39557 39.145 7.2613 39.8566 7.26657C40.5976 7.25275 41.3334 7.38712 42.0171 7.66108C42.6135 7.90516 43.1475 8.2703 43.5821 8.73126C44.0035 9.18955 44.3256 9.72338 44.5297 10.3018C44.7448 10.9185 44.8516 11.5652 44.8455 12.2154V12.5283C44.8447 12.6505 44.8374 12.7726 44.8234 12.8941C44.8177 12.9492 44.7692 12.9911 44.7113 12.9908H36.5496C36.5051 12.9909 36.4626 13.009 36.4327 13.0407C36.4007 13.0736 36.3857 13.1185 36.3917 13.1631C36.4281 13.5272 36.5218 13.8839 36.6696 14.2212C36.8459 14.629 37.104 14.9998 37.4293 15.3126C37.758 15.6261 38.146 15.8769 38.5727 16.0517C39.6652 16.4804 40.9043 16.396 41.9223 15.8235C42.3423 15.5757 42.7125 15.2577 43.0152 14.8848C43.0747 14.8071 43.1649 14.7563 43.2647 14.7442C43.3677 14.7312 43.4719 14.7585 43.5537 14.8198L44.2202 15.3201C44.3031 15.3826 44.3556 15.475 44.3654 15.5756C44.3769 15.6741 44.3449 15.7727 44.277 15.8476C43.7667 16.4427 43.1256 16.9227 42.3993 17.2534C41.6416 17.5806 40.8189 17.7472 39.9877 17.7416ZM39.8566 7.47516C38.5087 7.46166 37.2139 7.97799 36.2748 8.90358C35.8142 9.36289 35.452 9.90414 35.2088 10.4968C34.949 11.1344 34.8188 11.8137 34.825 12.498C34.8182 13.184 34.9524 13.8645 35.2199 14.5009C35.4699 15.0946 35.8366 15.637 36.3001 16.0986C36.7628 16.5511 37.3175 16.9081 37.9299 17.1476C38.584 17.4029 39.2845 17.5313 39.9909 17.5255C40.7874 17.5297 41.5755 17.3694 42.3013 17.0554C42.9975 16.737 43.6121 16.2762 44.1017 15.7056C44.1281 15.6746 44.1406 15.6349 44.1365 15.5952C44.1327 15.5527 44.1103 15.5138 44.0749 15.4879L43.41 14.9891C43.3762 14.9632 43.3328 14.9517 43.29 14.9573C43.2505 14.9618 43.2146 14.9815 43.1905 15.0118C42.8724 15.4061 42.4823 15.742 42.0392 16.0033C40.9561 16.6123 39.6375 16.7007 38.4763 16.2422C38.0249 16.0554 37.614 15.7893 37.265 15.4577C36.9188 15.1244 36.6441 14.7296 36.4564 14.2953C36.3006 13.939 36.2011 13.5626 36.1611 13.1782C36.1498 13.0728 36.186 12.9678 36.2606 12.8895C36.3333 12.8126 36.4365 12.7687 36.5449 12.7686H44.6118C44.6197 12.6809 44.6229 12.5993 44.6229 12.5222V12.2093C44.625 11.5826 44.5183 10.96 44.307 10.3668C44.1127 9.81612 43.8068 9.30759 43.4068 8.87032C42.9937 8.43256 42.4861 8.08598 41.9192 7.85456C41.2666 7.59236 40.5642 7.46315 39.8566 7.47516ZM132.636 17.4862H131.418C131.252 17.4863 131.105 17.3845 131.053 17.2337L128.474 9.75307L125.948 17.2307C125.896 17.3829 125.748 17.486 125.581 17.4862H124.365C124.198 17.4863 124.049 17.3823 123.999 17.2292L120.943 7.98304C120.906 7.87129 120.927 7.74943 121 7.65504C121.072 7.55771 121.191 7.50111 121.316 7.50388H122.334C122.504 7.50421 122.654 7.61096 122.704 7.76689L125.027 15.2476L127.623 7.75631C127.675 7.60557 127.822 7.50376 127.988 7.50388H129.035C129.2 7.50401 129.347 7.60495 129.4 7.7548L132.037 15.2491L134.34 7.7684C134.389 7.62123 134.528 7.51834 134.689 7.50993H135.684C135.809 7.50716 135.927 7.56376 136 7.66108C136.072 7.75548 136.093 7.87733 136.057 7.98909L133.001 17.2352C132.948 17.3854 132.801 17.4865 132.636 17.4862ZM128.452 9.36007H128.497C128.546 9.36043 128.589 9.39091 128.604 9.43564L131.268 17.1657C131.29 17.2306 131.355 17.2734 131.426 17.27H132.636C132.708 17.2732 132.772 17.2297 132.794 17.1642L135.848 7.91805C135.864 7.87169 135.855 7.82106 135.824 7.78201C135.795 7.74295 135.747 7.71991 135.697 7.72003H134.689C134.616 7.71727 134.551 7.76217 134.531 7.82887L132.162 15.5786C132.147 15.6245 132.103 15.6558 132.053 15.6557H132.004C131.956 15.6553 131.913 15.6255 131.898 15.5816L129.161 7.82887C129.139 7.76457 129.074 7.72254 129.004 7.72608H127.956C127.885 7.72275 127.821 7.76548 127.799 7.83038L125.114 15.5816C125.098 15.6258 125.055 15.6555 125.006 15.6557H124.962C124.913 15.6551 124.869 15.6239 124.855 15.5786L122.448 7.83491C122.428 7.76821 122.363 7.72332 122.29 7.72608H121.271C121.219 7.72361 121.17 7.74577 121.138 7.78533C121.106 7.8249 121.097 7.87679 121.113 7.92409L124.168 17.1703C124.189 17.2357 124.254 17.2792 124.326 17.2761H125.542C125.613 17.2792 125.678 17.2357 125.7 17.1703L128.32 9.44169C128.336 9.38927 128.391 9.35689 128.448 9.36611L128.452 9.36007ZM97.1164 17.4862H95.853C95.6966 17.4864 95.5558 17.3954 95.4976 17.2564L91.5495 8.01025C91.5018 7.89669 91.516 7.76789 91.5876 7.66643C91.6591 7.56498 91.7785 7.50408 91.9064 7.50388H92.9724C93.1311 7.50467 93.2732 7.59815 93.3309 7.73968L96.4894 15.6285L99.6748 7.73968C99.7321 7.59787 99.8745 7.50424 100.033 7.50388H101.036C101.164 7.50308 101.284 7.56385 101.356 7.66572C101.427 7.76758 101.441 7.89697 101.392 8.01025L97.4702 17.2564C97.4115 17.3943 97.272 17.4849 97.1164 17.4862ZM91.9048 7.72003C91.8517 7.71945 91.8019 7.74444 91.7721 7.78654C91.7429 7.82865 91.7375 7.88197 91.7579 7.92863L95.7061 17.1748C95.7301 17.2323 95.7883 17.2701 95.853 17.27H97.1164C97.1811 17.2701 97.2393 17.2323 97.2633 17.1748L101.186 7.92863C101.206 7.88172 101.2 7.82838 101.17 7.78654C101.141 7.74489 101.092 7.71996 101.039 7.72003H100.036C99.9708 7.71959 99.9117 7.75811 99.888 7.81677L96.6284 15.9202C96.6119 15.9623 96.5696 15.9901 96.5226 15.9897H96.4705C96.4236 15.9896 96.3816 15.962 96.3647 15.9202L93.1193 7.82282C93.0956 7.76416 93.0365 7.72564 92.9708 7.72608L91.9048 7.72003ZM105.136 17.4862H104.196C104.094 17.4862 103.996 17.4473 103.924 17.3781C103.852 17.3088 103.812 17.215 103.813 17.1173V7.87723C103.813 7.77982 103.853 7.68639 103.925 7.61751C103.997 7.54863 104.095 7.50993 104.196 7.50993H105.136C105.348 7.50993 105.52 7.67413 105.521 7.87723V17.1234C105.518 17.3247 105.346 17.4862 105.136 17.4862ZM104.196 7.72003C104.109 7.72003 104.038 7.78771 104.038 7.87119V17.1234C104.038 17.2069 104.109 17.2745 104.196 17.2745H105.136C105.223 17.2745 105.294 17.2069 105.294 17.1234V7.87723C105.294 7.79375 105.223 7.72608 105.136 7.72608L104.196 7.72003ZM75.7078 17.4862H74.7697C74.5568 17.4862 74.3843 17.321 74.3843 17.1173V1.86882C74.3843 1.66513 74.5568 1.5 74.7697 1.5H75.7078C75.9206 1.5 76.0931 1.66513 76.0931 1.86882V17.1234C76.0896 17.3247 75.9181 17.4862 75.7078 17.4862ZM74.7697 1.71011C74.6824 1.71011 74.6117 1.77778 74.6117 1.86126V17.1234C74.6117 17.2069 74.6824 17.2745 74.7697 17.2745H75.7078C75.795 17.2745 75.8657 17.2069 75.8657 17.1234V1.86882C75.8657 1.78534 75.795 1.71766 75.7078 1.71766L74.7697 1.71011ZM51.8939 16.5792C51.5956 16.5797 51.2983 16.5472 51.0079 16.4825C50.7194 16.42 50.4447 16.3095 50.1961 16.156C49.9506 16.0032 49.7474 15.7957 49.6039 15.5514C49.4483 15.2647 49.3721 14.9447 49.3828 14.6218C49.3652 14.1734 49.554 13.7402 49.8992 13.4367C50.2673 13.1283 50.7027 12.9026 51.1737 12.7762C51.7286 12.6186 52.2992 12.5173 52.8762 12.4739C53.4968 12.4255 54.1191 12.3998 54.7271 12.3998H54.8929C55.1051 12.4006 55.2767 12.5655 55.2767 12.7686V13.2387C55.2784 13.6706 55.2025 14.0996 55.0524 14.5069C54.9077 14.8993 54.6857 15.2616 54.3986 15.5741C54.1035 15.8899 53.7411 16.1414 53.3357 16.3117C52.88 16.4964 52.3887 16.5876 51.8939 16.5792ZM54.7271 12.6159C54.1254 12.6159 53.5095 12.6401 52.8951 12.6885C52.3344 12.7284 51.7797 12.8247 51.24 12.9757C50.8008 13.0929 50.3945 13.3026 50.0508 13.5894C49.7519 13.8513 49.5899 14.2267 49.6086 14.6142C49.5983 14.9001 49.6646 15.1837 49.8013 15.438C49.926 15.6549 50.1044 15.8392 50.3209 15.9746C50.5459 16.1167 50.7957 16.2191 51.0584 16.2769C51.3324 16.3373 51.6127 16.3678 51.8939 16.3676C52.3568 16.3755 52.8164 16.29 53.2426 16.1167C53.6188 15.9597 53.9554 15.7272 54.2296 15.435C54.4973 15.1426 54.7042 14.804 54.8392 14.4374C54.9811 14.0534 55.0527 13.649 55.0508 13.2417V12.7716C55.0508 12.6882 54.9801 12.6205 54.8929 12.6205L54.7271 12.6159ZM65.4093 16.2769C64.8333 16.2886 64.2611 16.1857 63.7289 15.9746C63.2544 15.7794 62.829 15.4892 62.4813 15.1236C62.1406 14.7607 61.8772 14.3376 61.7059 13.8781C61.3479 12.9089 61.3479 11.8514 61.7059 10.8822C61.878 10.423 62.1413 10.0001 62.4813 9.63668C62.8298 9.27035 63.2542 8.97745 63.7274 8.77661C64.2573 8.5546 64.8309 8.44428 65.4093 8.45314C65.9664 8.44836 66.518 8.5587 67.0265 8.77661C68.5067 9.41417 69.4556 10.8265 69.4475 12.3801C69.4552 12.9236 69.3539 13.4634 69.149 13.9703C68.9589 14.4328 68.6725 14.8535 68.3073 15.2067C67.9421 15.5537 67.5061 15.8249 67.0265 16.0033C66.5101 16.1907 65.9615 16.2835 65.4093 16.2769ZM65.4093 8.66022C64.8637 8.65126 64.3225 8.75434 63.8221 8.96253C63.3766 9.15116 62.9769 9.42657 62.6487 9.77121C62.3283 10.1138 62.0805 10.5127 61.9191 10.9457C61.578 11.8669 61.578 12.8723 61.9191 13.7934C62.0804 14.2265 62.3282 14.6254 62.6487 14.9679C62.9752 15.3111 63.3748 15.5833 63.8205 15.766C64.3231 15.9682 64.8642 16.0681 65.4093 16.0593C65.9316 16.0637 66.4501 15.9745 66.938 15.7963C67.3898 15.6265 67.8001 15.3692 68.143 15.0405C68.4857 14.7076 68.7543 14.3116 68.9327 13.8766C69.1278 13.3948 69.2248 12.8817 69.2185 12.365C69.2209 11.4019 68.8351 10.475 68.1414 9.77726C67.7955 9.43694 67.3856 9.16208 66.9333 8.96706C66.4538 8.76295 65.9341 8.65985 65.4093 8.66475V8.66022ZM116.796 11.8541H110.439C110.326 11.8534 110.218 11.8051 110.145 11.7219C110.072 11.6386 110.041 11.5289 110.06 11.4218C110.114 11.1023 110.215 10.7918 110.36 10.4998C110.756 9.7008 111.443 9.0676 112.292 8.71917C112.741 8.53649 113.225 8.44438 113.713 8.4486C114.803 8.4486 115.656 8.76603 116.249 9.39181C116.783 9.96155 117.11 10.681 117.181 11.443C117.194 11.5497 117.159 11.6567 117.083 11.7362C117.01 11.8148 116.906 11.8594 116.796 11.8587V11.8541ZM113.71 8.66022C113.254 8.65639 112.802 8.74231 112.382 8.91265C111.981 9.07572 111.616 9.30897 111.305 9.6004C110.998 9.88574 110.747 10.2216 110.564 10.592C110.428 10.8659 110.333 11.157 110.283 11.4566C110.275 11.5019 110.289 11.5482 110.319 11.5836C110.349 11.6171 110.393 11.6365 110.439 11.6365H116.796C116.84 11.6364 116.883 11.6182 116.913 11.5866C116.944 11.5527 116.959 11.5076 116.954 11.4626C116.886 10.7459 116.58 10.0691 116.079 9.53238C115.529 8.95799 114.733 8.66475 113.71 8.66475V8.66022ZM87.7845 11.8587H81.4279C81.3153 11.8585 81.2085 11.8109 81.1357 11.7287C81.0611 11.6453 81.0287 11.5347 81.0473 11.4264C81.1007 11.1068 81.2017 10.7963 81.3473 10.5043C81.5418 10.109 81.8093 9.75052 82.137 9.44623C82.4683 9.13627 82.8572 8.88817 83.2835 8.71463C83.7328 8.53179 84.2167 8.43967 84.7049 8.44407C85.793 8.44407 86.6458 8.76149 87.2412 9.38727C87.7735 9.95756 88.0997 10.6768 88.1714 11.4384C88.1846 11.5449 88.1495 11.6516 88.0751 11.7317C88.0019 11.8123 87.896 11.8586 87.7845 11.8587ZM84.6986 8.66475C84.2419 8.66076 83.7893 8.74668 83.3688 8.91718C82.9684 9.08063 82.6032 9.31384 82.2917 9.60494C81.9854 9.8908 81.7346 10.2266 81.5511 10.5965C81.4148 10.8704 81.3202 11.1616 81.27 11.4611C81.2616 11.5068 81.2756 11.5536 81.3079 11.5881C81.3379 11.6217 81.3817 11.641 81.4279 11.641H87.7845C87.8285 11.6405 87.8703 11.6224 87.8998 11.5911C87.9323 11.5578 87.9473 11.5123 87.9408 11.4672C87.874 10.7506 87.5678 10.0738 87.0675 9.53692C86.521 8.95799 85.7219 8.66475 84.7001 8.66475H84.6986ZM42.9425 11.8587H36.5859C36.4735 11.8578 36.3669 11.8104 36.2938 11.7287C36.2197 11.645 36.1874 11.5346 36.2053 11.4264C36.2602 11.1072 36.3612 10.7969 36.5054 10.5043C36.7004 10.1092 36.9678 9.75087 37.295 9.44623C37.6269 9.13693 38.0156 8.88891 38.4416 8.71463C38.8909 8.53179 39.3747 8.43967 39.8629 8.44407C40.9526 8.44407 41.8054 8.76149 42.3993 9.38727C42.932 9.95742 43.2588 10.6767 43.331 11.4384C43.3436 11.5451 43.3079 11.6518 43.2331 11.7317C43.1601 11.8124 43.0541 11.8588 42.9425 11.8587ZM39.8566 8.66475C39.4005 8.66092 38.9484 8.74684 38.5284 8.91718C38.1278 9.08026 37.7625 9.31351 37.4514 9.60494C37.144 9.88999 36.8931 10.2259 36.7107 10.5965C36.5745 10.8704 36.4798 11.1616 36.4296 11.4611C36.4208 11.5065 36.4342 11.5533 36.4659 11.5881C36.4959 11.6217 36.5398 11.641 36.5859 11.641H42.9425C42.9868 11.6413 43.0293 11.6237 43.0594 11.5926C43.0907 11.5581 43.1055 11.5126 43.1005 11.4672C43.0331 10.7505 42.7263 10.0736 42.2255 9.53692C41.6696 8.95799 40.88 8.66475 39.8566 8.66475Z" fill="#00729E"/>
<path fill-rule="evenodd" clip-rule="evenodd" d="M10.0128 0H14.5018C14.5601 -1.55248e-06 14.616 0.0232584 14.657 0.0646175C14.6981 0.105977 14.7209 0.162013 14.7205 0.220291V4.2813C14.7205 4.40209 14.6226 4.5 14.5018 4.5H10.0128" fill="#8CCC4C"/>
<path fill-rule="evenodd" clip-rule="evenodd" d="M0.286178 2.02788e-08L11.059 0V4.5H0.286178C0.169184 4.5 0.0743408 4.40209 0.0743408 4.2813V0.212309C0.0776874 0.0940284 0.171557 -5.04271e-05 0.286178 2.02788e-08V2.02788e-08Z" fill="#0098C5"/>
<path fill-rule="evenodd" clip-rule="evenodd" d="M10.0128 18.5H14.5018C14.5601 18.5 14.616 18.5233 14.657 18.5646C14.6981 18.606 14.7209 18.662 14.7205 18.7203V22.7813C14.7205 22.9021 14.6226 23 14.5018 23H10.0128" fill="#8CCC4C"/>
<path fill-rule="evenodd" clip-rule="evenodd" d="M0.286178 18.5H11.059V23H0.286178C0.169184 23 0.0743408 22.9022 0.0743408 22.7816V18.7184C0.075183 18.5981 0.169534 18.5009 0.286178 18.5Z" fill="#0098C5"/>
<path fill-rule="evenodd" clip-rule="evenodd" d="M3.21277 9L14.5019 9.01908C14.6225 9.02081 14.7196 9.11759 14.7205 9.23692V13.2837C14.72 13.3418 14.6962 13.3973 14.6543 13.4379C14.6124 13.4785 14.5558 13.5008 14.4971 13.5L3.21277 13.4825" fill="#8CCC4C"/>
<path fill-rule="evenodd" clip-rule="evenodd" d="M0.280799 9H5.30511V13.5H0.280799C0.167117 13.4991 0.0751617 13.4017 0.0743408 13.2813V9.21869C0.0743408 9.09791 0.166775 9 0.280799 9Z" fill="#0098C5"/>
<path fill-rule="evenodd" clip-rule="evenodd" d="M29.1521 0H24.2887C24.2119 0.00105443 24.1417 0.0419994 24.1044 0.107333L15.2718 22.7377C15.1899 22.8788 15.297 23.003 15.4623 22.9999H20.1856C20.2648 22.9933 20.3349 22.9476 20.3714 22.8788L29.3426 0.315866C29.377 0.249755 29.3745 0.171169 29.3359 0.107282C29.2974 0.0433944 29.2282 0.00297507 29.1521 0Z" fill="#8CCC4C"/>
<path fill-rule="evenodd" clip-rule="evenodd" d="M29.1521 0H24.2887C24.2119 0.00105443 24.1417 0.0419995 24.1044 0.107333L15.2718 22.7378C15.1899 22.8789 15.297 23.0015 15.4623 23H20.1856C20.2646 22.9928 20.3345 22.9472 20.3714 22.8789L29.3426 0.315866C29.377 0.249755 29.3745 0.17117 29.3359 0.107282C29.2974 0.0433945 29.2282 0.00297507 29.1521 0Z" fill="url(#paint0_linear_565_12360)"/>
<defs>
<linearGradient id="paint0_linear_565_12360" x1="22.3096" y1="-0.00613333" x2="22.3096" y2="22.9939" gradientUnits="userSpaceOnUse">
<stop stop-color="#0098C5"/>
<stop offset="0.17" stop-color="#0098C5"/>
<stop offset="0.54" stop-color="#0098C5" stop-opacity="0.43"/>
<stop offset="0.84" stop-color="#0098C5" stop-opacity="0"/>
<stop offset="1" stop-color="#0098C5" stop-opacity="0"/>
</linearGradient>
</defs>
</svg>
