<svg width="64" height="16" viewBox="0 0 64 16" fill="none" xmlns="http://www.w3.org/2000/svg">
<g clip-path="url(#clip0_262_5043)">
<path d="M61.4472 9.69823C62.4734 9.53797 63.5147 8.85041 63.5147 7.33054C63.5147 6.56544 63.2619 5.96576 62.7565 5.54702C62.2611 5.13345 61.5433 4.92667 60.6283 4.92667H57.4033V13.2756H58.5306V9.73959H60.1785L62.6351 13.2756H63.9949L61.4422 9.69823H61.4472ZM58.5356 8.66948V6.02263H60.6182C61.7657 6.02263 62.3521 6.46205 62.3521 7.33054C62.3521 8.19904 61.7707 8.67465 60.6182 8.67465H58.5356V8.66948Z" fill="#33322B"/>
<path d="M49.4469 9.61552H53.6476V8.52473H49.4469V6.02263H54.3957V4.92667H48.3197V13.2756H54.4462V12.1797H49.4469V9.61552Z" fill="#33322B"/>
<path d="M41.8697 11.9573L38.8974 4.92148H37.6943L41.2024 13.2032L41.2328 13.2704H42.5015L46.0299 4.92148H44.8521L41.8747 11.9573H41.8697Z" fill="#33322B"/>
<path d="M32.0076 4.80774C29.5661 4.80774 27.7969 6.61194 27.7969 9.09853C27.7969 11.5851 29.5661 13.3893 32.0076 13.3893C34.4491 13.3893 36.2183 11.5851 36.2183 9.09853C36.2183 6.61194 34.4441 4.80774 32.0076 4.80774ZM34.1761 11.3938C33.6252 11.9573 32.8518 12.2675 32.0076 12.2675C31.1634 12.2675 30.3951 11.9573 29.8441 11.3938C29.283 10.82 28.9696 10.0032 28.9696 9.09853C28.9696 8.19385 29.278 7.37704 29.8441 6.80322C30.3951 6.23973 31.1634 5.92955 32.0076 5.92955C32.8518 5.92955 33.6252 6.23973 34.1761 6.80322C34.7372 7.37704 35.0506 8.19385 35.0506 9.09853C35.0506 10.0032 34.7423 10.82 34.1761 11.3938Z" fill="#33322B"/>
<path d="M23.7428 8.51956H19.1479V4.92667H18.0207V13.2756H19.1479V9.62069H23.7428V13.2756H24.8701V4.92667H23.7428V8.51956Z" fill="#33322B"/>
<path d="M6.35903 15.4365L4.24103 14.8679V11.5593L6.35903 12.128V15.4365Z" fill="#247DDC"/>
<path d="M0 7.11339V13.7357L4.24106 11.5593V4.93698L0 7.11339Z" fill="#1D66A8"/>
<path d="M8.48212 9.3777V16L13.7847 13.2808V6.65848L8.48212 9.3777Z" fill="#1D66A8"/>
<path d="M13.7847 6.65848L8.4821 9.37771L2.12305 2.71922L7.42057 0L13.7796 6.65848H13.7847Z" fill="#247DDC"/>
</g>
<defs>
<clipPath id="clip0_262_5043">
<rect width="64" height="16" fill="white"/>
</clipPath>
</defs>
</svg>
