<?xml version="1.0" encoding="utf-8"?>
<!-- Generator: Adobe Illustrator 25.3.1, SVG Export Plug-In . SVG Version: 6.00 Build 0)  -->
<svg version="1.1" id="Layer_1" xmlns="http://www.w3.org/2000/svg" xmlns:xlink="http://www.w3.org/1999/xlink" x="0px" y="0px"
	 viewBox="0 0 58.23 15.54" style="enable-background:new 0 0 58.23 15.54;" xml:space="preserve">
<style type="text/css">
	.st0{fill:#6D6E71;}
</style>
<g>
	<g>
		<g>
			<g>
				<path class="st0" d="M9.23,7.22c-0.02-1.72,1.4-2.55,1.47-2.59C9.9,3.46,8.65,3.3,8.21,3.29c-1.05-0.11-2.06,0.63-2.6,0.63
					c-0.54,0-1.37-0.62-2.25-0.6c-1.14,0.02-2.21,0.68-2.79,1.7c-1.21,2.09-0.31,5.16,0.85,6.85c0.58,0.83,1.25,1.75,2.14,1.72
					c0.87-0.04,1.19-0.55,2.23-0.55c1.03,0,1.34,0.55,2.24,0.53c0.93-0.01,1.51-0.83,2.07-1.66c0.67-0.95,0.94-1.88,0.95-1.93
					C11.03,9.96,9.25,9.28,9.23,7.22z"/>
				<path class="st0" d="M7.53,2.18C7.99,1.6,8.31,0.8,8.22,0c-0.67,0.03-1.52,0.47-2,1.03c-0.43,0.5-0.81,1.32-0.71,2.1
					C6.26,3.19,7.04,2.75,7.53,2.18z"/>
			</g>
		</g>
		<g>
			<path class="st0" d="M21.75,13.46h-1.21l-0.66-2.08h-2.3l-0.63,2.08h-1.18l2.28-7.09h1.41L21.75,13.46z M19.68,10.51l-0.6-1.85
				c-0.06-0.19-0.18-0.63-0.36-1.33H18.7c-0.07,0.3-0.18,0.75-0.34,1.33l-0.59,1.85H19.68z"/>
			<path class="st0" d="M27.62,10.85c0,0.87-0.23,1.56-0.7,2.06c-0.42,0.45-0.94,0.67-1.57,0.67c-0.67,0-1.16-0.24-1.45-0.73h-0.02
				v2.69h-1.14v-5.51c0-0.55-0.01-1.11-0.04-1.68h1l0.06,0.81h0.02c0.38-0.61,0.95-0.91,1.72-0.91c0.6,0,1.11,0.24,1.51,0.71
				C27.41,9.44,27.62,10.07,27.62,10.85z M26.46,10.89c0-0.5-0.11-0.91-0.34-1.23c-0.25-0.34-0.57-0.5-0.99-0.5
				c-0.28,0-0.53,0.09-0.76,0.28c-0.23,0.19-0.38,0.43-0.45,0.73c-0.04,0.14-0.05,0.26-0.05,0.35v0.85c0,0.37,0.11,0.69,0.34,0.94
				c0.23,0.26,0.52,0.38,0.89,0.38c0.43,0,0.76-0.17,1-0.49C26.34,11.86,26.46,11.43,26.46,10.89z"/>
			<path class="st0" d="M33.49,10.85c0,0.87-0.23,1.56-0.7,2.06c-0.42,0.45-0.94,0.67-1.57,0.67c-0.67,0-1.16-0.24-1.45-0.73h-0.02
				v2.69h-1.14v-5.51c0-0.55-0.01-1.11-0.04-1.68h1l0.06,0.81h0.02c0.38-0.61,0.95-0.91,1.72-0.91c0.6,0,1.11,0.24,1.51,0.71
				C33.29,9.44,33.49,10.07,33.49,10.85z M32.34,10.89c0-0.5-0.11-0.91-0.34-1.23c-0.25-0.34-0.57-0.5-0.99-0.5
				c-0.28,0-0.53,0.09-0.76,0.28c-0.23,0.19-0.38,0.43-0.45,0.73c-0.03,0.14-0.05,0.26-0.05,0.35v0.85c0,0.37,0.11,0.69,0.34,0.94
				c0.23,0.26,0.52,0.38,0.89,0.38c0.43,0,0.76-0.17,1-0.49C32.22,11.86,32.34,11.43,32.34,10.89z"/>
			<path class="st0" d="M40.06,11.48c0,0.6-0.21,1.09-0.63,1.47c-0.46,0.41-1.1,0.62-1.93,0.62c-0.76,0-1.37-0.15-1.84-0.44
				l0.26-0.95c0.5,0.3,1.05,0.45,1.64,0.45c0.43,0,0.76-0.1,1-0.29c0.24-0.19,0.36-0.45,0.36-0.77c0-0.29-0.1-0.53-0.29-0.73
				c-0.2-0.2-0.52-0.38-0.98-0.55c-1.24-0.46-1.86-1.14-1.86-2.03c0-0.58,0.22-1.06,0.65-1.43c0.43-0.37,1.01-0.56,1.73-0.56
				c0.64,0,1.18,0.11,1.61,0.34L39.5,7.54c-0.4-0.22-0.85-0.33-1.36-0.33c-0.4,0-0.71,0.1-0.93,0.29c-0.19,0.18-0.28,0.39-0.28,0.64
				c0,0.28,0.11,0.51,0.33,0.69c0.19,0.17,0.53,0.35,1.03,0.55c0.61,0.25,1.06,0.53,1.35,0.86C39.92,10.58,40.06,10.99,40.06,11.48z
				"/>
			<path class="st0" d="M43.81,9.21h-1.25v2.48c0,0.63,0.22,0.95,0.66,0.95c0.2,0,0.37-0.02,0.5-0.05l0.03,0.86
				c-0.22,0.08-0.52,0.13-0.88,0.13c-0.45,0-0.8-0.14-1.05-0.41c-0.25-0.27-0.38-0.73-0.38-1.38V9.2H40.7V8.35h0.75V7.42l1.11-0.34
				v1.27h1.25L43.81,9.21z"/>
			<path class="st0" d="M49.46,10.87c0,0.79-0.22,1.43-0.67,1.93c-0.47,0.52-1.09,0.78-1.87,0.78c-0.75,0-1.35-0.25-1.79-0.75
				s-0.67-1.12-0.67-1.88c0-0.79,0.23-1.44,0.69-1.94C45.6,8.5,46.22,8.25,47,8.25c0.75,0,1.35,0.25,1.81,0.75
				C49.24,9.48,49.46,10.1,49.46,10.87z M48.28,10.9c0-0.47-0.1-0.88-0.3-1.21c-0.24-0.41-0.58-0.61-1.02-0.61
				c-0.46,0-0.8,0.2-1.04,0.61c-0.2,0.34-0.3,0.75-0.3,1.23c0,0.47,0.1,0.88,0.3,1.21c0.25,0.41,0.59,0.61,1.03,0.61
				c0.43,0,0.77-0.21,1.02-0.62C48.18,11.78,48.28,11.37,48.28,10.9z"/>
			<path class="st0" d="M53.15,9.35c-0.11-0.02-0.23-0.03-0.36-0.03c-0.4,0-0.71,0.15-0.93,0.45c-0.19,0.27-0.28,0.6-0.28,1.01v2.68
				h-1.13l0.01-3.5c0-0.59-0.01-1.12-0.04-1.61h0.99l0.04,0.98h0.03C51.6,9,51.79,8.73,52.04,8.52c0.25-0.18,0.53-0.27,0.82-0.27
				c0.1,0,0.2,0.01,0.28,0.02L53.15,9.35z"/>
			<path class="st0" d="M58.23,10.67c0,0.2-0.01,0.37-0.04,0.51h-3.41c0.01,0.5,0.18,0.89,0.49,1.16c0.29,0.24,0.66,0.36,1.11,0.36
				c0.5,0,0.96-0.08,1.38-0.24l0.18,0.79c-0.48,0.21-1.05,0.32-1.71,0.32c-0.79,0-1.41-0.23-1.87-0.7
				c-0.45-0.47-0.68-1.09-0.68-1.88c0-0.77,0.21-1.41,0.63-1.92c0.44-0.55,1.04-0.82,1.79-0.82c0.74,0,1.29,0.27,1.67,0.82
				C58.07,9.49,58.23,10.03,58.23,10.67z M57.14,10.37c0.01-0.34-0.07-0.63-0.22-0.87c-0.2-0.32-0.5-0.47-0.9-0.47
				c-0.37,0-0.67,0.15-0.9,0.46c-0.19,0.25-0.3,0.54-0.34,0.88L57.14,10.37L57.14,10.37z"/>
		</g>
		<g>
			<g>
				<path class="st0" d="M19.3,2.02c0,0.63-0.19,1.1-0.56,1.42c-0.35,0.29-0.84,0.44-1.48,0.44c-0.32,0-0.59-0.01-0.82-0.04V0.41
					c0.3-0.05,0.62-0.07,0.96-0.07c0.61,0,1.07,0.13,1.38,0.4C19.13,1.03,19.3,1.46,19.3,2.02z M18.72,2.03
					c0-0.41-0.11-0.72-0.32-0.93c-0.22-0.22-0.53-0.33-0.94-0.33c-0.18,0-0.33,0.01-0.45,0.04v2.6c0.07,0.01,0.19,0.02,0.38,0.02
					c0.43,0,0.76-0.12,0.99-0.36C18.6,2.84,18.72,2.49,18.72,2.03z"/>
				<path class="st0" d="M22.42,2.57c0,0.39-0.11,0.7-0.33,0.95c-0.23,0.26-0.54,0.38-0.92,0.38c-0.37,0-0.66-0.12-0.88-0.37
					c-0.22-0.24-0.33-0.55-0.33-0.92c0-0.39,0.11-0.71,0.34-0.96s0.53-0.37,0.91-0.37c0.37,0,0.66,0.12,0.89,0.37
					C22.32,1.88,22.42,2.19,22.42,2.57z M21.84,2.58c0-0.23-0.05-0.43-0.15-0.6c-0.12-0.2-0.28-0.3-0.5-0.3
					c-0.22,0-0.39,0.1-0.51,0.3c-0.1,0.17-0.15,0.37-0.15,0.61c0,0.23,0.05,0.43,0.15,0.6c0.12,0.2,0.29,0.3,0.51,0.3
					c0.21,0,0.38-0.1,0.5-0.31C21.79,3.02,21.84,2.82,21.84,2.58z"/>
				<path class="st0" d="M26.61,1.33l-0.79,2.51h-0.51l-0.33-1.09c-0.08-0.27-0.15-0.54-0.2-0.81h-0.01
					c-0.05,0.28-0.12,0.55-0.2,0.81l-0.35,1.09h-0.52l-0.74-2.51h0.57l0.28,1.19C23.9,2.81,23.95,3.08,24,3.33h0.01
					c0.04-0.21,0.11-0.48,0.21-0.8l0.36-1.2h0.45l0.34,1.17c0.08,0.29,0.15,0.56,0.2,0.83h0.02c0.04-0.26,0.09-0.53,0.17-0.83
					l0.3-1.17L26.61,1.33L26.61,1.33z"/>
				<path class="st0" d="M29.5,3.84h-0.56V2.4c0-0.44-0.17-0.66-0.51-0.66c-0.17,0-0.3,0.06-0.4,0.18c-0.1,0.12-0.15,0.27-0.15,0.43
					v1.49h-0.56V2.05c0-0.22-0.01-0.46-0.02-0.72h0.49l0.03,0.39h0.02c0.06-0.12,0.16-0.22,0.29-0.3c0.15-0.09,0.32-0.14,0.51-0.14
					c0.23,0,0.43,0.08,0.58,0.23c0.19,0.19,0.29,0.46,0.29,0.83V3.84z"/>
				<path class="st0" d="M31.04,3.84h-0.56V0.18h0.56V3.84z"/>
				<path class="st0" d="M34.32,2.57c0,0.39-0.11,0.7-0.33,0.95c-0.23,0.26-0.54,0.38-0.92,0.38c-0.37,0-0.66-0.12-0.88-0.37
					c-0.22-0.24-0.33-0.55-0.33-0.92c0-0.39,0.11-0.71,0.34-0.96s0.53-0.37,0.91-0.37c0.37,0,0.66,0.12,0.89,0.37
					C34.21,1.88,34.32,2.19,34.32,2.57z M33.74,2.58c0-0.23-0.05-0.43-0.15-0.6c-0.12-0.2-0.28-0.3-0.5-0.3
					c-0.22,0-0.4,0.1-0.51,0.3c-0.1,0.17-0.15,0.37-0.15,0.61c0,0.23,0.05,0.43,0.15,0.6c0.12,0.2,0.29,0.3,0.51,0.3
					c0.21,0,0.38-0.1,0.5-0.31C33.69,3.02,33.74,2.82,33.74,2.58z"/>
				<path class="st0" d="M37.02,3.84h-0.5l-0.04-0.29h-0.02c-0.17,0.23-0.42,0.35-0.73,0.35c-0.24,0-0.43-0.08-0.57-0.23
					c-0.13-0.14-0.2-0.31-0.2-0.51c0-0.31,0.13-0.54,0.38-0.7c0.26-0.16,0.62-0.24,1.08-0.24V2.17c0-0.33-0.17-0.5-0.52-0.5
					c-0.25,0-0.47,0.06-0.65,0.19L35.14,1.5c0.23-0.14,0.52-0.22,0.86-0.22c0.66,0,0.98,0.35,0.98,1.04v0.92
					C36.99,3.49,37,3.69,37.02,3.84z M36.44,2.98V2.59c-0.62-0.01-0.92,0.16-0.92,0.51c0,0.13,0.04,0.23,0.11,0.29
					c0.07,0.07,0.16,0.1,0.27,0.1c0.12,0,0.24-0.04,0.34-0.12c0.1-0.08,0.17-0.18,0.19-0.3C36.44,3.05,36.44,3.02,36.44,2.98z"/>
				<path class="st0" d="M40.19,3.84h-0.5l-0.03-0.4h-0.02C39.5,3.75,39.23,3.9,38.85,3.9c-0.3,0-0.55-0.12-0.75-0.36
					C37.9,3.31,37.8,3,37.8,2.62c0-0.41,0.11-0.74,0.33-0.99c0.21-0.23,0.47-0.35,0.77-0.35c0.34,0,0.57,0.11,0.71,0.34h0.01V0.18
					h0.56v2.99C40.17,3.41,40.18,3.64,40.19,3.84z M39.61,2.78V2.36c0-0.07-0.01-0.13-0.02-0.18c-0.03-0.13-0.1-0.25-0.2-0.34
					c-0.1-0.09-0.23-0.14-0.37-0.14c-0.21,0-0.37,0.08-0.49,0.25c-0.12,0.17-0.18,0.38-0.18,0.64c0,0.25,0.06,0.45,0.17,0.6
					c0.12,0.17,0.28,0.25,0.49,0.25c0.18,0,0.33-0.07,0.44-0.21C39.56,3.12,39.61,2.96,39.61,2.78z"/>
				<path class="st0" d="M44.96,2.57c0,0.39-0.11,0.7-0.33,0.95C44.4,3.77,44.1,3.9,43.71,3.9c-0.37,0-0.66-0.12-0.88-0.37
					c-0.22-0.24-0.33-0.55-0.33-0.92c0-0.39,0.11-0.71,0.34-0.96s0.53-0.37,0.91-0.37c0.37,0,0.66,0.12,0.89,0.37
					C44.86,1.88,44.96,2.19,44.96,2.57z M44.39,2.58c0-0.23-0.05-0.43-0.15-0.6c-0.12-0.2-0.28-0.3-0.5-0.3
					c-0.22,0-0.39,0.1-0.51,0.3c-0.1,0.17-0.15,0.37-0.15,0.61c0,0.23,0.05,0.43,0.15,0.6c0.12,0.2,0.29,0.3,0.51,0.3
					c0.21,0,0.38-0.1,0.5-0.31C44.33,3.02,44.39,2.82,44.39,2.58z"/>
				<path class="st0" d="M47.96,3.84h-0.56V2.4c0-0.44-0.17-0.66-0.51-0.66c-0.17,0-0.3,0.06-0.4,0.18
					c-0.1,0.12-0.15,0.27-0.15,0.43v1.49h-0.56V2.05c0-0.22-0.01-0.46-0.02-0.72h0.49l0.03,0.39h0.02c0.07-0.12,0.16-0.22,0.29-0.3
					c0.15-0.09,0.32-0.14,0.51-0.14c0.23,0,0.43,0.08,0.58,0.23c0.19,0.19,0.29,0.46,0.29,0.83V3.84z"/>
				<path class="st0" d="M51.72,1.75H51.1v1.22c0,0.31,0.11,0.46,0.33,0.46c0.1,0,0.18-0.01,0.25-0.03l0.01,0.42
					c-0.11,0.04-0.26,0.06-0.43,0.06c-0.22,0-0.39-0.07-0.52-0.2c-0.12-0.13-0.19-0.36-0.19-0.68V1.75h-0.37V1.33h0.37V0.87
					l0.55-0.17v0.62h0.61L51.72,1.75L51.72,1.75z"/>
				<path class="st0" d="M54.67,3.84h-0.56V2.41c0-0.45-0.17-0.68-0.51-0.68c-0.26,0-0.44,0.13-0.53,0.39
					c-0.02,0.05-0.03,0.12-0.03,0.2v1.51h-0.56V0.18h0.56v1.51h0.01c0.18-0.28,0.43-0.41,0.75-0.41c0.23,0,0.42,0.08,0.57,0.23
					c0.19,0.19,0.28,0.47,0.28,0.84L54.67,3.84z"/>
				<path class="st0" d="M57.72,2.47c0,0.1-0.01,0.18-0.02,0.25h-1.67c0.01,0.25,0.09,0.44,0.24,0.57c0.14,0.12,0.32,0.18,0.55,0.18
					c0.25,0,0.47-0.04,0.68-0.12l0.09,0.39c-0.24,0.1-0.52,0.15-0.84,0.15c-0.39,0-0.69-0.11-0.92-0.34
					c-0.22-0.23-0.33-0.54-0.33-0.92c0-0.38,0.1-0.69,0.31-0.95c0.22-0.27,0.51-0.4,0.88-0.4c0.36,0,0.64,0.13,0.82,0.4
					C57.65,1.89,57.72,2.16,57.72,2.47z M57.19,2.32c0-0.17-0.03-0.31-0.11-0.43c-0.1-0.15-0.24-0.23-0.44-0.23
					c-0.18,0-0.33,0.08-0.44,0.23c-0.09,0.12-0.15,0.27-0.17,0.43L57.19,2.32z"/>
			</g>
		</g>
	</g>
</g>
</svg>
