<?xml version="1.0" encoding="utf-8"?>
<!-- Generator: Adobe Illustrator 25.3.1, SVG Export Plug-In . SVG Version: 6.00 Build 0)  -->
<svg version="1.1" id="Layer_1" xmlns="http://www.w3.org/2000/svg" xmlns:xlink="http://www.w3.org/1999/xlink" x="0px" y="0px"
	 viewBox="0 0 65.91 15.46" style="enable-background:new 0 0 65.91 15.46;" xml:space="preserve">
<style type="text/css">
	.st0{fill:#6D6E71;}
	.st1{fill-rule:evenodd;clip-rule:evenodd;fill:#6D6E71;}
</style>
<g>
	<g>
		<path class="st0" d="M35.1,3.66c-0.51,0-0.94-0.18-1.29-0.53c-0.34-0.34-0.53-0.82-0.52-1.3c0-0.52,0.18-0.95,0.52-1.3
			C34.16,0.18,34.59,0,35.1,0c0.51,0,0.94,0.18,1.29,0.53c0.34,0.36,0.52,0.79,0.52,1.3c-0.01,0.52-0.18,0.95-0.52,1.3
			C36.05,3.48,35.61,3.66,35.1,3.66z M19.85,3.66c-0.5,0-0.94-0.18-1.29-0.53c-0.35-0.35-0.53-0.79-0.53-1.31s0.18-0.96,0.53-1.31
			C18.9,0.18,19.34,0,19.85,0c0.25,0,0.49,0.05,0.72,0.15c0.23,0.1,0.41,0.23,0.55,0.39l0.03,0.04l-0.38,0.38l-0.04-0.05
			c-0.22-0.26-0.51-0.38-0.89-0.38c-0.34,0-0.64,0.12-0.89,0.36c-0.25,0.24-0.37,0.56-0.37,0.94s0.13,0.7,0.37,0.94
			c0.25,0.24,0.54,0.36,0.89,0.36c0.36,0,0.67-0.12,0.91-0.36c0.14-0.14,0.23-0.34,0.26-0.59h-1.23V1.66h1.75l0.01,0.05
			c0.01,0.09,0.03,0.18,0.03,0.27c0,0.49-0.15,0.88-0.44,1.17C20.8,3.49,20.37,3.66,19.85,3.66z M40.13,3.59h-0.54l-1.66-2.65
			l0.01,0.48v2.17h-0.54V0.08h0.62l0.02,0.03l1.56,2.5l-0.01-0.48V0.08h0.55L40.13,3.59L40.13,3.59z M31.04,3.59h-0.55V0.6h-0.95
			V0.08h2.45V0.6h-0.95L31.04,3.59L31.04,3.59z M29.09,3.59h-0.55V0.08h0.55V3.59z M26.02,3.59h-0.55V0.6h-0.95V0.08h2.45V0.6h-0.95
			V3.59z M24.18,3.58h-2.1V0.08h2.1V0.6h-1.55v0.96h1.4v0.52h-1.4v0.96h1.55V3.58z M34.22,2.77c0.24,0.24,0.54,0.37,0.89,0.37
			c0.35,0,0.64-0.12,0.89-0.37c0.24-0.24,0.36-0.56,0.36-0.93s-0.12-0.7-0.36-0.93c-0.24-0.24-0.54-0.37-0.89-0.37
			c-0.35,0-0.64,0.12-0.88,0.37c-0.24,0.24-0.36,0.56-0.36,0.93S33.98,2.53,34.22,2.77L34.22,2.77z"/>
		<path class="st1" d="M33.24,8.49c-1.33,0-2.42,1.01-2.42,2.41c0,1.38,1.09,2.41,2.42,2.41c1.33,0,2.42-1.02,2.42-2.41
			C35.66,9.5,34.58,8.49,33.24,8.49z M33.24,12.35c-0.73,0-1.36-0.6-1.36-1.46c0-0.87,0.63-1.46,1.36-1.46
			c0.73,0,1.36,0.59,1.36,1.46C34.61,11.76,33.98,12.35,33.24,12.35z M27.97,8.49c-1.33,0-2.42,1.01-2.42,2.41
			c0,1.38,1.09,2.41,2.42,2.41c1.33,0,2.42-1.02,2.42-2.41C30.39,9.5,29.31,8.49,27.97,8.49z M27.97,12.35
			c-0.73,0-1.36-0.6-1.36-1.46c0-0.87,0.63-1.46,1.36-1.46c0.73,0,1.36,0.59,1.36,1.46C29.33,11.76,28.7,12.35,27.97,12.35z
			 M21.7,9.23v1.02h2.45c-0.07,0.57-0.26,0.99-0.55,1.28c-0.36,0.36-0.91,0.75-1.89,0.75c-1.5,0-2.68-1.21-2.68-2.72
			s1.18-2.72,2.68-2.72c0.81,0,1.4,0.32,1.84,0.73l0.72-0.72c-0.61-0.58-1.42-1.03-2.56-1.03c-2.06,0-3.8,1.68-3.8,3.74
			c0,2.06,1.73,3.74,3.8,3.74c1.11,0,1.95-0.36,2.61-1.05c0.67-0.67,0.89-1.62,0.89-2.39c0-0.24-0.02-0.45-0.06-0.64H21.7
			C21.7,9.21,21.7,9.23,21.7,9.23z M47.36,10.02c-0.2-0.54-0.81-1.54-2.06-1.54c-1.24,0-2.27,0.98-2.27,2.41
			c0,1.35,1.02,2.41,2.39,2.41c1.1,0,1.74-0.67,2.01-1.07l-0.82-0.55c-0.27,0.4-0.65,0.67-1.18,0.67c-0.54,0-0.92-0.25-1.17-0.73
			l3.22-1.33C47.47,10.29,47.36,10.02,47.36,10.02z M44.08,10.82c-0.03-0.93,0.72-1.4,1.26-1.4c0.42,0,0.77,0.21,0.89,0.51
			L44.08,10.82z M41.46,13.16h1.06V6.08h-1.06V13.16z M39.72,9.03h-0.04c-0.24-0.28-0.69-0.54-1.27-0.54c-1.2,0-2.31,1.06-2.31,2.42
			c0,1.35,1.1,2.4,2.31,2.4c0.57,0,1.03-0.26,1.27-0.55h0.04v0.35c0,0.92-0.49,1.42-1.28,1.42c-0.65,0-1.05-0.47-1.21-0.86
			l-0.92,0.38c0.26,0.64,0.97,1.42,2.13,1.42c1.24,0,2.29-0.73,2.29-2.51V8.63h-1L39.72,9.03C39.73,9.03,39.72,9.03,39.72,9.03z
			 M38.51,12.35c-0.73,0-1.34-0.61-1.34-1.45c0-0.85,0.61-1.47,1.34-1.47c0.72,0,1.28,0.62,1.28,1.47
			C39.8,11.74,39.23,12.35,38.51,12.35z M52.31,6.08h-2.53v7.08h1.06v-2.68h1.47c1.17,0,2.32-0.85,2.32-2.2S53.49,6.08,52.31,6.08z
			 M52.34,9.49h-1.5V7.06h1.5c0.79,0,1.24,0.65,1.24,1.21C53.58,8.83,53.13,9.49,52.34,9.49z M58.88,8.48
			c-0.77,0-1.56,0.34-1.89,1.08l0.94,0.39c0.2-0.39,0.57-0.52,0.96-0.52c0.55,0,1.1,0.33,1.11,0.91v0.07
			c-0.19-0.11-0.6-0.27-1.1-0.27c-1.01,0-2.04,0.55-2.04,1.59c0,0.95,0.83,1.56,1.76,1.56c0.71,0,1.1-0.32,1.35-0.69H60v0.55h1.02
			v-2.71C61.02,9.18,60.08,8.48,58.88,8.48z M58.74,12.35c-0.35,0-0.83-0.17-0.83-0.6c0-0.55,0.6-0.76,1.12-0.76
			c0.47,0,0.69,0.1,0.96,0.24C59.92,11.87,59.38,12.35,58.74,12.35z M64.74,8.63l-1.21,3.07h-0.04l-1.26-3.07h-1.14l1.89,4.29
			l-1.08,2.39h1.1l2.91-6.68H64.74z M55.22,13.16h1.06V6.08h-1.06V13.16z"/>
		<g>
			<path class="st0" d="M0.72,14.8c0.26,0.16,0.63,0.14,1.03-0.08l8.2-4.67L7.76,7.91L0.72,14.8z"/>
			<path class="st0" d="M0.13,0.63C0.04,0.79,0,0.99,0,1.23v12.52c0,0.26,0.05,0.48,0.15,0.64l7.03-6.87L0.13,0.63z"/>
			<path class="st0" d="M9.98,4.9L9.97,4.89l0,0L1.74,0.22c-0.42-0.24-0.8-0.24-1.06-0.06l7.07,6.92L9.98,4.9z"/>
			<path class="st0" d="M13.03,6.68l-2.46-1.4l-2.3,2.24l2.26,2.21l2.5-1.42C13.83,7.86,13.83,7.12,13.03,6.68z"/>
		</g>
	</g>
</g>
</svg>
