<svg width="151" height="22" viewBox="0 0 151 22" fill="none" xmlns="http://www.w3.org/2000/svg">
<path d="M47.1052 21.2766V17.0598H47.8055V17.5148C48.0672 17.147 48.4362 16.9626 48.9109 16.9626C49.1726 16.9626 49.4066 17.0137 49.6112 17.1168C49.8158 17.219 49.9794 17.3547 50.101 17.5231C50.2226 17.6924 50.314 17.8725 50.3744 18.0644C50.4348 18.2554 50.4658 18.4498 50.4658 18.6467C50.4658 19.0983 50.319 19.4837 50.0272 19.802C49.7345 20.1204 49.3646 20.2804 48.9168 20.2804C48.6425 20.2804 48.4178 20.2277 48.2416 20.1204C48.0647 20.0148 47.9347 19.8975 47.8508 19.7685V21.2766H47.1052ZM106.604 17.0598V20.1832H105.904V19.7685C105.718 20.1129 105.393 20.2838 104.929 20.2804C104.732 20.2804 104.559 20.2511 104.408 20.1925C104.258 20.1338 104.14 20.0592 104.055 19.9704C103.97 19.8808 103.899 19.7744 103.845 19.6512C103.789 19.5281 103.753 19.4108 103.736 19.2985C103.719 19.1871 103.711 19.0706 103.711 18.9491V17.0598H104.457V18.7606C104.457 19.0153 104.509 19.2164 104.613 19.3639C104.718 19.5121 104.893 19.5842 105.141 19.5808C105.619 19.5808 105.858 19.3153 105.858 18.7832V17.0598H106.604ZM90.3539 17.0598V20.1832H89.6075V19.7342C89.5127 19.9126 89.3702 20.0484 89.1806 20.1405C88.9902 20.2335 88.7814 20.2804 88.5541 20.2804C88.0719 20.2804 87.6861 20.1196 87.3976 19.797C87.1091 19.4744 86.9649 19.0815 86.9649 18.619C86.9649 18.1331 87.1175 17.736 87.4236 17.4268C87.7289 17.1176 88.1054 16.9635 88.5541 16.9635C88.8158 16.9635 89.0372 17.0179 89.2175 17.1277C89.3978 17.2383 89.5278 17.3673 89.6075 17.5148V17.0598H90.3539ZM46.6498 18.8687H44.1321C44.1472 19.1075 44.2445 19.2977 44.4257 19.4384C44.6051 19.5783 44.8098 19.647 45.0379 19.6428C45.3834 19.6428 45.6334 19.5029 45.7894 19.2223H46.5584C46.4142 19.5599 46.2037 19.8213 45.9261 20.0073C45.6644 20.1891 45.3658 20.2804 45.0312 20.2804C44.5607 20.2804 44.1674 20.1171 43.8529 19.7911C43.5375 19.4644 43.3798 19.0782 43.3798 18.6299C43.3798 18.1783 43.5375 17.7879 43.8529 17.4578C44.1674 17.1285 44.5565 16.9626 45.0203 16.9626C45.4908 16.9626 45.8799 17.1218 46.1886 17.441C46.5601 17.8239 46.7136 18.2998 46.6498 18.8687ZM83.2051 18.8687H80.6874C80.7033 19.1075 80.8006 19.2977 80.9809 19.4384C81.1612 19.5783 81.3659 19.647 81.5932 19.6428C81.9387 19.6428 82.1894 19.5029 82.3446 19.2223H83.1145C82.9694 19.5599 82.7589 19.8213 82.4821 20.0073C82.2196 20.1891 81.9219 20.2804 81.5873 20.2804C81.1168 20.2804 80.7234 20.1171 80.4081 19.7911C80.0936 19.4644 79.9359 19.0782 79.9359 18.6299C79.9359 18.1783 80.0936 17.7879 80.4081 17.4578C80.7234 17.1285 81.1126 16.9626 81.5764 16.9626C82.0469 16.9626 82.436 17.1218 82.7438 17.441C83.1162 17.8239 83.2697 18.2998 83.2051 18.8687ZM79.5032 15.9732V20.1832H78.7911V19.7342C78.5781 20.0986 78.2217 20.2804 77.7202 20.2804C77.2488 20.2804 76.8681 20.1204 76.5754 19.7995C76.2827 19.4786 76.1367 19.0857 76.1367 18.619C76.1367 18.1255 76.2894 17.7259 76.5955 17.4209C76.9008 17.116 77.2723 16.9626 77.7084 16.9626C77.9743 16.9626 78.1965 17.0163 78.3752 17.1218C78.5538 17.2282 78.6804 17.3422 78.7568 17.4637V15.9732H79.5032ZM60.4728 17.9018H59.7382C59.7306 17.6781 59.604 17.5659 59.3566 17.5659C59.2392 17.5659 59.1477 17.5977 59.0832 17.6597C59.0186 17.7225 58.9867 17.7954 58.9867 17.8792C58.9901 18.0418 59.167 18.1733 59.5168 18.2722C59.6493 18.3099 59.7507 18.3392 59.8212 18.3601C59.8908 18.3811 59.9814 18.4179 60.0913 18.4707C60.202 18.5235 60.285 18.5805 60.342 18.6416C60.399 18.702 60.4502 18.7824 60.4955 18.8838C60.5416 18.9843 60.5643 19.0991 60.5643 19.2281C60.5676 19.5423 60.4561 19.797 60.228 19.9897C60.0007 20.1832 59.7172 20.2804 59.3801 20.2804C59.2509 20.2804 59.1226 20.262 58.9951 20.226C58.8676 20.1899 58.7443 20.1347 58.6252 20.0618C58.5053 19.9872 58.4055 19.8816 58.3258 19.7451C58.2462 19.6085 58.1984 19.4518 58.1833 19.2734H58.9297C58.9406 19.4208 58.9951 19.5256 59.0915 19.5859C59.1888 19.647 59.2886 19.6772 59.391 19.6772C59.5084 19.6772 59.6107 19.642 59.6954 19.5716C59.7809 19.5021 59.822 19.4158 59.8178 19.3127C59.8178 19.1913 59.7658 19.0999 59.6618 19.0371C59.557 18.9743 59.3398 18.8863 59.0094 18.7723C58.5003 18.6132 58.2445 18.3417 58.2403 17.9588C58.2403 17.6589 58.3493 17.4184 58.5682 17.2358C58.7863 17.054 59.0513 16.9635 59.3624 16.9635C59.4799 16.9635 59.5964 16.9777 59.7096 17.0054C59.8237 17.0339 59.9378 17.0816 60.0518 17.1478C60.1659 17.214 60.2607 17.312 60.337 17.441C60.4125 17.5701 60.4586 17.7234 60.4728 17.9018ZM33.1047 18.619V18.6132C33.1047 18.1808 33.2553 17.7988 33.5576 17.4662C33.8591 17.1344 34.2668 16.9685 34.7793 16.9685C35.2917 16.9685 35.6993 17.1344 36.0012 17.4662C36.3031 17.7988 36.4541 18.1825 36.4541 18.619C36.4541 19.0555 36.3031 19.4401 36.0012 19.7736C35.6993 20.1078 35.2917 20.2746 34.7793 20.2746C34.2668 20.2746 33.8591 20.1078 33.5576 19.7736C33.2553 19.4401 33.1047 19.0555 33.1047 18.619ZM50.7677 18.619V18.6132C50.7677 18.1808 50.9178 17.7988 51.2206 17.4662C51.5217 17.1344 51.9293 16.9685 52.4417 16.9685C52.955 16.9685 53.3617 17.1344 53.6637 17.4662C53.9656 17.7988 54.1165 18.1825 54.1165 18.619C54.1165 19.0555 53.9656 19.4401 53.6637 19.7736C53.3617 20.1078 52.955 20.2746 52.4417 20.2746C51.9293 20.2746 51.5217 20.1078 51.2206 19.7736C50.9178 19.4401 50.7677 19.0555 50.7677 18.619ZM29.4591 18.619V18.6132C29.4591 18.1808 29.6098 17.7988 29.912 17.4662C30.2136 17.1344 30.6211 16.9685 31.1337 16.9685C31.6464 16.9685 32.0535 17.1344 32.3554 17.4662C32.6573 17.7988 32.8083 18.1825 32.8083 18.619C32.8083 19.0555 32.6573 19.4401 32.3554 19.7736C32.0535 20.1078 31.6464 20.2746 31.1337 20.2746C30.6211 20.2746 30.2136 20.1078 29.912 19.7736C29.6098 19.4401 29.4591 19.0555 29.4591 18.619ZM99.9115 18.619V18.6132C99.9115 18.1808 100.062 17.7988 100.364 17.4662C100.666 17.1344 101.074 16.9685 101.586 16.9685C102.099 16.9685 102.505 17.1344 102.807 17.4662C103.109 17.7988 103.26 18.1825 103.26 18.619C103.26 19.0555 103.109 19.4401 102.807 19.7736C102.505 20.1078 102.099 20.2746 101.586 20.2746C101.074 20.2746 100.666 20.1078 100.364 19.7736C100.062 19.4401 99.9115 19.0555 99.9115 18.619ZM69.0911 15.9732H69.9398V18.5621C69.9398 18.8385 69.98 19.0513 70.0589 19.1988C70.1805 19.4116 70.3709 19.518 70.6292 19.518C70.8984 19.518 71.0863 19.4175 71.1928 19.2156C71.2724 19.0798 71.3127 18.8612 71.3127 18.5621V15.9732H72.1614V18.5621C72.1614 18.8762 72.127 19.1351 72.0583 19.3354C71.9903 19.5373 71.8763 19.7116 71.7169 19.859C71.436 20.1288 71.0753 20.2628 70.6342 20.2628C70.1637 20.2628 69.7972 20.1288 69.5347 19.859C69.3527 19.6847 69.2336 19.5029 69.1766 19.3127C69.1196 19.1234 69.0911 18.8729 69.0911 18.5621V15.9732ZM62.6089 17.0598H63.3554V20.1832H62.6089V17.0598ZM96.9551 20.1832H96.1064V15.9732H96.9551V17.6631H98.5788V15.9732H99.4275V20.1832H98.5788V18.4079H96.9551V20.1832ZM63.976 20.1832V17.0598H64.6771C64.6771 17.2383 64.6746 17.3765 64.6712 17.4746C64.865 17.1302 65.1895 16.9593 65.6449 16.9626C65.8387 16.9626 66.0106 16.992 66.1607 17.0506C66.31 17.1101 66.4283 17.1838 66.5138 17.2726C66.5993 17.3623 66.669 17.4695 66.7243 17.5944C66.7797 17.72 66.8157 17.8382 66.8325 17.9504C66.8493 18.0619 66.8585 18.1783 66.8585 18.2998V20.1832H66.1121V18.4883C66.1121 17.9379 65.8865 17.6631 65.4344 17.6631C65.1837 17.6664 65.0025 17.741 64.8901 17.8851C64.7778 18.0292 64.7224 18.2202 64.7224 18.4598V20.1832H63.976ZM72.8047 20.1832V17.0598H73.505C73.505 17.2383 73.5033 17.3765 73.5 17.4746C73.6937 17.1302 74.0183 16.9593 74.4737 16.9626C74.6674 16.9626 74.8393 16.992 74.9894 17.0506C75.1387 17.1101 75.257 17.1838 75.3425 17.2726C75.4272 17.3623 75.4977 17.4695 75.553 17.5944C75.6084 17.72 75.6436 17.8382 75.6612 17.9504C75.678 18.0619 75.6872 18.1783 75.6872 18.2998V20.1832H74.9408V18.4883C74.9408 17.9379 74.7144 17.6631 74.2631 17.6631C74.0124 17.6664 73.8312 17.741 73.7188 17.8851C73.6065 18.0292 73.5511 18.2202 73.5511 18.4598V20.1832H72.8047ZM26.1726 20.1832V15.9732H27.4484C28.0408 15.9732 28.4604 16.062 28.7072 16.2404C28.878 16.3653 29.0101 16.5286 29.103 16.7289C29.196 16.9308 29.2428 17.1486 29.2428 17.3841C29.2428 17.6874 29.1667 17.9496 29.0146 18.1691C28.8591 18.397 28.6275 18.5486 28.32 18.6241L29.2596 20.1832H28.3714L27.2377 18.2261H27.403C27.7748 18.2261 28.0275 18.175 28.1603 18.0728C28.3388 17.9245 28.4283 17.72 28.4283 17.4578C28.4283 17.333 28.3996 17.2148 28.3427 17.1051C28.2857 16.9945 28.2099 16.9099 28.1148 16.8487C27.9743 16.7616 27.7748 16.718 27.5168 16.718H27.0214V20.1832H26.1725H26.1726ZM90.9804 20.1832V17.0598H91.6807C91.6807 17.2383 91.679 17.3765 91.6757 17.4746C91.8694 17.1302 92.194 16.9593 92.6494 16.9626C92.8431 16.9626 93.015 16.992 93.1643 17.0506C93.3144 17.1101 93.4327 17.1838 93.5182 17.2726C93.603 17.3623 93.6734 17.4695 93.7288 17.5944C93.7841 17.72 93.8193 17.8382 93.8369 17.9504C93.8537 18.0619 93.8629 18.1783 93.8629 18.2998V20.1832H93.1165V18.4883C93.1165 17.9379 92.8901 17.6631 92.4389 17.6631C92.1881 17.6664 92.007 17.741 91.8946 17.8851C91.7822 18.0292 91.7268 18.2202 91.7268 18.4598V20.1832H90.9804ZM40.1275 20.1832V15.9732H41.4031C41.996 15.9732 42.4154 16.062 42.6619 16.2404C42.833 16.3653 42.9647 16.5286 43.0578 16.7289C43.1509 16.9308 43.1979 17.1486 43.1979 17.3841C43.1979 17.6874 43.1215 17.9496 42.9697 18.1691C42.8137 18.397 42.5823 18.5486 42.2745 18.6241L43.2146 20.1832H42.3265L41.1926 18.2261H41.3578C41.7293 18.2261 41.9826 18.175 42.1151 18.0728C42.2938 17.9245 42.3835 17.72 42.3835 17.4578C42.3835 17.333 42.3541 17.2148 42.2971 17.1051C42.2409 16.9945 42.1646 16.9099 42.0698 16.8487C41.9289 16.7616 41.7293 16.718 41.4719 16.718H40.9762V20.1832H40.1275ZM56.7827 20.1832V17.6337H56.2644V17.0598H56.7827V15.9732H57.5283V17.0598H58.0633V17.6337H57.5283V20.1832H56.7827ZM107.225 20.1832V17.0598H107.931V17.4695C108.094 17.1352 108.383 16.9668 108.797 16.9626V17.7142H108.763C108.235 17.7142 107.971 17.9756 107.971 18.4992V20.1832H107.225ZM36.9606 20.1832V17.6337H36.5732V17.0598H36.9606V16.883C36.9606 16.7046 36.9883 16.5521 37.0428 16.4248C37.0982 16.2982 37.1636 16.2011 37.2399 16.1349C37.3154 16.0687 37.4152 16.0167 37.5385 15.9782C37.6618 15.9405 37.77 15.9162 37.8631 15.9078C37.9561 15.8978 38.0694 15.8936 38.2019 15.8936V16.4675C38.1339 16.4675 38.0794 16.4708 38.04 16.4767C37.9998 16.4817 37.9503 16.4968 37.8891 16.5219C37.8278 16.5471 37.7825 16.5906 37.7523 16.6552C37.7222 16.7205 37.7062 16.8035 37.7062 16.9057V17.0598H38.2019V17.6337H37.7062V20.1832H36.9606ZM54.5719 20.1832V17.0598H55.2781V17.4695C55.4416 17.1352 55.7301 16.9668 56.1444 16.9626V17.7142H56.1101C55.5825 17.7142 55.3184 17.9756 55.3184 18.4992V20.1832H54.5719ZM83.6554 20.1832V17.0598H84.3616V17.4695C84.5252 17.1352 84.8137 16.9668 85.2271 16.9626V17.7142H85.1936C84.6652 17.7142 84.4019 17.9756 84.4019 18.4992V20.1832H83.6554ZM49.7194 18.6249V18.619C49.7194 18.3719 49.6338 18.1507 49.4627 17.953C49.2925 17.7561 49.0585 17.6572 48.7625 17.6572C48.4932 17.6572 48.2668 17.7519 48.0848 17.9421C47.9062 18.1272 47.8173 18.3568 47.8173 18.6299C47.8173 18.8997 47.9078 19.1251 48.0907 19.3077C48.2769 19.4929 48.5025 19.5859 48.7683 19.5859C49.0451 19.5859 49.2732 19.4912 49.4518 19.3019C49.6305 19.1117 49.7194 18.8863 49.7194 18.6249ZM87.7104 18.6299V18.6358C87.7104 18.7765 87.7415 18.9156 87.8019 19.0539C87.8631 19.1921 87.9688 19.3161 88.1206 19.4242C88.2732 19.5323 88.4535 19.5859 88.6623 19.5859C89.0498 19.5859 89.3266 19.4191 89.4935 19.0857C89.5622 18.96 89.6025 18.8142 89.6134 18.6467C89.6209 18.4917 89.5924 18.3459 89.5278 18.2093C89.4557 18.0501 89.3459 17.9178 89.1974 17.8139C89.0498 17.7091 88.8686 17.6572 88.6565 17.6572C88.368 17.6572 88.1382 17.7552 87.9671 17.9504C87.796 18.1457 87.7104 18.3727 87.7104 18.6299ZM76.8832 18.6132V18.619C76.8832 18.888 76.9721 19.1159 77.1507 19.3019C77.3293 19.487 77.5583 19.58 77.8401 19.58C78.1135 19.58 78.345 19.4853 78.5345 19.296C78.7249 19.1058 78.8138 18.8746 78.802 18.6014C78.802 18.3325 78.7098 18.1088 78.5228 17.9303C78.3408 17.7477 78.1152 17.6572 77.8451 17.6572C77.5533 17.6572 77.3201 17.7519 77.1448 17.9421C76.9704 18.1314 76.8832 18.3551 76.8832 18.6132ZM100.658 18.619V18.6249C100.658 18.8938 100.748 19.12 100.928 19.3019C101.108 19.4837 101.328 19.575 101.586 19.575C101.845 19.575 102.063 19.4837 102.241 19.3019C102.42 19.12 102.509 18.8922 102.509 18.619C102.509 18.3459 102.42 18.118 102.241 17.9362C102.063 17.7535 101.845 17.6631 101.586 17.6631C101.328 17.6631 101.108 17.7535 100.928 17.9362C100.748 18.118 100.658 18.3459 100.658 18.619ZM51.5133 18.619V18.6249C51.5133 18.8938 51.6039 19.12 51.7842 19.3019C51.9645 19.4837 52.1834 19.575 52.4417 19.575C52.7 19.575 52.9189 19.4837 53.0967 19.3019C53.2754 19.12 53.3643 18.8922 53.3643 18.619C53.3643 18.3459 53.2754 18.118 53.0967 17.9362C52.9189 17.7535 52.7 17.6631 52.4417 17.6631C52.1834 17.6631 51.9645 17.7535 51.7842 17.9362C51.6039 18.118 51.5133 18.3459 51.5133 18.619ZM30.2051 18.619V18.6249C30.2051 18.8938 30.2954 19.12 30.4757 19.3019C30.656 19.4837 30.8755 19.575 31.1337 19.575C31.3919 19.575 31.6103 19.4837 31.7885 19.3019C31.9672 19.12 32.0562 18.8922 32.0562 18.619C32.0562 18.3459 31.9672 18.118 31.7885 17.9362C31.6103 17.7535 31.3919 17.6631 31.1337 17.6631C30.8754 17.6631 30.656 17.7535 30.4757 17.9362C30.2954 18.118 30.2052 18.3459 30.2052 18.619H30.2051ZM33.8508 18.619V18.6249C33.8508 18.8938 33.9409 19.12 34.1208 19.3019C34.3011 19.4837 34.5209 19.575 34.7792 19.575C35.0375 19.575 35.2555 19.4837 35.4342 19.3019C35.6128 19.12 35.7017 18.8922 35.7017 18.619C35.7017 18.3459 35.6128 18.118 35.4342 17.9362C35.2555 17.7535 35.0375 17.6631 34.7792 17.6631C34.5209 17.6631 34.3011 17.7535 34.1208 17.9362C33.9409 18.118 33.8508 18.3459 33.8508 18.619ZM44.143 18.2998H45.9142C45.8991 18.1297 45.8102 17.968 45.6467 17.8164C45.4832 17.6647 45.2768 17.591 45.0261 17.5944C44.7711 17.5944 44.5648 17.6681 44.4055 17.8164C44.2453 17.9638 44.1581 18.1255 44.143 18.2998ZM80.6991 18.2998H82.4704C82.4553 18.1297 82.3656 17.968 82.2029 17.8164C82.0393 17.6647 81.833 17.591 81.5822 17.5944C81.3273 17.5944 81.121 17.6681 80.9608 17.8164C80.8014 17.9638 80.7142 18.1255 80.6991 18.2998ZM62.6089 15.9732H63.3554V16.6384H62.6089V15.9732ZM50.2687 3.56328V13.5024H47.4902V12.4459C47.3585 12.6252 47.2453 12.7718 47.1497 12.8849C47.0541 12.998 46.8956 13.1413 46.675 13.3147C46.4536 13.4882 46.1785 13.6189 45.8497 13.7085C45.521 13.7982 45.1478 13.8426 44.7293 13.8426C44.0843 13.8426 43.5258 13.7412 43.0536 13.5384C42.5814 13.3357 42.22 13.091 41.9692 12.8045C41.7184 12.518 41.5146 12.1745 41.3595 11.774C41.2035 11.3743 41.1087 11.025 41.0727 10.7267C41.0366 10.4284 41.019 10.1117 41.019 9.77828V3.56328H43.9946V8.98988C43.9946 9.63417 44.1053 10.1385 44.3267 10.503C44.5473 10.8675 44.9624 11.0493 45.5721 11.0493C46.2414 11.0493 46.6951 10.8582 46.935 10.4762C47.174 10.0941 47.2931 9.59228 47.2931 8.97145V3.56328H50.2687ZM63.6774 9.72382H66.7075C66.4325 10.8943 65.8202 11.8703 64.87 12.652C63.9198 13.4337 62.7934 13.825 61.491 13.825C59.9965 13.825 58.736 13.3089 57.7077 12.2758C56.6804 11.2436 56.1663 9.9869 56.1663 8.50646C56.1663 7.03774 56.6711 5.79022 57.6809 4.76305C58.6915 3.73671 59.9369 3.22312 61.4189 3.22312C62.7339 3.22312 63.8779 3.61103 64.8516 4.38686C65.8261 5.16353 66.4383 6.16641 66.6899 7.39634H63.6774C63.2354 6.46467 62.5184 5.99884 61.5262 5.99884C60.8452 5.96365 60.2716 6.19573 59.8053 6.69759C59.375 7.18688 59.1603 7.79598 59.1603 8.52405C59.1603 9.25212 59.3784 9.85536 59.8145 10.3329C60.2506 10.8105 60.8217 11.0493 61.5262 11.0493C62.4949 11.0493 63.2119 10.6077 63.6774 9.72382ZM133.788 3.86825V13.5033H132.532V11.7832C132.258 12.4166 131.81 12.9084 131.189 13.2611C130.567 13.613 129.826 13.7831 128.966 13.7714C127.555 13.7471 126.524 13.324 125.873 12.4995C125.222 11.676 124.896 10.6195 124.896 9.33004V3.86825H126.205V9.07953C126.205 10.1654 126.458 11.0166 126.966 11.6307C127.474 12.2465 128.254 12.5481 129.306 12.5356C130.31 12.5238 131.087 12.2339 131.637 11.6676C132.186 11.1004 132.461 10.3153 132.461 9.31244V3.86825H133.788ZM104.316 9.0611H95.5327C95.5688 10.1838 95.9747 11.061 96.7522 11.6935C97.5288 12.3269 98.3767 12.6369 99.2975 12.6252C100.038 12.6252 100.698 12.4526 101.278 12.1058C101.858 11.7597 102.303 11.2704 102.614 10.637H103.994C103.551 11.6642 102.9 12.4459 102.04 12.9838C101.227 13.5083 100.313 13.7714 99.2975 13.7714C98.2333 13.7714 97.3049 13.5116 96.5098 12.9922C95.7147 12.4727 95.1319 11.8377 94.762 11.0844C94.3913 10.3329 94.206 9.53866 94.206 8.70334C94.206 7.28239 94.6924 6.07676 95.6669 5.08561C96.6406 4.0953 97.845 3.5993 99.2791 3.5993C100.689 3.5993 101.866 4.05341 102.811 4.96077C103.361 5.49782 103.767 6.12116 104.03 6.83164C104.293 7.54212 104.388 8.28527 104.316 9.0611ZM150.477 9.0611H141.693C141.729 10.1838 142.135 11.061 142.912 11.6935C143.689 12.3269 144.537 12.6369 145.457 12.6252C146.199 12.6252 146.859 12.4526 147.438 12.1058C148.019 11.7597 148.463 11.2704 148.774 10.637H150.154C149.712 11.6642 149.061 12.4459 148.201 12.9838C147.387 13.5083 146.473 13.7714 145.457 13.7714C144.394 13.7714 143.465 13.5116 142.67 12.9922C141.875 12.4727 141.292 11.8377 140.923 11.0844C140.551 10.3329 140.367 9.53866 140.367 8.70334C140.367 7.28239 140.853 6.07676 141.828 5.08561C142.801 4.0953 144.006 3.5993 145.44 3.5993C146.849 3.5993 148.027 4.05341 148.971 4.96077C149.521 5.49782 149.927 6.12116 150.191 6.83164C150.453 7.54212 150.549 8.28527 150.477 9.0611ZM40.2298 11.0493V13.7353C39.8952 13.7596 39.6142 13.7714 39.3878 13.7714C37.9654 13.7714 36.9254 13.4253 36.2679 12.7325C35.1449 13.4253 33.9017 13.7714 32.5396 13.7714C31.1649 13.7714 29.9338 13.4346 28.8466 12.7593C27.7588 12.0857 26.9345 11.2344 26.3729 10.2072C25.811 9.18091 25.53 8.09424 25.53 6.9481C25.53 5.76592 25.8082 4.65329 26.3638 3.60852C26.9198 2.56375 27.7378 1.70079 28.8197 1.02047C29.9013 0.340158 31.1293 0 32.5036 0C33.878 0 35.1147 0.330942 36.2142 0.993663C37.3146 1.65638 38.1507 2.49756 38.7244 3.51887C39.298 4.53935 39.5848 5.62266 39.5848 6.76964C39.5848 8.21405 39.22 9.4909 38.4912 10.6019C38.8141 10.9001 39.3936 11.0493 40.2298 11.0493ZM123.39 6.28538H122.082C122.082 5.78352 121.929 5.39309 121.625 5.11242C121.319 4.83175 120.923 4.69183 120.433 4.69183C119.919 4.69183 119.506 4.84348 119.196 5.14845C118.885 5.45258 118.741 5.81955 118.766 6.24935C118.777 6.67916 118.936 7.01093 119.24 7.24385C119.545 7.47677 120.019 7.68874 120.665 7.87892C121.048 7.987 121.331 8.06743 121.517 8.12106C121.702 8.17468 121.956 8.2794 122.279 8.4344C122.602 8.59024 122.841 8.75697 122.996 8.93626C123.151 9.11472 123.298 9.35685 123.435 9.66098C123.572 9.96595 123.647 10.3145 123.659 10.7091C123.695 11.5804 123.402 12.3085 122.781 12.8942C122.159 13.479 121.388 13.7714 120.468 13.7714C119.608 13.7714 118.846 13.5058 118.183 12.9737C117.519 12.4434 117.181 11.7061 117.17 10.7627H118.479C118.502 11.3836 118.711 11.8578 119.105 12.1862C119.5 12.5155 119.96 12.6788 120.486 12.6788C121.036 12.6788 121.487 12.5029 121.839 12.151C122.192 11.7983 122.362 11.3718 122.351 10.87C122.338 10.3446 122.151 9.93914 121.786 9.6526C121.421 9.36523 120.803 9.09712 119.931 8.84661C119.13 8.60783 118.517 8.30957 118.093 7.95098C117.669 7.59322 117.451 7.06204 117.438 6.35743C117.438 5.52212 117.728 4.85269 118.309 4.35167C118.887 3.84981 119.602 3.5993 120.451 3.5993C120.928 3.5993 121.376 3.68309 121.795 3.84981C122.213 4.01738 122.577 4.30978 122.888 4.72786C123.199 5.14509 123.366 5.66455 123.39 6.28538ZM115.699 3.86741V13.5024H114.374V11.5151C114.003 12.2314 113.471 12.7861 112.778 13.1799C112.085 13.5745 111.301 13.7714 110.429 13.7714C108.924 13.7714 107.714 13.2703 106.799 12.2666C105.885 11.2646 105.428 10.0707 105.428 8.68491C105.428 7.25223 105.9 6.0466 106.844 5.06801C107.788 4.08859 108.983 3.5993 110.429 3.5993C111.385 3.5993 112.216 3.82971 112.922 4.28884C113.626 4.7488 114.11 5.2825 114.374 5.8916V3.86741H115.699ZM80.2773 13.5024H78.8968V0.25051H80.9767L85.888 11.3718L90.7825 0.25051H92.8616V13.5024H91.4635L91.4996 1.71922L86.3543 13.5024H85.4041L80.2412 1.71922L80.2773 13.5024ZM135.831 13.5024V3.86741H137.086V5.4442C137.66 4.26203 138.688 3.64706 140.169 3.5993V4.90631H140.044C139.112 4.90631 138.395 5.19285 137.893 5.76592C137.391 6.339 137.14 7.16928 137.14 8.25511V13.5024H135.831ZM67.729 13.5024V0.25051H70.7047V7.16342L73.5016 3.56328H77.0333L73.2861 7.93338L76.9251 13.5024H73.5553L70.7047 8.72094V13.5024H67.729ZM51.972 3.56328H54.9477V13.5024H51.972V3.56328ZM106.737 8.68491V8.70334C106.748 9.32417 106.886 9.91484 107.149 10.4762C107.412 11.0375 107.845 11.521 108.448 11.9265C109.051 12.3328 109.773 12.5356 110.609 12.5356C111.433 12.5356 112.153 12.3202 112.768 11.8913C113.384 11.4606 113.823 10.8943 114.087 10.1896C114.301 9.72382 114.41 9.21693 114.41 8.66732C114.433 8.11854 114.331 7.60495 114.104 7.12739C113.829 6.44624 113.379 5.8916 112.751 5.46179C112.123 5.03199 111.398 4.81667 110.573 4.81667C109.473 4.81667 108.559 5.19034 107.83 5.936C107.101 6.68251 106.737 7.59909 106.737 8.68491ZM32.5037 10.7987H32.5219C33.119 10.7987 33.5675 10.7091 33.8662 10.5298C33.5365 10.0937 33.1575 9.69697 32.7367 9.34763C32.1155 8.82232 31.4043 8.56008 30.6038 8.56008C30.1016 8.56008 29.6893 8.62543 29.3667 8.75697C29.6291 9.40125 30.0656 9.90311 30.6754 10.2617C31.2848 10.6195 31.8943 10.7987 32.5037 10.7987ZM32.5219 2.97261H32.5037C31.715 2.97261 31.0217 3.19631 30.4241 3.64371C29.8266 4.09195 29.3964 4.72115 29.1336 5.53301C29.0379 5.83211 28.99 6.01141 28.99 6.07089C29.7791 5.81954 30.43 5.69471 30.9441 5.69471C31.9596 5.69471 32.8982 5.99298 33.7586 6.58951C34.4639 7.07964 35.1567 7.70047 35.8385 8.452C36.0767 7.99873 36.1966 7.43823 36.1966 6.76964C36.1966 5.63439 35.841 4.71864 35.1298 4.01989C34.4186 3.32198 33.5496 2.97261 32.5219 2.97261ZM95.5504 8.0046H103.009C102.96 7.13326 102.572 6.36329 101.843 5.69471C101.113 5.02612 100.265 4.70356 99.2976 4.72786C98.2812 4.72786 97.4182 5.05042 96.707 5.69471C95.9958 6.339 95.61 7.10896 95.5504 8.0046ZM141.711 8.0046H149.168C149.121 7.13326 148.732 6.36329 148.004 5.69471C147.274 5.02612 146.426 4.70356 145.457 4.72786C144.442 4.72786 143.578 5.05042 142.868 5.69471C142.156 6.339 141.771 7.10896 141.711 8.0046ZM51.9721 0.25051H54.9477V2.50678H51.9721V0.25051Z" fill="#231F20"/>
<path fill-rule="evenodd" clip-rule="evenodd" d="M20.5988 0.224487H0.5V20.303H20.5988V0.224487Z" fill="#D71920"/>
<path d="M10.38 11.2915L11.073 8.98401L11.7516 11.2915H10.38ZM18.8238 8.5832V7.24267H14.144V12.8921L12.0828 7.37086H10.1179L8.233 12.8761V9.84413H5.56535V11.0891H6.4442C6.4442 11.5994 5.69325 11.8385 5.27811 11.8385C4.86263 11.8385 4.03159 11.7429 4.03159 10.0194C4.03159 8.29624 5.1981 8.31233 5.1981 8.31233C6.1884 8.31233 6.3163 9.09394 6.3163 9.09394H8.089C7.78574 7.41828 6.42776 7.01964 5.30989 6.98747C4.19169 6.95572 2.2749 7.65773 2.2749 10.0194C2.2749 12.3814 3.58499 13.274 4.99052 13.3068C6.34808 13.3386 6.93901 12.4452 6.93901 12.4452V13.2429H9.78278L10.0382 12.4771H12.15L12.3704 13.2269H16.0285V11.1204H18.2489V9.7962H16.0285V8.58311H18.8238V8.5832Z" fill="white"/>
</svg>
