<svg width="24" height="25" viewBox="0 0 24 25" fill="none" xmlns="http://www.w3.org/2000/svg">
<g clip-path="url(#clip0_186_13505)">
<path d="M12 24.0166C5.3724 24.0166 0 18.6442 0 12.0166C0 5.389 5.3724 0.0166016 12 0.0166016C18.6276 0.0166016 24 5.389 24 12.0166C24 18.6442 18.6276 24.0166 12 24.0166ZM6.0156 19.5238C7.71426 20.8818 9.82521 21.6201 12 21.6166C14.364 21.6166 16.5276 20.7622 18.2004 19.3462C17.4189 18.5443 16.4845 17.9073 15.4524 17.4728C14.4204 17.0383 13.3118 16.8152 12.192 16.8166C11.0311 16.8153 9.8826 17.0552 8.81936 17.5213C7.75611 17.9873 6.80134 18.6692 6.0156 19.5238ZM4.3392 17.8006C5.34774 16.7303 6.56481 15.8779 7.91537 15.2959C9.26593 14.7139 10.7214 14.4146 12.192 14.4166C13.61 14.4148 15.0144 14.693 16.3245 15.2355C17.6346 15.7779 18.8247 16.5738 19.8264 17.5774C20.8537 16.1315 21.4604 14.4294 21.5791 12.6597C21.6978 10.89 21.3239 9.12206 20.499 7.55195C19.674 5.98183 18.4302 4.67095 16.9056 3.76474C15.3809 2.85852 13.635 2.39241 11.8615 2.4181C10.0881 2.4438 8.35639 2.9603 6.85862 3.91031C5.36086 4.86032 4.15555 6.20668 3.37643 7.80004C2.59731 9.3934 2.27483 11.1715 2.44478 12.9369C2.61472 14.7024 3.27045 16.3851 4.3392 17.8006ZM12 13.2166C10.727 13.2166 9.50606 12.7109 8.60589 11.8107C7.70571 10.9105 7.2 9.68964 7.2 8.4166C7.2 7.14356 7.70571 5.92266 8.60589 5.02249C9.50606 4.12231 10.727 3.6166 12 3.6166C13.273 3.6166 14.4939 4.12231 15.3941 5.02249C16.2943 5.92266 16.8 7.14356 16.8 8.4166C16.8 9.68964 16.2943 10.9105 15.3941 11.8107C14.4939 12.7109 13.273 13.2166 12 13.2166ZM12 10.8166C12.6365 10.8166 13.247 10.5637 13.6971 10.1137C14.1471 9.66357 14.4 9.05312 14.4 8.4166C14.4 7.78008 14.1471 7.16963 13.6971 6.71955C13.247 6.26946 12.6365 6.0166 12 6.0166C11.3635 6.0166 10.753 6.26946 10.3029 6.71955C9.85286 7.16963 9.6 7.78008 9.6 8.4166C9.6 9.05312 9.85286 9.66357 10.3029 10.1137C10.753 10.5637 11.3635 10.8166 12 10.8166Z" fill="white"/>
</g>
<defs>
<clipPath id="clip0_186_13505">
<rect width="24" height="24" fill="white" transform="translate(0 0.0166016)"/>
</clipPath>
</defs>
</svg>
