<?xml version="1.0" encoding="UTF-8" standalone="no"?>
<!DOCTYPE svg PUBLIC "-//W3C//DTD SVG 1.1//EN" "http://www.w3.org/Graphics/SVG/1.1/DTD/svg11.dtd">
<svg width="100%" height="100%" viewBox="0 0 24 25" version="1.1" xmlns="http://www.w3.org/2000/svg" xmlns:xlink="http://www.w3.org/1999/xlink" xml:space="preserve" xmlns:serif="http://www.serif.com/" style="fill-rule:evenodd;clip-rule:evenodd;stroke-linejoin:round;stroke-miterlimit:2;">
    <g>
        <path d="M12,24.017C5.372,24.017 0,18.644 0,12.017C0,5.389 5.372,0.017 12,0.017C18.628,0.017 24,5.389 24,12.017C24,18.644 18.628,24.017 12,24.017ZM6.016,19.524C7.714,20.882 9.825,21.62 12,21.617C14.364,21.617 16.528,20.762 18.2,19.346C17.419,18.544 16.485,17.907 15.452,17.473C14.42,17.038 13.312,16.815 12.192,16.817C11.031,16.815 9.883,17.055 8.819,17.521C7.756,17.987 6.801,18.669 6.016,19.524ZM4.339,17.801C5.348,16.73 6.565,15.878 7.915,15.296C9.266,14.714 10.721,14.415 12.192,14.417C13.61,14.415 15.014,14.693 16.325,15.236C17.635,15.778 18.825,16.574 19.826,17.577C20.854,16.131 21.46,14.429 21.579,12.66C21.698,10.89 21.324,9.122 20.499,7.552C19.674,5.982 18.43,4.671 16.906,3.765C15.381,2.859 13.635,2.392 11.862,2.418C10.088,2.444 8.356,2.96 6.859,3.91C5.361,4.86 4.156,6.207 3.376,7.8C2.597,9.393 2.275,11.172 2.445,12.937C2.615,14.702 3.27,16.385 4.339,17.801ZM12,13.217C10.727,13.217 9.506,12.711 8.606,11.811C7.706,10.911 7.2,9.69 7.2,8.417C7.2,7.144 7.706,5.923 8.606,5.022C9.506,4.122 10.727,3.617 12,3.617C13.273,3.617 14.494,4.122 15.394,5.022C16.294,5.923 16.8,7.144 16.8,8.417C16.8,9.69 16.294,10.911 15.394,11.811C14.494,12.711 13.273,13.217 12,13.217ZM12,10.817C12.637,10.817 13.247,10.564 13.697,10.114C14.147,9.664 14.4,9.053 14.4,8.417C14.4,7.78 14.147,7.17 13.697,6.72C13.247,6.269 12.637,6.017 12,6.017C11.364,6.017 10.753,6.269 10.303,6.72C9.853,7.17 9.6,7.78 9.6,8.417C9.6,9.053 9.853,9.664 10.303,10.114C10.753,10.564 11.364,10.817 12,10.817Z" style="fill:rgb(98,113,129);fill-rule:nonzero;"/>
    </g>
</svg>
