<svg width="28" height="28" viewBox="0 0 28 28" fill="none" xmlns="http://www.w3.org/2000/svg">
<path fill-rule="evenodd" clip-rule="evenodd" d="M5.63976 15.3757L15.7549 25.4911C15.9539 25.6901 15.9539 26.013 15.7549 26.212L14.3652 27.6018C14.1662 27.8008 13.8432 27.8008 13.6442 27.6018L1.79501 15.7522L1.7938 15.751L0.399209 14.3564C0.200264 14.1575 0.200264 13.8344 0.399209 13.6355L13.6349 0.399427C13.8338 0.200476 14.1569 0.200476 14.3558 0.399427L15.7504 1.79406C15.9493 1.99301 15.9493 2.31606 15.7504 2.51501L5.64002 12.6256H27.4024C27.5943 12.6256 27.75 12.7814 27.75 12.9732V15.028C27.75 15.2198 27.5942 15.3757 27.4024 15.3757H5.63976Z" fill="white"/>
</svg>
