<svg width="24" height="23" viewBox="0 0 24 23" fill="none" xmlns="http://www.w3.org/2000/svg">
<path fill-rule="evenodd" clip-rule="evenodd" d="M20 20.9508H22V6.59468L12 2.04923L2 6.59468V20.9508H4V9.95078C4 9.39848 4.44772 8.95077 5 8.95077H19C19.5523 8.95077 20 9.39848 20 9.95078V20.9508ZM18 20.9508V10.9508H6V20.9508H18ZM1 22.9508C0.447715 22.9508 0 22.5031 0 21.9508V6.59468C0 5.8104 0.458406 5.09849 1.17239 4.77395L11.1724 0.228497C11.6982 -0.0105326 12.3018 -0.0105326 12.8276 0.228497L22.8276 4.77395C23.5416 5.09849 24 5.8104 24 6.59468V21.9508C24 22.5031 23.5523 22.9508 23 22.9508H1ZM6 12.9508H18V14.9508H6V12.9508ZM6 16.9508H18V18.9508H6V16.9508Z" fill="#627181"/>
</svg>
