<svg width="32" height="32" viewBox="0 0 32 32" fill="none" xmlns="http://www.w3.org/2000/svg">
<path fill-rule="evenodd" clip-rule="evenodd" d="M20.0214 4.96919V4.00262C20.0214 2.89737 20.9187 2.00006 22.0239 2.00006C23.1291 2.00006 24.0265 2.89737 24.0265 4.00262V4.96919H26.029C27.6869 4.96925 29.0328 6.31519 29.0328 7.973V25.9962C29.0328 27.6541 27.6868 29.0001 26.029 29.0001H6.00379C4.34596 29.0001 3 27.6541 3 25.9962V7.973C3 6.31519 4.34584 4.96925 6.00379 4.96919H8.0063V4.00262C8.0063 2.89737 8.90359 2.00006 10.0088 2.00006C11.114 2.00006 12.0113 2.89737 12.0113 4.00262V4.96919H20.0214ZM5.00251 7.9805V25.9888C5.00251 26.5455 5.4545 26.9975 6.01123 26.9975H26.0215C26.5782 26.9975 27.0302 26.5455 27.0302 25.9888V10.9769H5.00251V7.9805ZM23.5258 19.9885C23.8022 19.9885 24.0265 20.2128 24.0265 20.4891V23.493C24.0265 23.7693 23.8022 23.9936 23.5258 23.9936H20.5221C20.2458 23.9936 20.0214 23.7693 20.0214 23.493V20.4891C20.0214 20.2128 20.2457 19.9885 20.5221 19.9885H23.5258ZM11.5107 19.9885C11.787 19.9885 12.0113 20.2128 12.0113 20.4891V23.493C12.0113 23.7693 11.787 23.9936 11.5107 23.9936H8.50691C8.23061 23.9936 8.0063 23.7693 8.0063 23.493V20.4891C8.0063 20.2128 8.23061 19.9885 8.50691 19.9885H11.5107ZM17.5183 19.9885C17.7946 19.9885 18.0189 20.2128 18.0189 20.4891V23.493C18.0189 23.7693 17.7946 23.9936 17.5183 23.9936H14.5145C14.2382 23.9936 14.0139 23.7693 14.0139 23.493V20.4891C14.0139 20.2128 14.2382 19.9885 14.5145 19.9885H17.5183ZM17.5183 13.9807C17.7946 13.9807 18.0189 14.2051 18.0189 14.4814V17.4853C18.0189 17.7616 17.7946 17.9859 17.5183 17.9859H14.5145C14.2382 17.9859 14.0139 17.7616 14.0139 17.4853V14.4814C14.0139 14.2051 14.2382 13.9807 14.5145 13.9807H17.5183ZM23.5258 13.9807C23.8022 13.9807 24.0265 14.2051 24.0265 14.4814V17.4853C24.0265 17.7616 23.8022 17.9859 23.5258 17.9859H20.5221C20.2458 17.9859 20.0214 17.7616 20.0214 17.4853V14.4814C20.0214 14.2051 20.2457 13.9807 20.5221 13.9807H23.5258ZM11.5107 13.9807C11.787 13.9807 12.0113 14.2051 12.0113 14.4814V17.4853C12.0113 17.7616 11.787 17.9859 11.5107 17.9859H8.50691C8.23061 17.9859 8.0063 17.7616 8.0063 17.4853V14.4814C8.0063 14.2051 8.23061 13.9807 8.50691 13.9807H11.5107ZM6.01123 6.97175H26.0215H6.01123Z" fill="#217AB5"/>
</svg>
