<?xml version="1.0" encoding="UTF-8" standalone="no"?>
<!DOCTYPE svg PUBLIC "-//W3C//DTD SVG 1.1//EN" "http://www.w3.org/Graphics/SVG/1.1/DTD/svg11.dtd">
<svg width="100%" height="100%" viewBox="0 0 512 512" version="1.1" xmlns="http://www.w3.org/2000/svg" xmlns:xlink="http://www.w3.org/1999/xlink" xml:space="preserve" xmlns:serif="http://www.serif.com/" style="fill-rule:evenodd;clip-rule:evenodd;stroke-linejoin:round;stroke-miterlimit:2;">
    <path d="M368,480L144.081,480C117.589,480 96.082,458.492 96.082,432L96.082,127.964C96.082,101.473 117.588,79.965 144.081,79.964L208.002,79.964C208.002,53.472 229.51,31.965 256.001,31.965C282.492,31.965 303.999,53.47 304.001,79.964L368,79.964C394.495,79.968 416,101.474 416,127.964L416,432C416,458.491 394.495,479.998 368,480ZM160.002,111.408L142.816,111.408C134.637,111.412 128.002,118.048 128.002,126.222L128.002,432.592C128.002,440.768 134.64,447.406 142.816,447.406L369.186,447.406C377.362,447.406 384,440.768 384,432.592L384,126.222C384,118.048 377.366,111.412 369.186,111.408L352.001,111.408L352.001,127.408C352.001,136.237 344.834,143.406 336.001,143.408L176.002,143.408C167.171,143.408 160.002,136.239 160.002,127.408L160.002,111.408ZM328.001,367.949C332.416,367.949 336.001,371.533 336.001,375.949L336.001,391.949C336.001,396.364 332.416,399.948 328.001,399.948L184.002,399.948C179.587,399.948 176.002,396.364 176.002,391.949L176.002,375.949C176.002,371.533 179.586,367.949 184.002,367.949L328.001,367.949ZM328.001,303.407C332.416,303.407 336.001,306.992 336.001,311.407L336.001,327.407C336.001,331.822 332.416,335.407 328.001,335.407L184.002,335.407C179.587,335.407 176.002,331.822 176.002,327.407L176.002,311.407C176.002,306.992 179.586,303.407 184.002,303.407L328.001,303.407ZM328.001,239.95C332.416,239.95 336.001,243.534 336.001,247.95L336.001,263.95C336.001,268.365 332.416,271.949 328.001,271.949L184.002,271.949C179.587,271.949 176.002,268.365 176.002,263.95L176.002,247.95C176.002,243.534 179.586,239.95 184.002,239.95L328.001,239.95ZM240.017,79.964C240.389,88.528 247.435,95.368 256.076,95.408C264.872,95.368 272.001,88.214 272.001,79.409C272.001,70.578 264.832,63.409 256.001,63.409C247.171,63.409 240.001,70.578 240.001,79.409C240.001,79.593 240.005,79.777 240.011,79.964L240.017,79.964Z" style="fill:rgb(98,113,129);"/>
</svg>
