<?xml version="1.0" encoding="UTF-8" standalone="no"?>
<!DOCTYPE svg PUBLIC "-//W3C//DTD SVG 1.1//EN" "http://www.w3.org/Graphics/SVG/1.1/DTD/svg11.dtd">
<svg width="100%" height="100%" viewBox="0 0 20 20" version="1.1" xmlns="http://www.w3.org/2000/svg" xmlns:xlink="http://www.w3.org/1999/xlink" xml:space="preserve" xmlns:serif="http://www.serif.com/" style="fill-rule:evenodd;clip-rule:evenodd;stroke-linejoin:round;stroke-miterlimit:2;">
    <g transform="matrix(0.0379512,0,0,0.0379512,0.283375,0.284044)">
        <path d="M287.67,479.984L224.274,479.984C210.819,479.984 199.896,469.061 199.896,455.606L199.896,422.906C192.286,420.35 184.907,417.289 177.8,413.762L154.479,437.083C145.044,446.519 129.723,446.519 120.287,437.083L75.008,391.804C65.572,382.368 65.572,367.047 75.008,357.612L98.219,334.401C94.661,327.282 91.571,319.889 88.989,312.263L56.177,312.263C42.833,312.263 32,301.429 32,288.085L32,224.05C32,210.707 42.833,199.874 56.177,199.873L88.803,199.873C91.39,192.144 94.498,184.654 98.087,177.442L75.194,154.55C65.68,145.036 65.68,129.588 75.194,120.074L120.022,75.246C129.536,65.732 144.984,65.732 154.498,75.246L177.313,98.06C184.57,94.431 192.112,91.287 199.896,88.674L199.896,56.418C199.896,42.964 210.819,32.041 224.274,32.04L287.67,32.04C301.126,32.041 312.049,42.964 312.049,56.418L312.049,88.674C319.815,91.282 327.341,94.417 334.583,98.036L357.6,75.02C367.035,65.584 382.356,65.584 391.792,75.02L437.071,120.299C446.507,129.735 446.507,145.056 437.071,154.491L413.945,177.617C417.495,184.772 420.574,192.201 423.142,199.873L455.823,199.873C469.171,199.878 480,210.709 480,224.05L480,288.085C480,301.426 469.171,312.258 455.823,312.263L422.955,312.263C420.366,319.911 417.269,327.318 413.702,334.449L436.767,357.514C446.281,367.028 446.281,382.476 436.767,391.99L391.939,436.818C382.425,446.332 366.976,446.332 357.462,436.818L334.32,413.675C327.158,417.239 319.721,420.33 312.049,422.906L312.049,455.606C312.049,469.058 301.13,479.98 287.67,479.984ZM268.448,63.527L244.432,63.527C243.499,63.528 242.593,63.634 241.722,63.835C240.672,64.078 239.675,64.458 238.751,64.956C237.544,65.606 236.461,66.457 235.545,67.463L235.354,67.679C234.528,68.632 233.85,69.717 233.355,70.897L233.258,71.134L233.194,71.301C232.993,71.834 232.828,72.386 232.704,72.954C232.637,73.255 232.582,73.562 232.54,73.871C232.463,74.416 232.424,74.971 232.424,75.535L232.424,113.752C229.718,114.197 227.037,114.718 224.386,115.312C222.638,115.703 220.903,116.126 219.18,116.58C218.258,116.823 217.339,117.075 216.425,117.336C212.533,118.445 208.708,119.713 204.959,121.134C201.683,122.375 198.463,123.732 195.306,125.199L194.39,125.629L193.718,125.95L193.478,126.065L193.303,126.15C190.329,127.588 187.412,129.126 184.557,130.759L183.685,131.261C182.515,131.941 181.355,132.637 180.205,133.349L179.385,133.861L178.546,134.392C176.851,135.474 175.179,136.591 173.533,137.741L172.713,138.318L145.809,111.413L145.777,111.382C144.319,109.934 142.58,108.937 140.737,108.392C140.469,108.313 140.198,108.243 139.927,108.183C139.728,108.139 139.528,108.1 139.327,108.066C138.795,107.977 138.258,107.923 137.719,107.906L137.606,107.901L137.318,107.898L137.03,107.901C135.685,107.934 134.346,108.19 133.07,108.67C132.797,108.773 132.527,108.887 132.261,109.01C131.816,109.216 131.382,109.451 130.961,109.714C130.793,109.819 130.626,109.929 130.462,110.043C130.265,110.18 130.071,110.324 129.882,110.475C129.517,110.762 129.164,111.075 128.827,111.413L111.845,128.395C111.749,128.49 111.655,128.588 111.565,128.686L111.419,128.842L111.4,128.864C111.201,129.085 111.012,129.312 110.832,129.544L110.651,129.785L110.532,129.951C110.376,130.171 110.228,130.395 110.089,130.622C109.889,130.949 109.706,131.284 109.539,131.626L109.442,131.828L109.33,132.079C109.189,132.402 109.063,132.73 108.953,133.062L108.91,133.188L108.897,133.232C108.725,133.772 108.592,134.321 108.499,134.876C108.253,136.33 108.276,137.82 108.568,139.267C108.688,139.863 108.853,140.452 109.064,141.028L109.13,141.203C109.191,141.361 109.255,141.518 109.322,141.675L109.442,141.943C109.682,142.46 109.961,142.963 110.278,143.448C110.615,143.964 110.995,144.459 111.419,144.929L111.629,145.155C111.7,145.229 111.772,145.303 111.845,145.376L138.667,172.199C137.765,173.459 136.882,174.734 136.02,176.025C134.265,178.648 132.595,181.332 131.011,184.073L130.525,184.922L130.272,185.37C129.781,186.241 129.299,187.118 128.826,187.999C126.708,191.944 124.769,195.999 123.02,200.152C122.815,200.64 122.612,201.13 122.411,201.622C121.776,203.177 121.167,204.747 120.585,206.329L120.329,207.031L120.239,207.282C119.963,208.048 119.694,208.817 119.431,209.589C118.359,212.738 117.392,215.937 116.536,219.181C116.272,220.18 116.019,221.184 115.777,222.191C115.628,222.809 115.483,223.429 115.342,224.05C115.206,224.647 115.075,225.245 114.946,225.844L114.733,226.862C114.383,228.56 114.064,230.269 113.774,231.992L75.968,231.992L75.658,231.996L75.655,231.996C75.123,232.01 74.598,232.058 74.086,232.14C73.776,232.188 73.47,232.249 73.167,232.322C72.243,232.543 71.36,232.871 70.533,233.292C70.177,233.473 69.831,233.671 69.497,233.885C69.335,233.989 69.175,234.097 69.018,234.209C68.906,234.289 68.795,234.371 68.686,234.455C68.428,234.652 68.178,234.86 67.935,235.078C67.302,235.648 66.73,236.285 66.23,236.977L66.176,237.051L66.012,237.288C65.948,237.382 65.886,237.477 65.826,237.573L65.699,237.776L65.551,238.025C65.407,238.276 65.271,238.533 65.144,238.796L65.021,239.06C64.78,239.593 64.577,240.145 64.415,240.715C64.119,241.759 63.96,242.861 63.96,244L63.96,268.016C63.96,269.362 64.182,270.657 64.591,271.865C64.642,272.016 64.696,272.167 64.754,272.314L64.864,272.591C65.122,273.216 65.432,273.815 65.787,274.381L65.918,274.586C66.119,274.892 66.334,275.189 66.561,275.476C67.148,276.215 67.82,276.883 68.562,277.466C68.721,277.591 68.882,277.711 69.048,277.828C70.139,278.599 71.364,279.193 72.682,279.568C73.631,279.838 74.629,279.994 75.658,280.02L75.968,280.024L113.766,280.024C114.025,281.564 114.307,283.095 114.615,284.618C115.816,290.579 117.384,296.406 119.296,302.077C119.489,302.649 119.685,303.219 119.885,303.788C121.229,307.612 122.729,311.363 124.378,315.031L124.534,315.379L124.794,315.947C127.482,321.82 130.554,327.481 133.977,332.897C134.438,333.628 134.906,334.354 135.381,335.075L135.79,335.696L136.292,336.446C137.061,337.588 137.847,338.719 138.647,339.837L111.845,366.64C111.319,367.165 110.853,367.728 110.445,368.32L110.307,368.523L110.146,368.774C110.076,368.886 110.008,368.999 109.943,369.113C109.757,369.434 109.587,369.762 109.433,370.095C108.954,371.133 108.631,372.226 108.465,373.337C108.423,373.613 108.391,373.89 108.37,374.167C108.276,375.33 108.352,376.505 108.596,377.649C108.799,378.602 109.119,379.535 109.556,380.424C109.656,380.629 109.762,380.831 109.875,381.03C110.343,381.86 110.917,382.645 111.598,383.367C111.678,383.452 111.761,383.537 111.845,383.622L128.827,400.603C129.339,401.116 129.887,401.573 130.462,401.973L130.71,402.141C131.021,402.346 131.339,402.536 131.664,402.708C132.208,402.998 132.77,403.244 133.344,403.445L133.62,403.538L133.898,403.624L134.043,403.665C134.181,403.704 134.319,403.74 134.458,403.775L134.74,403.84C135.306,403.963 135.878,404.046 136.454,404.087L136.742,404.104L136.817,404.107C136.984,404.114 137.151,404.117 137.318,404.118L137.606,404.115C137.702,404.112 137.799,404.109 137.894,404.104C138.086,404.095 138.278,404.081 138.469,404.063C139.713,403.944 140.942,403.632 142.107,403.126C143.205,402.65 144.245,402.002 145.187,401.182C145.399,400.999 145.607,400.805 145.809,400.603L172.686,373.726L173.505,374.304L174.088,374.708C174.679,375.117 175.274,375.522 175.871,375.922C179.054,378.054 182.327,380.063 185.683,381.941C187.714,383.079 189.776,384.168 191.867,385.209C192.624,385.586 193.384,385.956 194.149,386.319C194.597,386.533 195.048,386.744 195.499,386.953C197.939,388.083 200.415,389.147 202.928,390.143L203.684,390.441L204.461,390.74C204.987,390.942 205.515,391.14 206.044,391.335L206.542,391.52L207.329,391.804C207.764,391.96 208.2,392.114 208.636,392.266C212.181,393.499 215.79,394.598 219.456,395.556L220.244,395.76L221.245,396.012C221.804,396.15 222.364,396.285 222.926,396.416L223.254,396.494L223.777,396.613C225.652,397.042 227.543,397.435 229.447,397.789L230.369,397.958L230.936,398.058C231.432,398.146 231.928,398.23 232.424,398.312L232.424,436.481C232.424,436.683 232.429,436.884 232.439,437.083C232.461,437.511 232.504,437.933 232.569,438.348C232.676,439.029 232.84,439.692 233.056,440.33L233.154,440.608C233.371,441.2 233.633,441.771 233.938,442.315L234.016,442.456L234.164,442.705L234.283,442.895C234.415,443.104 234.554,443.309 234.698,443.508L234.811,443.663L234.986,443.891C235.283,444.269 235.603,444.629 235.942,444.969C236.251,445.278 236.577,445.57 236.918,445.844L237.021,445.926L237.25,446.102C237.481,446.275 237.719,446.44 237.962,446.596C238.1,446.684 238.239,446.77 238.381,446.852C238.882,447.145 239.405,447.403 239.949,447.621C240.699,447.925 241.487,448.154 242.305,448.3C242.896,448.406 243.503,448.469 244.12,448.485C244.224,448.487 244.328,448.489 244.432,448.489L268.448,448.489C274.353,448.487 279.265,444.219 280.269,438.605L280.269,438.599L280.318,438.308L280.326,438.252L280.36,438.009L280.371,437.911L280.394,437.708L280.406,437.575L280.421,437.404L280.431,437.241L280.441,437.098L280.448,436.9L280.452,436.79C280.455,436.687 280.456,436.584 280.456,436.481L280.456,398.154C283.228,397.679 285.973,397.125 288.689,396.494C290.032,396.182 291.367,395.851 292.696,395.502C293.604,395.263 294.509,395.015 295.41,394.759C297.091,394.282 298.759,393.775 300.415,393.238L301.383,392.921C304.227,391.976 307.032,390.946 309.794,389.832C310.226,389.658 310.658,389.482 311.088,389.303L311.413,389.168C313.352,388.359 315.269,387.509 317.163,386.619C317.63,386.399 318.095,386.178 318.56,385.953C321.45,384.557 324.287,383.067 327.067,381.487C327.473,381.256 327.879,381.024 328.281,380.789L328.907,380.424L329.649,379.984C330.55,379.448 331.444,378.901 332.332,378.346L333.178,377.812C333.828,377.399 334.474,376.981 335.117,376.557C336.113,375.902 337.1,375.234 338.078,374.554C338.658,374.153 339.233,373.747 339.805,373.337L367.072,400.603C368.17,401.701 369.429,402.542 370.773,403.126C371.311,403.359 371.862,403.552 372.423,403.703C372.76,403.794 373.101,403.87 373.445,403.93C373.735,403.982 374.028,404.023 374.321,404.053L374.412,404.063L374.699,404.087C374.987,404.108 375.275,404.118 375.563,404.118L375.851,404.115C377.609,404.073 379.359,403.648 380.965,402.838C381.729,402.454 382.459,401.984 383.142,401.427C383.377,401.235 383.608,401.033 383.832,400.82C383.907,400.748 383.981,400.676 384.054,400.603L401.036,383.622C401.109,383.548 401.181,383.475 401.252,383.4C401.919,382.698 402.486,381.934 402.95,381.127C403.058,380.94 403.161,380.75 403.258,380.557C403.354,380.368 403.445,380.177 403.529,379.984C403.618,379.784 403.701,379.582 403.778,379.378L403.878,379.104L403.955,378.874C403.99,378.766 404.023,378.659 404.056,378.55L404.135,378.271C404.518,376.849 404.636,375.371 404.488,373.916C404.32,372.244 403.802,370.602 402.935,369.108C402.791,368.86 402.638,368.616 402.474,368.377L402.405,368.275L402.317,368.151C402.171,367.947 402.019,367.747 401.859,367.551C401.73,367.392 401.595,367.236 401.456,367.082C401.32,366.931 401.18,366.784 401.036,366.64L373.686,339.291L374.259,338.477L374.47,338.173L374.827,337.658L375.113,337.24L375.389,336.836L375.751,336.298L375.945,336.01L376.4,335.324L376.496,335.18C387.273,318.811 394.806,300.121 398.178,280.024L436.913,280.024C442.817,280.022 447.729,275.755 448.733,270.14L448.734,270.134L448.783,269.844L448.783,269.843L448.79,269.787L448.824,269.544L448.836,269.446L448.859,269.243L448.871,269.11L448.886,268.939L448.896,268.776L448.905,268.634L448.905,268.633L448.913,268.435L448.917,268.326C448.92,268.222 448.921,268.119 448.921,268.016L448.921,244C448.921,243.897 448.92,243.794 448.917,243.69L448.913,243.581L448.905,243.383L448.896,243.24L448.886,243.077L448.871,242.906L448.859,242.773L448.836,242.57L448.824,242.472L448.79,242.229L448.783,242.173L448.783,242.172L448.734,241.882L448.733,241.876C447.73,236.262 442.818,231.994 436.913,231.992L398.17,231.992L397.995,230.972C394.537,211.271 387.074,192.941 376.476,176.855L376.38,176.71L375.926,176.025L375.731,175.736L375.369,175.199L375.093,174.796L374.807,174.377L374.45,173.862L374.24,173.559C374.049,173.287 373.859,173.016 373.667,172.745L401.036,145.376C402.519,143.893 403.533,142.116 404.077,140.231C404.407,139.089 404.564,137.907 404.548,136.727C404.547,136.587 404.542,136.448 404.537,136.309L404.519,136.022C404.511,135.9 404.5,135.778 404.487,135.656L404.464,135.447L404.448,135.32C404.322,134.358 404.081,133.409 403.722,132.496C403.138,131.001 402.242,129.601 401.036,128.395L384.054,111.413C383.834,111.193 383.608,110.983 383.376,110.785L383.142,110.589C382.906,110.397 382.665,110.214 382.419,110.043C382.254,109.928 382.087,109.818 381.92,109.714C381.077,109.187 380.183,108.775 379.26,108.478C378.799,108.329 378.331,108.209 377.857,108.118L377.572,108.066L377.524,108.059C377.318,108.025 377.112,107.996 376.904,107.973C376.741,107.955 376.578,107.94 376.416,107.928C376.132,107.908 375.848,107.898 375.563,107.898C375.371,107.898 375.178,107.903 374.987,107.912C374.699,107.926 374.411,107.95 374.125,107.984L373.839,108.022C373.295,108.1 372.756,108.216 372.225,108.369C371.686,108.524 371.155,108.718 370.636,108.952L370.506,109.01L370.463,109.031C370.3,109.107 370.138,109.187 369.978,109.271L369.718,109.412C369.632,109.46 369.546,109.509 369.46,109.559L369.206,109.714L369.173,109.735C368.659,110.058 368.164,110.425 367.693,110.834C367.48,111.018 367.273,111.211 367.072,111.413L339.778,138.707C333.893,134.494 327.678,130.712 321.18,127.409C316.682,125.122 312.049,123.064 307.295,121.251C305.767,120.668 304.227,120.111 302.676,119.58C299.077,118.346 295.414,117.252 291.692,116.302C289.98,115.865 288.255,115.458 286.518,115.083L285.543,114.876L285.492,114.865C284.498,114.658 283.5,114.461 282.499,114.274C281.819,114.148 281.139,114.026 280.456,113.909L280.456,75.535C280.456,75.084 280.431,74.639 280.382,74.201C280.278,73.258 280.064,72.347 279.753,71.483L279.727,71.408L279.641,71.183C279.508,70.841 279.36,70.507 279.197,70.182C278.913,69.613 278.585,69.07 278.218,68.556L278.069,68.353L277.905,68.138C277.72,67.903 277.528,67.675 277.328,67.455C275.196,65.114 272.151,63.618 268.758,63.531L268.448,63.527ZM255.972,175.653C300.186,175.653 336.081,211.548 336.081,255.762C336.081,299.975 300.186,335.871 255.972,335.871C211.759,335.871 175.863,299.975 175.863,255.762C175.863,211.548 211.759,175.653 255.972,175.653ZM255.972,207.947C229.444,207.947 207.907,229.484 207.907,256.012C207.907,282.54 229.444,304.078 255.972,304.078L256.283,304.077C282.668,303.909 304.038,282.437 304.038,256.012C304.038,229.588 282.668,208.115 256.283,207.948L255.972,207.947Z" style="fill:rgb(98,113,129);"/>
    </g>
</svg>
