<svg width="19" height="19" viewBox="0 0 19 19" fill="none" xmlns="http://www.w3.org/2000/svg">
<path d="M6.03844 5.74185H4.65381V7.12648H6.03844V5.74185Z" fill="#627181"/>
<path d="M6.03844 8.51111H4.65381V9.89574H6.03844V8.51111Z" fill="#627181"/>
<path d="M6.03844 11.2804H4.65381V12.665H6.03844V11.2804Z" fill="#627181"/>
<path d="M8.80797 5.74185H7.42334V7.12648H8.80797V5.74185Z" fill="#627181"/>
<path d="M8.80797 8.51111H7.42334V9.89574H8.80797V8.51111Z" fill="#627181"/>
<path d="M8.80797 11.2804H7.42334V12.665H8.80797V11.2804Z" fill="#627181"/>
<path d="M11.577 5.74185H10.1924V7.12648H11.577V5.74185Z" fill="#627181"/>
<path d="M11.577 8.51111H10.1924V9.89574H11.577V8.51111Z" fill="#627181"/>
<path d="M11.577 11.2804H10.1924V12.665H11.577V11.2804Z" fill="#627181"/>
<path d="M17.8078 16.8189H17.1155V5.04955C17.1155 4.92097 17.0798 4.79494 17.0122 4.68556C16.9446 4.57618 16.8479 4.48778 16.7329 4.43027L14.3463 3.23693V0.895664C14.3463 0.790488 14.3223 0.6867 14.2761 0.59218C14.23 0.497659 14.1629 0.414892 14.0801 0.35016C13.9972 0.285429 13.9006 0.240435 13.7977 0.218596C13.6948 0.196757 13.5883 0.198646 13.4863 0.224119L2.40926 2.99337C2.25945 3.03077 2.12644 3.11718 2.03138 3.23886C1.93632 3.36054 1.88466 3.51051 1.88463 3.66492V14.7419C1.88463 14.9256 1.95757 15.1016 2.0874 15.2315C2.21724 15.3613 2.39333 15.4343 2.57694 15.4343C2.76055 15.4343 2.93665 15.3613 3.06648 15.2315C3.19632 15.1016 3.26926 14.9256 3.26926 14.7419V4.20548L12.9616 1.78238V16.8189H10.1924V14.7419C10.1924 14.5583 10.1195 14.3822 9.98962 14.2524C9.85979 14.1226 9.68369 14.0496 9.50008 14.0496H6.73082C6.54721 14.0496 6.37112 14.1226 6.24128 14.2524C6.11145 14.3822 6.03851 14.5583 6.03851 14.7419V16.8189H1.19231C1.0087 16.8189 0.832608 16.8918 0.702774 17.0217C0.57294 17.1515 0.5 17.3276 0.5 17.5112C0.5 17.6948 0.57294 17.8709 0.702774 18.0007C0.832608 18.1306 1.0087 18.2035 1.19231 18.2035H17.8078C17.9915 18.2035 18.1676 18.1306 18.2974 18.0007C18.4272 17.8709 18.5002 17.6948 18.5002 17.5112C18.5002 17.3276 18.4272 17.1515 18.2974 17.0217C18.1676 16.8918 17.9915 16.8189 17.8078 16.8189ZM14.3463 4.78522L15.7309 5.47753V16.8189H14.3463V4.78522ZM7.42314 15.4343H8.80777V16.8189H7.42314V15.4343Z" fill="#627181"/>
</svg>
