<svg width="19" height="18" viewBox="0 0 19 18" fill="none" xmlns="http://www.w3.org/2000/svg">
<path d="M6.0385 5.53842H4.65387V6.92305H6.0385V5.53842Z" fill="#48525F"/>
<path d="M6.0385 8.30768H4.65387V9.69231H6.0385V8.30768Z" fill="#48525F"/>
<path d="M6.0385 11.0769H4.65387V12.4616H6.0385V11.0769Z" fill="#48525F"/>
<path d="M8.80775 5.53842H7.42313V6.92305H8.80775V5.53842Z" fill="#48525F"/>
<path d="M8.80775 8.30768H7.42313V9.69231H8.80775V8.30768Z" fill="#48525F"/>
<path d="M8.80775 11.0769H7.42313V12.4616H8.80775V11.0769Z" fill="#48525F"/>
<path d="M11.577 5.53842H10.1924V6.92305H11.577V5.53842Z" fill="#48525F"/>
<path d="M11.577 8.30768H10.1924V9.69231H11.577V8.30768Z" fill="#48525F"/>
<path d="M11.577 11.0769H10.1924V12.4616H11.577V11.0769Z" fill="#48525F"/>
<path d="M17.8078 16.6154H17.1155V4.84612C17.1155 4.71754 17.0798 4.59151 17.0122 4.48213C16.9446 4.37275 16.8479 4.28435 16.7329 4.22684L14.3463 3.0335V0.692233C14.3463 0.587058 14.3223 0.48327 14.2761 0.388749C14.23 0.294229 14.1629 0.211461 14.0801 0.14673C13.9972 0.0819986 13.9006 0.0370053 13.7977 0.0151659C13.6948 -0.00667339 13.5883 -0.00478455 13.4863 0.020689L2.40926 2.78994C2.25945 2.82734 2.12644 2.91375 2.03138 3.03543C1.93632 3.15711 1.88466 3.30708 1.88463 3.46149V14.5385C1.88463 14.7221 1.95757 14.8982 2.0874 15.028C2.21724 15.1579 2.39333 15.2308 2.57694 15.2308C2.76055 15.2308 2.93665 15.1579 3.06648 15.028C3.19632 14.8982 3.26926 14.7221 3.26926 14.5385V4.00205L12.9616 1.57895V16.6154H10.1924V14.5385C10.1924 14.3549 10.1195 14.1788 9.98962 14.049C9.85979 13.9191 9.68369 13.8462 9.50008 13.8462H6.73082C6.54721 13.8462 6.37112 13.9191 6.24128 14.049C6.11145 14.1788 6.03851 14.3549 6.03851 14.5385V16.6154H1.19231C1.0087 16.6154 0.832608 16.6884 0.702774 16.8182C0.57294 16.9481 0.5 17.1241 0.5 17.3078C0.5 17.4914 0.57294 17.6675 0.702774 17.7973C0.832608 17.9271 1.0087 18.0001 1.19231 18.0001H17.8078C17.9915 18.0001 18.1676 17.9271 18.2974 17.7973C18.4272 17.6675 18.5002 17.4914 18.5002 17.3078C18.5002 17.1241 18.4272 16.9481 18.2974 16.8182C18.1676 16.6884 17.9915 16.6154 17.8078 16.6154ZM14.3463 4.58179L15.7309 5.2741V16.6154H14.3463V4.58179ZM7.42314 15.2308H8.80777V16.6154H7.42314V15.2308Z" fill="#48525F"/>
</svg>
