<?xml version="1.0" encoding="UTF-8" standalone="no"?>
<!DOCTYPE svg PUBLIC "-//W3C//DTD SVG 1.1//EN" "http://www.w3.org/Graphics/SVG/1.1/DTD/svg11.dtd">
<svg width="100%" height="100%" viewBox="0 0 250 208" version="1.1" xmlns="http://www.w3.org/2000/svg" xmlns:xlink="http://www.w3.org/1999/xlink" xml:space="preserve" xmlns:serif="http://www.serif.com/" style="fill-rule:evenodd;clip-rule:evenodd;stroke-linejoin:round;stroke-miterlimit:2;">
    <g transform="matrix(2.31579,0,0,2.31579,9.21053,-11.7895)">
        <g>
            <g>
                <path d="M49.3,57.8C50.8,57.8 52,56.6 52,55.1C52,53.6 50.8,52.4 49.3,52.4L43.7,52.4L43.7,48.4C43.7,46.9 42.5,45.8 41.1,45.8L38.5,45.8C31.5,45.8 25.7,50.8 24.5,57.5L18.3,57.5C16.8,57.5 15.6,58.7 15.6,60.2C15.6,61.7 16.8,62.9 18.3,62.9L24.5,62.9C25.8,69.5 31.6,74.5 38.5,74.5L41,74.5C42.5,74.5 43.6,73.3 43.6,71.9L43.6,67.9L49.2,67.9C50.7,67.9 51.9,66.7 51.9,65.2C51.9,63.7 50.7,62.5 49.2,62.5L43.6,62.5L43.6,57.8L49.3,57.8ZM38.4,69.2C33.5,69.2 29.4,65.1 29.4,60.2C29.4,55.3 33.4,51.2 38.4,51.2L38.4,69.2Z" style="fill:white;fill-rule:nonzero;"/>
                <path d="M81.9,57.5L75.6,57.5C74.4,50.9 68.5,45.8 61.6,45.8L59,45.8C57.5,45.8 56.4,47 56.4,48.4L56.4,71.7C56.4,73.2 57.6,74.3 59,74.3L61.6,74.3C68.6,74.3 74.4,69.3 75.6,62.6L81.9,62.6C83.4,62.6 84.5,61.4 84.5,60C84.5,58.7 83.3,57.5 81.9,57.5ZM61.6,69.2L61.6,51.2C66.5,51.2 70.6,55.3 70.6,60.2C70.6,65.1 66.6,69.1 61.6,69.2Z" style="fill:white;fill-rule:nonzero;"/>
                <path d="M87.9,11.4L12.1,11.4C6.8,11.4 2.5,15.7 2.5,21L2.5,79C2.5,84.3 6.8,88.6 12.1,88.6L87.9,88.6C93.2,88.6 97.5,84.3 97.5,79L97.5,21C97.5,15.7 93.2,11.4 87.9,11.4ZM12.1,17.3L87.9,17.3C89.9,17.3 91.5,18.9 91.5,20.9L91.5,31.6L8.5,31.6L8.5,21C8.5,19 10.1,17.3 12.1,17.3ZM87.9,82.7L12.1,82.7C10.1,82.7 8.5,81.1 8.5,79.1L8.5,37.6L91.6,37.6L91.6,79C91.5,81 89.9,82.7 87.9,82.7Z" style="fill:white;fill-rule:nonzero;"/>
                <circle cx="16.7" cy="24.5" r="3.4" style="fill:white;"/>
                <circle cx="26.7" cy="24.5" r="3.4" style="fill:white;"/>
                <circle cx="36.8" cy="24.5" r="3.4" style="fill:white;"/>
                <path d="M66.9,27L81.8,27C83.2,27 84.3,25.9 84.3,24.5C84.3,23.1 83.2,22 81.8,22L66.9,22C65.5,22 64.4,23.1 64.4,24.5C64.4,25.9 65.5,27 66.9,27Z" style="fill:white;fill-rule:nonzero;"/>
            </g>
        </g>
    </g>
</svg>
