<svg width="26" height="26" viewBox="0 0 26 26" fill="none" xmlns="http://www.w3.org/2000/svg">
<g clip-path="url(#clip0_423_2396)">
<path fill-rule="evenodd" clip-rule="evenodd" d="M18.5754 18.3033C21.5043 15.3744 21.5043 10.6256 18.5754 7.6967C15.6464 4.76777 10.8977 4.76777 7.96877 7.6967C5.03983 10.6256 5.03983 15.3744 7.96877 18.3033C10.8977 21.2322 15.6464 21.2322 18.5754 18.3033ZM13.2721 9.06802C13.6863 9.06802 14.0221 9.40381 14.0221 9.81802V12.25L16.454 12.25C16.8683 12.25 17.204 12.5858 17.204 13C17.204 13.4142 16.8683 13.75 16.454 13.75L14.0221 13.75L14.0221 16.182C14.0221 16.5962 13.6863 16.932 13.2721 16.932C12.8579 16.932 12.5221 16.5962 12.5221 16.182L12.5221 13.75H10.0901C9.67587 13.75 9.34009 13.4142 9.34009 13C9.34009 12.5858 9.67587 12.25 10.0901 12.25L12.5221 12.25V9.81802C12.5221 9.40381 12.8579 9.06802 13.2721 9.06802Z" fill="white"/>
</g>
<defs>
<clipPath id="clip0_423_2396">
<rect width="18" height="18" fill="white" transform="translate(0.544159 13) rotate(-45)"/>
</clipPath>
</defs>
</svg>
