<svg width="24" height="25" viewBox="0 0 24 25" fill="none" xmlns="http://www.w3.org/2000/svg">
<path fill-rule="evenodd" clip-rule="evenodd" d="M3.09378 15.0093H1.57986C1.57986 15.0093 1.59491 14.5941 1.59195 14.2848C1.58975 13.5892 1.56449 12.8979 1.59425 12.1975C1.59425 12.1975 1.583 11.9246 1.62477 11.6829C1.70267 11.2319 1.9243 10.8091 2.24647 10.4848L4.41599 8.31524C4.42559 8.30427 4.43535 8.29335 4.4451 8.28247C4.86111 7.82661 5.46411 7.55385 6.08638 7.54738C6.45472 7.54611 7.61441 7.54443 8.28299 7.54354V6.04616C8.28299 4.78813 9.30435 3.76677 10.5624 3.76672H20.2206C21.4787 3.76677 22.5 4.78813 22.5 6.04616V14.2273C22.5 15.4761 21.4936 16.4917 20.2477 16.5066L20.2478 16.5233C20.2478 18.1754 18.9065 19.5167 17.2543 19.5167C15.6022 19.5167 14.2609 18.1754 14.2609 16.5233L14.2609 16.5067H11.053L9.0223 16.516V16.5233C9.0223 18.1754 7.68102 19.5167 6.02886 19.5167C4.3767 19.5167 3.03538 18.1754 3.03538 16.5233H1.19038C0.987548 16.5233 0.822876 16.3586 0.822876 16.1557V15.3768C0.822876 15.174 0.987548 15.0093 1.19038 15.0093H3.44647H3.09378L3.44652 15.0092C3.96683 14.1243 4.92894 13.5298 6.02886 13.5298C6.9261 13.5298 7.73164 13.9254 8.28045 14.5515C8.28191 14.4313 8.28299 14.3118 8.28299 14.2273V9.05811C7.88919 9.0584 6.54608 9.05924 6.10475 9.05924C5.89813 9.05994 5.69591 9.15088 5.5588 9.3051L5.51989 9.34949C4.78147 10.0879 4.03053 10.8141 3.30472 11.5649C3.167 11.7093 3.09528 11.9084 3.10508 12.1092C3.10508 12.1092 3.10475 12.2 3.10381 12.2956C3.10166 12.9587 3.09345 13.6219 3.10395 14.2849C3.10855 14.4931 3.09434 14.9899 3.09378 15.0093V15.0093ZM17.2543 15.0265C16.4283 15.0265 15.7576 15.6972 15.7576 16.5233C15.7576 17.3493 16.4283 18.02 17.2543 18.02L17.264 18.02C18.0856 18.0148 18.7511 17.3461 18.7511 16.5233C18.7511 15.7004 18.0856 15.0318 17.264 15.0266L17.2543 15.0265ZM6.02886 15.0265C5.20278 15.0265 4.53214 15.6972 4.53214 16.5233C4.53214 17.3493 5.20278 18.02 6.02886 18.02L6.03852 18.02C6.86014 18.0148 7.52558 17.3461 7.52558 16.5233C7.52558 15.7004 6.86014 15.0318 6.03852 15.0266L6.02886 15.0265ZM20.2403 5.27999H10.5427C10.1207 5.28041 9.77877 5.62255 9.77877 6.04391V14.238C9.77877 14.6596 10.1211 15.002 10.5427 15.002H14.6763C15.1976 14.121 16.1574 13.5298 17.2543 13.5298C18.3512 13.5298 19.3111 14.121 19.8324 15.002H20.2403C20.662 15.002 21.0043 14.6596 21.0043 14.238V6.04391C21.0043 5.62255 20.6623 5.28041 20.2403 5.27999V5.27999Z" fill="white"/>
</svg>
