<svg width="20" height="21" viewBox="0 0 20 21" fill="none" xmlns="http://www.w3.org/2000/svg">
<path fill-rule="evenodd" clip-rule="evenodd" d="M11.8744 17.3757C11.8744 18.4102 11.0346 19.25 10.0001 19.25C8.96568 19.25 8.12582 18.4102 8.12582 17.3757C8.12582 16.3412 8.96568 15.5013 10.0001 15.5013C11.0346 15.5013 11.8744 16.3412 11.8744 17.3757ZM11.8744 10.4971C11.8744 11.5316 11.0346 12.3714 10.0001 12.3714C8.96568 12.3714 8.12582 11.5316 8.12582 10.4971C8.12582 9.46258 8.96568 8.6227 10.0001 8.6227C11.0346 8.6227 11.8744 9.46258 11.8744 10.4971V10.4971ZM11.8744 3.62441C11.8744 4.65891 11.0346 5.49875 10.0001 5.49875C8.96568 5.49875 8.12582 4.65891 8.12582 3.62441C8.12582 2.58992 8.96568 1.75004 10.0001 1.75004C11.0346 1.75004 11.8744 2.58992 11.8744 3.62441Z" fill="#48525F"/>
</svg>
