<?xml version="1.0" encoding="UTF-8" standalone="no"?>
<!DOCTYPE svg PUBLIC "-//W3C//DTD SVG 1.1//EN" "http://www.w3.org/Graphics/SVG/1.1/DTD/svg11.dtd">
<svg width="100%" height="100%" viewBox="0 0 576 512" version="1.1" xmlns="http://www.w3.org/2000/svg" xmlns:xlink="http://www.w3.org/1999/xlink" xml:space="preserve" xmlns:serif="http://www.serif.com/" style="fill-rule:evenodd;clip-rule:evenodd;stroke-linejoin:round;stroke-miterlimit:2;">
    <path d="M286.693,391.984L319.272,438.526C308.877,439.506 298.441,439.998 288,440C168.19,440 63.031,376.051 6.646,280.369C-2.204,265.351 -2.204,246.648 6.646,231.63C30.669,190.864 63.559,155.855 102.67,129.093L159.747,210.632C154.736,224.82 152,240.087 152,256C152,330.736 212.135,391.282 286.693,391.984ZM569.354,280.369C537.687,334.106 490.607,377.829 434.179,405.844L434.19,405.859L475.66,465.059C483.26,475.919 480.62,490.879 469.76,498.479L456.65,507.659C445.79,515.259 430.83,512.619 423.23,501.759L100.34,46.94C92.74,36.08 95.38,21.12 106.24,13.52L119.35,4.34C130.21,-3.26 145.17,-0.62 152.77,10.24L203.808,82.857C230.68,75.776 258.905,72 288,72C407.81,72 512.969,135.949 569.354,231.631C578.203,246.649 578.203,265.351 569.354,280.369ZM424,256C424,180.826 363.162,120 288,120C270.061,120 252.944,123.473 237.271,129.772L256.57,156.83C282.439,148.659 311.614,150.667 336.97,164.24L336.94,164.24C313.29,164.24 294.12,183.41 294.12,207.06C294.12,230.686 313.267,249.88 336.94,249.88C360.59,249.88 379.76,230.71 379.76,207.06L379.76,207.03C398.222,241.52 396.072,284.944 371.51,317.98L371.51,317.99L390.824,345.051C411.496,321.2 424,290.074 424,256ZM262.014,356.727L184.484,245.97C179.47,298.357 213.798,344.324 262.014,356.727Z" style="fill:rgb(98,113,129);fill-rule:nonzero;"/>
</svg>
