<?xml version="1.0" encoding="UTF-8" standalone="no"?>
<!DOCTYPE svg PUBLIC "-//W3C//DTD SVG 1.1//EN" "http://www.w3.org/Graphics/SVG/1.1/DTD/svg11.dtd">
<svg width="100%" height="100%" viewBox="0 0 576 512" version="1.1" xmlns="http://www.w3.org/2000/svg" xmlns:xlink="http://www.w3.org/1999/xlink" xml:space="preserve" xmlns:serif="http://www.serif.com/" style="fill-rule:evenodd;clip-rule:evenodd;stroke-linejoin:round;stroke-miterlimit:2;">
    <path d="M569.354,231.631C512.969,135.949 407.81,72 288,72C168.14,72 63.004,135.994 6.646,231.631C-2.204,246.649 -2.204,265.352 6.646,280.37C63.031,376.051 168.19,440 288,440C407.86,440 512.996,376.006 569.354,280.369C578.204,265.352 578.204,246.648 569.354,231.631ZM288,392C212.838,392 152,331.173 152,256C152,180.838 212.826,120 288,120C363.162,120 424,180.826 424,256C424,331.162 363.174,392 288,392ZM392,256C392,313.438 345.438,360 288,360C230.562,360 184,313.438 184,256C184,238.292 188.431,221.621 196.236,207.027L196.235,207.059C196.235,230.71 215.408,249.882 239.059,249.882C262.71,249.882 281.883,230.709 281.883,207.059C281.883,183.408 262.71,164.235 239.059,164.235L239.027,164.236C253.621,156.431 270.292,152 288,152C345.438,152 392,198.562 392,256Z" style="fill:rgb(98,113,129);fill-rule:nonzero;"/>
</svg>
