<?xml version="1.0" encoding="UTF-8" standalone="no"?>
<!DOCTYPE svg PUBLIC "-//W3C//DTD SVG 1.1//EN" "http://www.w3.org/Graphics/SVG/1.1/DTD/svg11.dtd">
<svg width="100%" height="100%" viewBox="0 0 32 32" version="1.1" xmlns="http://www.w3.org/2000/svg" xmlns:xlink="http://www.w3.org/1999/xlink" xml:space="preserve" xmlns:serif="http://www.serif.com/" style="fill-rule:evenodd;clip-rule:evenodd;stroke-linejoin:round;stroke-miterlimit:2;">
    <g transform="matrix(0.0336538,0,0,0.0336538,-1.23077,-1.23077)">
        <path d="M640,288C604.888,287.991 576,259.096 576,223.984C576,188.866 604.898,159.968 640.016,159.968C640.021,159.968 640.027,159.968 640.032,159.968C675.144,159.977 704.032,188.872 704.032,223.984C704.032,259.102 675.134,288 640.016,288C640.011,288 640.005,288 640,288ZM763.456,192C749.152,136.96 699.456,96 640,96C580.544,96 530.848,136.96 516.544,192L128,192L128,256L516.544,256C530.848,311.04 580.544,352 640,352C699.456,352 749.152,311.04 763.456,256L896,256L896,192L763.456,192ZM640,864C604.888,863.991 576,835.096 576,799.984C576,764.866 604.898,735.968 640.016,735.968C640.021,735.968 640.027,735.968 640.032,735.968C675.144,735.977 704.032,764.872 704.032,799.984C704.032,835.102 675.134,864 640.016,864C640.011,864 640.005,864 640,864M640,672C580.544,672 530.848,712.96 516.544,768L128,768L128,832L516.544,832C530.848,887.04 580.544,928 640,928C699.456,928 749.152,887.04 763.456,832L896,832L896,768L763.456,768C749.152,712.96 699.456,672 640,672M384,576C348.888,575.991 320,547.096 320,511.984C320,476.866 348.898,447.968 384.016,447.968C384.021,447.968 384.027,447.968 384.032,447.968C419.144,447.977 448.032,476.872 448.032,511.984C448.032,547.102 419.134,576 384.016,576C384.011,576 384.005,576 384,576M384,384C324.544,384 274.848,424.96 260.544,480L128,480L128,544L260.544,544C274.848,599.04 324.544,640 384,640C443.456,640 493.152,599.04 507.456,544L896,544L896,480L507.456,480C493.152,424.96 443.456,384 384,384" style="fill:rgb(33,122,181);fill-rule:nonzero;"/>
    </g>
</svg>
