<?xml version="1.0" encoding="UTF-8" standalone="no"?>
<!DOCTYPE svg PUBLIC "-//W3C//DTD SVG 1.1//EN" "http://www.w3.org/Graphics/SVG/1.1/DTD/svg11.dtd">
<svg width="100%" height="100%" viewBox="0 0 32 32" version="1.1" xmlns="http://www.w3.org/2000/svg" xmlns:xlink="http://www.w3.org/1999/xlink" xml:space="preserve" xmlns:serif="http://www.serif.com/" style="fill-rule:evenodd;clip-rule:evenodd;stroke-linejoin:round;stroke-miterlimit:2;">
    <g transform="matrix(0.0546875,0,0,0.0546875,2,2)">
        <path d="M487.976,0L24.028,0C2.71,0 -8.047,25.866 7.058,40.971L192,225.941L192,432C192,439.831 195.821,447.17 202.237,451.662L282.237,507.642C298.02,518.69 320,507.493 320,487.98L320,225.941L504.947,40.971C520.021,25.896 509.338,0 487.976,0ZM457.629,36.571L294.138,200.083C287.281,206.941 283.429,216.242 283.429,225.941L283.429,463.84L228.571,425.454L228.571,225.941C228.571,216.243 224.719,206.941 217.862,200.083L54.375,36.571L457.629,36.571Z" style="fill:rgb(33,122,181);"/>
    </g>
</svg>
