<svg width="26" height="25" viewBox="0 0 26 25" fill="none" xmlns="http://www.w3.org/2000/svg">
<g clip-path="url(#clip0_186_13457)">
<path d="M25.2885 11.1065C25.1979 10.9886 25.0867 10.886 24.9814 10.78C21.8506 7.63661 18.7206 4.49253 15.5885 1.35045C13.8136 -0.429791 11.6722 -0.427792 9.89462 1.35512C7.50141 3.75565 5.10821 6.15685 2.71834 8.56072C1.80756 9.47682 0.906113 10.4023 0 11.3237V11.9233C0.775526 12.934 1.3605 12.1865 1.99078 11.5822C1.99078 14.9701 1.98945 18.2328 1.99078 21.4955C1.99145 23.0725 2.92555 24.0139 4.49459 24.0146C9.9839 24.0166 15.4732 24.0166 20.9632 24.0146C22.5649 24.0146 23.4916 23.0805 23.4923 21.4702C23.4943 18.3734 23.4923 15.2766 23.4923 12.1798V11.6688C23.5403 11.6482 23.5876 11.6275 23.6356 11.6069C23.8081 11.8081 23.9614 12.0319 24.1586 12.2045C24.503 12.5063 24.9328 12.4857 25.2366 12.1898C25.5404 11.8947 25.5644 11.4676 25.2872 11.1058L25.2885 11.1065ZM15.1288 22.3809H10.355C10.355 20.2669 10.347 18.1882 10.3603 16.1101C10.3637 15.5871 10.7254 15.2366 11.2498 15.2273C12.2439 15.21 13.2392 15.21 14.2333 15.2273C14.757 15.2366 15.1194 15.5871 15.1228 16.1101C15.1367 18.1882 15.1288 20.2669 15.1288 22.3809ZM21.8986 21.5888C21.8986 22.1171 21.6548 22.4056 21.1724 22.4103C19.714 22.4242 18.2555 22.4156 16.7244 22.4156C16.7244 21.4455 16.7244 20.5327 16.7244 19.6206C16.7244 18.4547 16.7358 17.2894 16.7204 16.1234C16.7018 14.7043 15.6324 13.6416 14.216 13.6256C13.2372 13.6143 12.2585 13.615 11.2798 13.6256C9.83932 13.6403 8.77197 14.711 8.76331 16.1627C8.75198 18.0443 8.76065 19.9264 8.75998 21.808C8.75998 21.9892 8.75998 22.1697 8.75998 22.4182C8.175 22.4182 7.61734 22.4182 7.06035 22.4182C6.19755 22.4182 5.33541 22.4222 4.4726 22.4169C3.83699 22.4129 3.58581 22.1731 3.58514 21.5521C3.58181 17.7884 3.58048 14.0247 3.59247 10.2617C3.59247 10.0878 3.68508 9.87058 3.80701 9.74666C6.28549 7.24219 8.76864 4.74238 11.2651 2.25523C12.1046 1.41908 13.3438 1.39043 14.1733 2.21393C16.6985 4.7184 19.2016 7.24552 21.7034 9.77331C21.8147 9.88591 21.8913 10.0884 21.892 10.249C21.9026 14.0294 21.9019 17.8097 21.898 21.5894L21.8986 21.5888Z" fill="white" stroke="white" stroke-width="0.2"/>
</g>
<defs>
<clipPath id="clip0_186_13457">
<rect width="25.4818" height="24" fill="white" transform="translate(0 0.0166016)"/>
</clipPath>
</defs>
</svg>
