<?xml version="1.0" encoding="UTF-8" standalone="no"?>
<!DOCTYPE svg PUBLIC "-//W3C//DTD SVG 1.1//EN" "http://www.w3.org/Graphics/SVG/1.1/DTD/svg11.dtd">
<svg width="100%" height="100%" viewBox="0 0 512 512" version="1.1" xmlns="http://www.w3.org/2000/svg" xmlns:xlink="http://www.w3.org/1999/xlink" xml:space="preserve" xmlns:serif="http://www.serif.com/" style="fill-rule:evenodd;clip-rule:evenodd;stroke-linejoin:round;stroke-miterlimit:2;">
    <path d="M96,128.005C90.667,128.002 85.333,128 80,128C70.191,127.938 61.804,117.484 64.607,107.622C66.471,101.067 72.836,96.134 79.793,96.001C104.855,95.842 129.916,95.717 154.978,95.626L208,32L304,32L357.022,95.626C382.084,95.717 407.145,95.842 432.207,96.001C442.436,96.196 450.862,107.799 446.889,117.864C444.577,123.725 438.588,127.877 432.207,127.999C426.804,128.033 421.402,128.064 416,128.092L416,142.01C416.308,239.438 416.308,336.869 415.999,434.297C415.775,457.878 395.467,479.76 370.297,479.999C294.099,480.241 217.901,480.241 141.703,479.999C118.122,479.775 96.24,459.467 96.001,434.297C95.692,336.869 95.692,239.438 96,142.01L96,128.005ZM384,128L128,128L128,176L127.86,176C127.441,262.096 126.638,348.199 128.003,434.282C128.162,441.437 134.282,447.879 141.811,447.999C217.964,448.719 294.134,449.205 370.281,447.997C377.447,447.838 383.881,441.634 383.999,434.189C384.813,348.131 385.393,262.057 384.454,176L384,176L384,128ZM200,400L184,400C179.585,400 176,396.415 176,392L176,184C176,179.585 179.585,176 184,176L200,176C204.415,176 208,179.585 208,184L208,392C208,396.415 204.415,400 200,400ZM328,400L312,400C307.585,400 304,396.415 304,392L304,184C304,179.585 307.585,176 312,176L328,176C332.415,176 336,179.585 336,184L336,392C336,396.415 332.415,400 328,400ZM264,400L248,400C243.585,400 240,396.415 240,392L240,184C240,179.585 243.585,176 248,176L264,176C268.415,176 272,179.585 272,184L272,392C272,396.415 268.415,400 264,400ZM289.012,64L222.988,64L196.733,95.506C236.244,95.422 275.756,95.422 315.267,95.506L289.012,64Z" style="fill:rgb(225,4,16);fill-rule:nonzero;"/>
</svg>
