<svg width="24" height="25" viewBox="0 0 24 25" fill="none" xmlns="http://www.w3.org/2000/svg">
<g clip-path="url(#clip0_186_13499)">
<path d="M8.99822 10.2193H11.9976C12.3158 10.2193 12.621 10.0929 12.846 9.86794C13.071 9.64294 13.1974 9.33778 13.1974 9.01958C13.1974 8.70139 13.071 8.39622 12.846 8.17122C12.621 7.94622 12.3158 7.81982 11.9976 7.81982H10.7979V7.21994C10.7979 6.90174 10.6715 6.59658 10.4465 6.37158C10.2215 6.14658 9.9163 6.02018 9.5981 6.02018C9.27991 6.02018 8.97474 6.14658 8.74974 6.37158C8.52474 6.59658 8.39834 6.90174 8.39834 7.21994V7.87981C7.66939 8.02783 7.02145 8.44142 6.58029 9.04029C6.13913 9.63917 5.93624 10.3806 6.01099 11.1207C6.08574 11.8607 6.43281 12.5466 6.98482 13.0452C7.53683 13.5437 8.2544 13.8194 8.99822 13.8186H10.198C10.3571 13.8186 10.5097 13.8818 10.6222 13.9943C10.7347 14.1068 10.7979 14.2594 10.7979 14.4185C10.7979 14.5776 10.7347 14.7302 10.6222 14.8427C10.5097 14.9552 10.3571 15.0184 10.198 15.0184H7.19858C6.88038 15.0184 6.57522 15.1448 6.35022 15.3698C6.12522 15.5948 5.99882 15.9 5.99882 16.2182C5.99882 16.5363 6.12522 16.8415 6.35022 17.0665C6.57522 17.2915 6.88038 17.4179 7.19858 17.4179H8.39834V18.0178C8.39834 18.336 8.52474 18.6412 8.74974 18.8662C8.97474 19.0912 9.27991 19.2176 9.5981 19.2176C9.9163 19.2176 10.2215 19.0912 10.4465 18.8662C10.6715 18.6412 10.7979 18.336 10.7979 18.0178V17.3579C11.5268 17.2099 12.1748 16.7963 12.6159 16.1974C13.0571 15.5986 13.26 14.8571 13.1852 14.1171C13.1105 13.377 12.7634 12.6911 12.2114 12.1926C11.6594 11.694 10.9418 11.4184 10.198 11.4191H8.99822C8.83912 11.4191 8.68654 11.3559 8.57404 11.2434C8.46154 11.1309 8.39834 10.9783 8.39834 10.8192C8.39834 10.6601 8.46154 10.5075 8.57404 10.395C8.68654 10.2825 8.83912 10.2193 8.99822 10.2193ZM22.7955 12.019H19.1962V1.22113C19.197 1.00972 19.142 0.801843 19.0367 0.618547C18.9313 0.43525 18.7794 0.283043 18.5963 0.177339C18.4139 0.0720382 18.207 0.0166016 17.9964 0.0166016C17.7858 0.0166016 17.5789 0.0720382 17.3966 0.177339L13.7973 2.24093L10.198 0.177339C10.0156 0.0720382 9.8087 0.0166016 9.5981 0.0166016C9.3875 0.0166016 9.18061 0.0720382 8.99822 0.177339L5.39894 2.24093L1.79965 0.177339C1.61727 0.0720382 1.41037 0.0166016 1.19977 0.0166016C0.989169 0.0166016 0.782277 0.0720382 0.59989 0.177339C0.416801 0.283043 0.264895 0.43525 0.159552 0.618547C0.0542086 0.801843 -0.000829857 1.00972 9.45758e-06 1.22113V20.4173C9.45758e-06 21.3719 0.379219 22.2874 1.05422 22.9624C1.72921 23.6374 2.6447 24.0166 3.59929 24.0166H20.396C21.3505 24.0166 22.266 23.6374 22.941 22.9624C23.616 22.2874 23.9952 21.3719 23.9952 20.4173V13.2187C23.9952 12.9006 23.8688 12.5954 23.6438 12.3704C23.4188 12.1454 23.1137 12.019 22.7955 12.019ZM3.59929 21.6171C3.2811 21.6171 2.97593 21.4907 2.75093 21.2657C2.52594 21.0407 2.39953 20.7355 2.39953 20.4173V3.29672L4.79906 4.66445C4.98422 4.76116 5.19003 4.81167 5.39894 4.81167C5.60784 4.81167 5.81365 4.76116 5.99882 4.66445L9.5981 2.60086L13.1974 4.66445C13.3826 4.76116 13.5884 4.81167 13.7973 4.81167C14.0062 4.81167 14.212 4.76116 14.3971 4.66445L16.7967 3.29672V20.4173C16.7999 20.8266 16.8729 21.2323 17.0126 21.6171H3.59929ZM21.5957 20.4173C21.5957 20.7355 21.4693 21.0407 21.2443 21.2657C21.0193 21.4907 20.7142 21.6171 20.396 21.6171C20.0778 21.6171 19.7726 21.4907 19.5476 21.2657C19.3226 21.0407 19.1962 20.7355 19.1962 20.4173V14.4185H21.5957V20.4173Z" fill="white"/>
</g>
<defs>
<clipPath id="clip0_186_13499">
<rect width="24" height="24" fill="white" transform="translate(0 0.0166016)"/>
</clipPath>
</defs>
</svg>
