<?xml version="1.0" encoding="UTF-8" standalone="no"?>
<!DOCTYPE svg PUBLIC "-//W3C//DTD SVG 1.1//EN" "http://www.w3.org/Graphics/SVG/1.1/DTD/svg11.dtd">
<svg width="100%" height="100%" viewBox="0 0 32 32" version="1.1" xmlns="http://www.w3.org/2000/svg" xmlns:xlink="http://www.w3.org/1999/xlink" xml:space="preserve" xmlns:serif="http://www.serif.com/" style="fill-rule:evenodd;clip-rule:evenodd;stroke-linejoin:round;stroke-miterlimit:2;">
    <g transform="matrix(1,0,0,1,-0.0131255,-8.88178e-16)">
        <path d="M29.4,12C29.2,11.3 28.9,10.6 28.6,10C26.5,5.7 22.4,2.7 17.6,2.1L17.1,2L14.9,2L14.3,2.1C9.5,2.6 5.4,5.6 3.3,10C3,10.6 2.7,11.3 2.5,12C1.7,14.6 1.7,17.4 2.5,20C2.7,20.7 3,21.4 3.3,22C5.4,26.3 9.5,29.3 14.3,29.9L14.9,30L17.1,30L17.7,29.9C22.5,29.3 26.6,26.3 28.7,22C29,21.4 29.3,20.7 29.5,20C30.2,17.3 30.2,14.6 29.4,12ZM26.4,10L21.2,10C20.7,8 19.9,6.1 18.8,4.3C22,5.1 24.7,7.1 26.4,10ZM20,16C20,17.3 19.9,18.7 19.6,20L12.3,20C11.8,17.4 11.8,14.6 12.3,12L19.6,12C19.9,13.3 20,14.7 20,16ZM19.2,22C18.6,24.2 17.6,26.2 16.2,28L15.9,28C14.5,26.2 13.5,24.2 12.9,22L19.2,22ZM12.8,10C13.4,7.8 14.4,5.8 15.8,4L16.1,4C17.5,5.8 18.5,7.8 19.1,10L12.8,10ZM13.2,4.3C12.1,6.1 11.3,8 10.8,10L5.6,10C7.3,7.1 10,5.1 13.2,4.3ZM4,16C4,14.6 4.2,13.3 4.7,12L10.4,12C9.9,14.6 9.9,17.4 10.4,20L4.7,20C4.2,18.7 4,17.4 4,16ZM5.6,22L10.8,22C11.3,24 12.1,25.9 13.2,27.7C10,26.9 7.3,24.9 5.6,22ZM18.8,27.7C19.9,25.9 20.7,24 21.2,22L26.4,22C24.7,24.9 22,26.9 18.8,27.7ZM21.7,20C21.9,18.7 22,17.3 22,16C22,14.7 21.9,13.3 21.7,12L27.3,12C28.2,14.6 28.2,17.4 27.3,20L21.7,20Z" style="fill:rgb(98,113,129);fill-rule:nonzero;"/>
    </g>
</svg>
