<svg width="24" height="25" viewBox="0 0 24 25" fill="none" xmlns="http://www.w3.org/2000/svg">
<g clip-path="url(#clip0_186_13490)">
<path fill-rule="evenodd" clip-rule="evenodd" d="M1.67442 1.69102V22.3422H8.93023V10.4538C8.93023 9.6215 9.6049 8.94683 10.4372 8.94683H22.3256V1.69102H1.67442ZM0 1.52358C0 0.691299 0.674697 0.0166016 1.50698 0.0166016H22.493C23.3254 0.0166016 24 0.691325 24 1.52358V9.11428C24 9.94653 23.3254 10.6213 22.493 10.6213H10.6047V22.5096C10.6047 23.342 9.92993 24.0166 9.09767 24.0166H1.50698C0.674724 24.0166 0 23.342 0 22.5096V1.52358Z" fill="white"/>
<path fill-rule="evenodd" clip-rule="evenodd" d="M16.4651 5.59802C16.9275 5.59802 17.3023 5.97285 17.3023 6.43523V9.78407C17.3023 10.2464 16.9275 10.6213 16.4651 10.6213C16.0028 10.6213 15.6279 10.2464 15.6279 9.78407V6.43523C15.6279 5.97285 16.0028 5.59802 16.4651 5.59802Z" fill="white"/>
<path fill-rule="evenodd" clip-rule="evenodd" d="M9.76745 5.59802C10.2298 5.59802 10.6047 5.97285 10.6047 6.43523V9.78407C10.6047 10.2464 10.2298 10.6213 9.76745 10.6213C9.30507 10.6213 8.93024 10.2464 8.93024 9.78407V6.43523C8.93024 5.97285 9.30507 5.59802 9.76745 5.59802Z" fill="white"/>
<path fill-rule="evenodd" clip-rule="evenodd" d="M5.58142 16.4817C5.58142 16.0194 5.95625 15.6445 6.41863 15.6445H9.76747C10.2298 15.6445 10.6047 16.0194 10.6047 16.4817C10.6047 16.9441 10.2298 17.3189 9.76747 17.3189H6.41863C5.95625 17.3189 5.58142 16.9441 5.58142 16.4817Z" fill="white"/>
<path fill-rule="evenodd" clip-rule="evenodd" d="M5.58142 9.78405C5.58142 9.32167 5.95625 8.94684 6.41863 8.94684H9.76747C10.2298 8.94684 10.6047 9.32167 10.6047 9.78405C10.6047 10.2464 10.2298 10.6213 9.76747 10.6213H6.41863C5.95625 10.6213 5.58142 10.2464 5.58142 9.78405Z" fill="white"/>
</g>
<defs>
<clipPath id="clip0_186_13490">
<rect width="24" height="24" fill="white" transform="translate(0 0.0166016)"/>
</clipPath>
</defs>
</svg>
