<?xml version="1.0" encoding="UTF-8" standalone="no"?>
<!DOCTYPE svg PUBLIC "-//W3C//DTD SVG 1.1//EN" "http://www.w3.org/Graphics/SVG/1.1/DTD/svg11.dtd">
<svg width="100%" height="100%" viewBox="0 0 32 32" version="1.1" xmlns="http://www.w3.org/2000/svg" xmlns:xlink="http://www.w3.org/1999/xlink" xml:space="preserve" xmlns:serif="http://www.serif.com/" style="fill-rule:evenodd;clip-rule:evenodd;stroke-linejoin:round;stroke-miterlimit:2;">
    <g transform="matrix(0.0795455,0,0,0.0795455,-4.36364,-4.36364)">
        <path d="M424,368C428.416,368 432,371.585 432,376L432,408C432,412.415 428.415,416 424,416L88,416C83.585,416 80,412.415 80,408L80,376C80,371.585 83.584,368 88,368L424,368ZM344,232C348.416,232 352,235.585 352,240L352,272C352,276.415 348.415,280 344,280L88,280C83.585,280 80,276.415 80,272L80,240C80,235.585 83.584,232 88,232L344,232ZM424,96C428.416,96 432,99.585 432,104L432,136C432,140.415 428.415,144 424,144L88,144C83.585,144 80,140.415 80,136L80,104C80,99.585 83.584,96 88,96L424,96Z" style="fill:rgb(98,113,129);"/>
    </g>
</svg>
