<svg width="32" height="33" viewBox="0 0 32 33" fill="none" xmlns="http://www.w3.org/2000/svg">
<path fill-rule="evenodd" clip-rule="evenodd" d="M14.9333 4.59181C14.9306 4.56187 14.9292 4.53162 14.9292 4.501V3.5005C14.9292 2.94837 15.3775 2.50006 15.9297 2.50006C16.4818 2.50006 16.9301 2.94837 16.9301 3.5005V4.501C16.9301 4.52694 16.9291 4.55269 16.9272 4.57812C19.7264 4.92825 22.2954 6.80806 23.3987 9.44225C23.8488 10.5169 23.9519 11.7025 24.1106 12.8271C24.453 15.2526 25.006 17.7151 26.3526 19.749C26.5172 19.9977 26.6943 20.2402 26.9002 20.4544C26.9136 20.4684 26.9377 20.4917 26.9631 20.5165C26.9902 20.5427 27.0022 20.5551 27.0209 20.5739C28.1239 21.7032 28.3277 23.5931 27.4612 24.9264C26.8338 25.892 25.7172 26.5104 24.5494 26.5215C23.3017 26.5254 22.0539 26.5286 20.8061 26.5307C20.3282 28.7847 18.3251 30.4782 15.9297 30.4782C13.5341 30.4782 11.531 28.7846 11.0532 26.5305C9.855 26.5283 8.65685 26.5253 7.45876 26.5215C5.93355 26.507 4.49191 25.4027 4.09986 23.9189C3.78405 22.7234 4.15485 21.3774 5.05726 20.5046C5.05726 20.5046 5.29988 20.2462 5.45913 20.0304C7.13102 17.7652 7.69313 14.758 8.01074 11.9319C8.01524 11.8922 8.0193 11.8524 8.02287 11.8125C8.0243 11.7965 8.0258 11.7805 8.0273 11.7644C8.32148 8.77231 10.4349 5.99937 13.3385 4.97412C13.8555 4.79156 14.39 4.66431 14.9333 4.59181ZM13.1203 26.5335C13.5484 27.6688 14.6454 28.4772 15.9297 28.4772L15.9491 28.4772C17.2249 28.4691 18.313 27.6632 18.7389 26.5336C16.866 26.5356 14.9932 26.5355 13.1203 26.5335ZM20.8236 24.5418C22.0646 24.5375 23.3056 24.5299 24.5466 24.5181C25.5181 24.5027 26.307 23.3679 25.8977 22.4297C25.8187 22.2487 25.7035 22.0852 25.5617 21.9481C25.5617 21.9481 25.2179 21.5923 24.9906 21.2917C23.0914 18.7785 22.3925 15.4639 22.0238 12.3059C21.9366 11.5588 21.8121 10.8082 21.51 10.1207C20.5906 8.02887 18.3779 6.55775 16.0782 6.52319C16.0411 6.52281 16.0041 6.52269 15.967 6.52281C13.0805 6.54887 10.3905 8.85387 10.037 11.811C9.67044 14.8771 9.10196 18.0407 7.44601 20.6692C7.14258 21.1507 6.78359 21.5876 6.39079 22.0045C5.91461 22.5162 5.86668 23.3659 6.28898 23.9235C6.5646 24.2874 7.00702 24.5137 7.47144 24.5182C8.66028 24.5219 9.84906 24.5264 11.0379 24.5307C11.0393 24.5239 11.0407 24.517 11.042 24.5102H13.0874C13.0843 24.5194 13.0812 24.5286 13.0782 24.5378C14.9801 24.5439 16.882 24.5481 18.784 24.5463C18.7801 24.5342 18.7761 24.5222 18.7719 24.5102H20.8174C20.8194 24.5207 20.8216 24.5312 20.8236 24.5418Z" fill="#627181"/>
</svg>
