<svg width="24" height="25" viewBox="0 0 24 25" fill="none" xmlns="http://www.w3.org/2000/svg">
<g clip-path="url(#clip0_186_13482)">
<path fill-rule="evenodd" clip-rule="evenodd" d="M17.5655 24.0166H5.5711C4.15204 24.0166 3 22.8645 3 21.4454V5.159C3 3.73995 4.15198 2.58783 5.5711 2.58778H8.99508C8.99508 1.16867 10.1472 0.0166016 11.5662 0.0166016C12.9852 0.0166016 14.1372 1.16856 14.1373 2.58778H17.5655C18.9847 2.58799 20.1366 3.74001 20.1366 5.159V21.4454C20.1366 22.8644 18.9847 24.0165 17.5655 24.0166ZM6.42392 4.27214H5.50334C5.06523 4.27236 4.70982 4.62783 4.70982 5.06569V21.4771C4.70982 21.9151 5.06539 22.2706 5.50334 22.2706H17.629C18.067 22.2706 18.4225 21.9151 18.4225 21.4771V5.06569C18.4225 4.62783 18.0672 4.27236 17.629 4.27214H16.7085V5.12922C16.7085 5.60216 16.3246 5.98619 15.8514 5.9863H7.28097C6.80793 5.9863 6.42392 5.60227 6.42392 5.12922V4.27214ZM15.4229 18.0143C15.6594 18.0143 15.8514 18.2063 15.8514 18.4429V19.3C15.8514 19.5365 15.6594 19.7284 15.4229 19.7284H7.7095C7.47301 19.7284 7.28097 19.5365 7.28097 19.3V18.4429C7.28097 18.2063 7.47295 18.0143 7.7095 18.0143H15.4229ZM15.4229 14.557C15.6594 14.557 15.8514 14.749 15.8514 14.9855V15.8426C15.8514 16.0791 15.6594 16.2712 15.4229 16.2712H7.7095C7.47301 16.2712 7.28097 16.0791 7.28097 15.8426V14.9855C7.28097 14.749 7.47295 14.557 7.7095 14.557H15.4229ZM15.4229 11.1578C15.6594 11.1578 15.8514 11.3498 15.8514 11.5863V12.4434C15.8514 12.6799 15.6594 12.8719 15.4229 12.8719H7.7095C7.47301 12.8719 7.28097 12.6799 7.28097 12.4434V11.5863C7.28097 11.3498 7.47295 11.1578 7.7095 11.1578H15.4229ZM10.71 2.58778C10.7299 3.04653 11.1073 3.41293 11.5702 3.41507C12.0414 3.41293 12.4232 3.02971 12.4232 2.55805C12.4232 2.08499 12.0392 1.70097 11.5662 1.70097C11.0932 1.70097 10.7091 2.08499 10.7091 2.55805C10.7091 2.5679 10.7093 2.57776 10.7097 2.58778H10.71Z" fill="white"/>
</g>
<defs>
<clipPath id="clip0_186_13482">
<rect width="24" height="24" fill="white" transform="translate(0 0.0166016)"/>
</clipPath>
</defs>
</svg>
