<svg width="24" height="25" viewBox="0 0 24 25" fill="none" xmlns="http://www.w3.org/2000/svg">
<g clip-path="url(#clip0_186_13461)">
<path fill-rule="evenodd" clip-rule="evenodd" d="M7.18046 4.15358L4.05688 5.54184L12.478 9.28458L15.6016 7.89632L7.18046 4.15358ZM6.81751 2.38249L1.94381 4.54859L1.94381 4.54859C1.36988 4.80366 1 5.37281 1 6.00087V18.0324C1 18.6604 1.36985 19.2296 1.94381 19.4847L11.8325 23.8797L11.8329 23.8798C12.2437 24.0622 12.7124 24.0622 13.1232 23.8798L13.1235 23.8797L23.0122 19.4847C23.5863 19.2296 23.956 18.6603 23.956 18.0324V6.00087C23.956 5.37291 23.5863 4.80371 23.0123 4.54859L23.0122 4.54857L13.1235 0.153577L13.1234 0.153524C12.7125 -0.0290391 12.2436 -0.0290391 11.8327 0.153524L11.8325 0.153578L6.82571 2.37884C6.82297 2.38005 6.82024 2.38126 6.81751 2.38249ZM9.35441 3.18738L17.7147 6.90304C17.7347 6.91193 17.7544 6.92121 17.7739 6.93085L20.8992 5.54185L12.478 1.7991L9.35441 3.18738ZM16.8926 9.25497V12.6052C16.8926 13.0929 17.2879 13.4882 17.7756 13.4882C18.2632 13.4882 18.6585 13.0929 18.6585 12.6052V8.47014L22.1902 6.90048V17.9177L13.361 21.8417V10.8246L16.8926 9.25497ZM2.76585 17.9177V6.90046L11.5951 10.8246V21.8418L2.76585 17.9177Z" fill="white"/>
</g>
<defs>
<clipPath id="clip0_186_13461">
<rect width="24" height="24" fill="white" transform="translate(0 0.0166016)"/>
</clipPath>
</defs>
</svg>
