<svg width="24" height="25" viewBox="0 0 24 25" fill="none" xmlns="http://www.w3.org/2000/svg">
<g clip-path="url(#clip0_186_13477)">
<path fill-rule="evenodd" clip-rule="evenodd" d="M3 3.6166C3 1.62838 4.11177 0.516602 6.1 0.516602H18.1C20.0883 0.516602 21 1.62839 21 3.6166V20.4166C21 22.4049 20.0883 23.5166 18.1 23.5166H6.1C4.11179 23.5166 3 22.4049 3 20.4166V3.6166ZM6.1 2.4166C5.43726 2.4166 4.9 2.95386 4.9 3.6166V20.4166C4.9 21.0794 5.43725 21.6166 6.1 21.6166H18.1C18.7628 21.6166 19.3 21.0794 19.3 20.4166V3.6166C19.3 2.95385 18.7628 2.4166 18.1 2.4166H6.1ZM7.3 6.0166C7.3 5.35386 7.83726 4.8166 8.5 4.8166H15.7C16.3627 4.8166 16.9 5.35386 16.9 6.0166C16.9 6.67934 16.3627 7.2166 15.7 7.2166H8.5C7.83726 7.2166 7.3 6.67934 7.3 6.0166ZM7.3 10.8166C7.3 10.1539 7.83726 9.6166 8.5 9.6166H8.512C9.17474 9.6166 9.712 10.1539 9.712 10.8166C9.712 11.4793 9.17474 12.0166 8.512 12.0166H8.5C7.83726 12.0166 7.3 11.4793 7.3 10.8166ZM10.9 10.8166C10.9 10.1539 11.4373 9.6166 12.1 9.6166H12.112C12.7747 9.6166 13.312 10.1539 13.312 10.8166C13.312 11.4793 12.7747 12.0166 12.112 12.0166H12.1C11.4373 12.0166 10.9 11.4793 10.9 10.8166ZM14.5 10.8166C14.5 10.1539 15.0373 9.6166 15.7 9.6166H15.712C16.3747 9.6166 16.912 10.1539 16.912 10.8166C16.912 11.4793 16.3747 12.0166 15.712 12.0166H15.7C15.0373 12.0166 14.5 11.4793 14.5 10.8166ZM7.3 14.4166C7.3 13.7539 7.83726 13.2166 8.5 13.2166H8.512C9.17474 13.2166 9.712 13.7539 9.712 14.4166C9.712 15.0793 9.17474 15.6166 8.512 15.6166H8.5C7.83726 15.6166 7.3 15.0793 7.3 14.4166ZM10.9 14.4166C10.9 13.7539 11.4373 13.2166 12.1 13.2166H12.112C12.7747 13.2166 13.312 13.7539 13.312 14.4166C13.312 15.0793 12.7747 15.6166 12.112 15.6166H12.1C11.4373 15.6166 10.9 15.0793 10.9 14.4166ZM15.7 13.2166C16.3627 13.2166 16.9 13.7539 16.9 14.4166V18.0166C16.9 18.6793 16.3627 19.2166 15.7 19.2166C15.0373 19.2166 14.5 18.6793 14.5 18.0166V14.4166C14.5 13.7539 15.0373 13.2166 15.7 13.2166ZM7.3 18.0166C7.3 17.3539 7.83726 16.8166 8.5 16.8166H8.512C9.17474 16.8166 9.712 17.3539 9.712 18.0166C9.712 18.6793 9.17474 19.2166 8.512 19.2166H8.5C7.83726 19.2166 7.3 18.6793 7.3 18.0166ZM10.9 18.0166C10.9 17.3539 11.4373 16.8166 12.1 16.8166H12.112C12.7747 16.8166 13.312 17.3539 13.312 18.0166C13.312 18.6793 12.7747 19.2166 12.112 19.2166H12.1C11.4373 19.2166 10.9 18.6793 10.9 18.0166Z" fill="white"/>
</g>
<defs>
<clipPath id="clip0_186_13477">
<rect width="24" height="24" fill="white" transform="translate(0 0.0166016)"/>
</clipPath>
</defs>
</svg>
