<svg width="19" height="19" viewBox="0 0 19 19" fill="none" xmlns="http://www.w3.org/2000/svg">
<path d="M11.8462 12.6419C11.089 13.2661 10.1804 13.7085 9.2112 13.8944C7.36817 14.2479 5.37097 13.6647 4.00681 12.3562C2.41068 10.8252 1.76588 8.362 2.49801 6.20025C3.2789 3.89457 5.57414 2.19926 8.07463 2.18737C8.08736 2.18734 8.10008 2.18734 8.11281 2.18737C9.93647 2.19606 11.7235 3.08691 12.826 4.5608C14.0999 6.26382 14.3682 8.68102 13.4172 10.6535C13.2104 11.0824 12.9493 11.4838 12.6445 11.8491L13.3068 12.5115C13.4166 12.4017 13.5948 12.4017 13.7046 12.5115L16.6818 15.4888C16.7916 15.5986 16.7916 15.7768 16.6818 15.8866L15.8864 16.6821C15.7766 16.7919 15.5983 16.7919 15.4886 16.6821L12.5114 13.7048C12.4016 13.595 12.4016 13.4168 12.5114 13.307L11.8462 12.6419ZM8.07818 3.31241C6.12697 3.32165 4.25701 4.61146 3.58753 6.49209C3.07401 7.93467 3.30456 9.62467 4.21124 10.8832C5.09275 12.1069 6.57335 12.8751 8.09372 12.8751C9.88008 12.8751 11.6248 11.7933 12.4101 10.1518C13.1644 8.57484 12.9683 6.57703 11.8728 5.16607C10.9846 4.02209 9.56445 3.3193 8.10926 3.31241C8.09889 3.31237 8.08855 3.31237 8.07818 3.31241Z" fill="#292F36"/>
</svg>
