<svg width="15" height="16" viewBox="0 0 15 16" fill="none" xmlns="http://www.w3.org/2000/svg">
<path d="M0.318336 4.7701C0.243873 4.72473 0.179076 4.66513 0.127649 4.59471C0.0762206 4.52429 0.0391689 4.44444 0.0186083 4.3597C-0.00195225 4.27496 -0.00561832 4.187 0.00781954 4.10084C0.0212574 4.01469 0.0515359 3.93202 0.0969258 3.85757C0.990872 2.38062 2.33861 1.23248 3.93887 0.584635C5.53912 -0.0632144 7.30601 -0.176013 8.97565 0.263087C10.6453 0.702186 12.1281 1.66962 13.2026 3.0209C14.2771 4.37218 14.8856 6.0348 14.9373 7.76045C14.989 9.48609 14.4811 11.1822 13.4894 12.5953C12.4977 14.0085 11.0755 15.063 9.43515 15.6012C7.79479 16.1395 6.02431 16.1327 4.38815 15.5818C2.75199 15.0309 1.33793 13.9655 0.357175 12.5447C0.305414 12.473 0.268492 12.3917 0.248578 12.3056C0.228663 12.2194 0.226157 12.1302 0.241206 12.043C0.256254 11.9559 0.288556 11.8727 0.336213 11.7982C0.38387 11.7237 0.445922 11.6595 0.518729 11.6094C0.591537 11.5592 0.673631 11.5241 0.760195 11.5061C0.84676 11.4881 0.93605 11.4875 1.02282 11.5045C1.1096 11.5214 1.19211 11.5556 1.26551 11.6049C1.33892 11.6542 1.40174 11.7176 1.45029 11.7915C2.2683 12.9749 3.44716 13.862 4.81084 14.3203C6.17452 14.7786 7.64986 14.7835 9.01656 14.3343C10.3833 13.8851 11.568 13.0059 12.3939 11.828C13.2198 10.65 13.6425 9.23656 13.599 7.79859C13.5554 6.36062 13.0479 4.97531 12.1522 3.84951C11.2565 2.72372 10.0207 1.91783 8.62935 1.55219C7.23796 1.18654 5.76562 1.28075 4.43219 1.82076C3.09875 2.36076 1.97575 3.31758 1.23087 4.54836C1.18552 4.62285 1.12595 4.68767 1.05554 4.73913C0.985135 4.7906 0.90528 4.82768 0.820539 4.84827C0.735798 4.86886 0.647831 4.87256 0.561662 4.85915C0.475492 4.84573 0.392809 4.81547 0.318336 4.7701Z" fill="#E10410"/>
<path d="M5.84224 11.6879C5.78058 11.7495 5.70739 11.7985 5.62682 11.8318C5.54625 11.8652 5.4599 11.8824 5.37269 11.8824C5.28549 11.8824 5.19913 11.8652 5.11857 11.8318C5.038 11.7985 4.9648 11.7495 4.90315 11.6879L1.68755 8.47193C1.56309 8.34743 1.49317 8.1786 1.49317 8.00255C1.49317 7.82651 1.56309 7.65768 1.68755 7.53318L4.90381 4.31857C5.02955 4.20058 5.19626 4.13614 5.36866 4.13888C5.54106 4.14162 5.70564 4.21132 5.82756 4.33325C5.94949 4.45517 6.01919 4.61975 6.02193 4.79215C6.02467 4.96455 5.96023 5.13126 5.84224 5.25699L3.76025 7.33932H10.1808C10.3569 7.33932 10.5258 7.40926 10.6503 7.53377C10.7748 7.65828 10.8447 7.82714 10.8447 8.00322C10.8447 8.1793 10.7748 8.34816 10.6503 8.47267C10.5258 8.59717 10.3569 8.66712 10.1808 8.66712H3.76025L5.84224 10.7494C5.9666 10.8739 6.03645 11.0427 6.03645 11.2187C6.03645 11.3946 5.9666 11.5634 5.84224 11.6879Z" fill="#E10410"/>
</svg>
