<?xml version="1.0" encoding="UTF-8" standalone="no"?>
<!DOCTYPE svg PUBLIC "-//W3C//DTD SVG 1.1//EN" "http://www.w3.org/Graphics/SVG/1.1/DTD/svg11.dtd">
<svg width="100%" height="100%" viewBox="0 0 32 32" version="1.1" xmlns="http://www.w3.org/2000/svg" xmlns:xlink="http://www.w3.org/1999/xlink" xml:space="preserve" xmlns:serif="http://www.serif.com/" style="fill-rule:evenodd;clip-rule:evenodd;stroke-linejoin:round;stroke-miterlimit:2;">
    <g transform="matrix(0.075186,0,0,0.075186,-3.27739,-3.2768)">
        <path d="M145.951,141.238C174.632,113.711 213.562,96.784 256.415,96.784C344.492,96.784 416,168.291 416,256.369C416,344.446 344.492,415.954 256.415,415.954C211.761,415.954 171.365,397.573 142.389,367.972C141.928,367.501 141.534,366.955 141.015,366.551C124.89,353.987 142.977,337.761 142.977,337.761L144.623,336.115L146.363,334.374C146.363,334.374 160.812,320.049 174.775,333.63C175.377,334.215 175.936,334.843 176.526,335.439C196.902,356.024 225.169,368.784 256.392,368.784C318.423,368.784 368.784,318.423 368.784,256.392C368.784,194.361 318.423,144 256.392,144C226.574,144 199.453,155.637 179.326,174.612L209.966,205.253C210.142,205.44 210.317,205.628 210.492,205.815C212.29,208.023 212.549,208.91 212.948,210.542C214.39,216.433 210.095,223.074 203.901,223.903C203.23,223.993 203.058,223.98 202.382,224L109.172,223.473C106.86,223.381 106.475,223.175 105.473,222.815C101.681,221.452 98.734,217.901 98.132,213.888C98.033,213.224 98.042,213.055 98.011,212.386L96.83,118.524C96.844,117.864 96.831,117.697 96.912,117.043C97.833,109.561 107.917,104.88 114.449,109.876C114.979,110.281 115.09,110.408 115.577,110.863L145.951,141.238Z" style="fill:rgb(33,122,181);"/>
    </g>
</svg>
