<?xml version="1.0" encoding="UTF-8" standalone="no"?>
<!DOCTYPE svg PUBLIC "-//W3C//DTD SVG 1.1//EN" "http://www.w3.org/Graphics/SVG/1.1/DTD/svg11.dtd">
<svg width="100%" height="100%" viewBox="0 0 512 512" version="1.1" xmlns="http://www.w3.org/2000/svg" xmlns:xlink="http://www.w3.org/1999/xlink" xml:space="preserve" xmlns:serif="http://www.serif.com/" style="fill-rule:evenodd;clip-rule:evenodd;stroke-linejoin:round;stroke-miterlimit:2;">
    <path d="M361.424,272.147C388.818,273.525 416.228,284.069 434.827,303.859C451.685,321.797 461.068,346.356 464.316,370.33C464.587,372.327 464.783,374.333 464.902,376.344C466.696,406.614 449.514,436.829 423.13,452.651C411.434,459.666 397.962,463.919 384.259,463.999C298.667,464.169 213.073,464.497 127.483,463.998C90.774,463.642 56.605,434.388 48.698,397.431C45.374,381.899 47.552,365.754 51.967,350.189C60.139,321.378 79.153,295.547 106.447,282.754C120.215,276.301 135.346,272.913 150.576,272.147C150.576,272.147 153.841,275.464 156.477,278.154C175.462,297.526 200.242,311.274 226.874,316.946C273.4,326.855 324.449,311.162 357.417,276.183C358.667,274.856 359.89,273.504 361.09,272.131C361.201,272.136 361.313,272.142 361.424,272.147ZM372.77,306.019C347.498,329.49 315.097,345.21 280.866,350.202C230.126,357.601 176.917,341.248 138.889,305.701C120.725,309.236 104.147,318.772 93.829,334.168C85.621,346.414 81.036,360.912 79.3,375.357C76.003,402.803 100.227,431.84 127.866,432C213.378,432.171 298.894,432.835 384.403,431.998C396.777,431.83 408.572,425.511 417.156,417.084C428.739,405.712 435.028,388.868 432.284,372.553C428.194,348.23 416.426,323.814 393.315,312.376C386.94,309.222 380.103,307.061 373.111,305.701C372.998,305.807 372.884,305.913 372.77,306.019ZM256.388,48.001C305.448,48.234 352.646,80.683 369.332,128.487C384.233,171.176 372.746,222.073 339.295,254.35C311.847,280.835 271.474,293.051 233.664,285.921C185.367,276.814 144.479,235.806 137.218,185.146C130.878,140.909 151.32,93.757 189.226,68.304C208.613,55.286 231.751,48.189 255.224,48.002C255.612,48.001 256,48 256.388,48.001ZM255.714,80C233.812,80.105 212.085,88.683 196.077,103.586C169.185,128.622 160.008,171.02 176.435,205.627C190.521,235.302 222.109,255.893 255.714,256C278.149,256.071 300.458,247.168 316.694,231.688C338.104,211.274 348.224,179.607 342.211,150.25C334.25,111.385 298.059,80.461 256.858,80.004C256.477,80.001 256.095,80 255.714,80Z" style="fill:rgb(98,113,129);fill-rule:nonzero;"/>
</svg>
