<?xml version="1.0" encoding="UTF-8" standalone="no"?>
<!DOCTYPE svg PUBLIC "-//W3C//DTD SVG 1.1//EN" "http://www.w3.org/Graphics/SVG/1.1/DTD/svg11.dtd">
<svg width="100%" height="100%" viewBox="0 0 64 64" version="1.1" xmlns="http://www.w3.org/2000/svg" xmlns:xlink="http://www.w3.org/1999/xlink" xml:space="preserve" xmlns:serif="http://www.serif.com/" style="fill-rule:evenodd;clip-rule:evenodd;stroke-linejoin:round;stroke-miterlimit:2;">
    <g>
        <path d="M53.3,34.1C50.8,29.1 45.7,26 40,26C38.4,26 36.9,26.3 35.5,26.7C34.1,21.7 29.4,18 24,18C17.4,18 12,23.4 12,30C12,34.8 14.9,39 19,40.9C17.2,42.7 16,45.2 16,48C16,53.5 20.5,58 26,58L52,58C58.6,58 64,52.6 64,46C64,39.8 59.3,34.7 53.3,34.1ZM52,54L26,54C22.7,54 20,51.3 20,48C20,44.7 22.7,42 26,42C26.2,42 26.4,42 26.6,42.1L28.9,42.4L29,40.3C29.5,34.5 34.3,30 40,30C44.5,30 48.4,32.7 50.2,36.8L50.7,38L52,38C56.4,38 60,41.6 60,46C60,50.4 56.4,54 52,54ZM7,47C7.4,47.4 7.9,47.6 8.4,47.6C8.9,47.6 9.4,47.4 9.8,47L14.1,42.7C14.9,41.9 14.9,40.7 14.1,39.9C13.3,39.1 12.1,39.1 11.3,39.9L7,44.2C6.2,44.9 6.2,46.2 7,47ZM16,30C16,25.6 19.6,22 24,22C27.9,22 31.1,24.8 31.8,28.4C28.5,30.5 26.2,33.9 25.3,37.8C24.9,38 24.5,38 24,38C19.6,38 16,34.4 16,30ZM2,32L8,32C9.1,32 10,31.1 10,30C10,28.9 9.1,28 8,28L2,28C0.9,28 0,28.9 0,30C0,31.1 0.9,32 2,32ZM14.1,20.1C14.9,19.3 14.9,18.1 14.1,17.3L9.9,13C9.1,12.2 7.9,12.2 7.1,13C6.3,13.8 6.3,15 7.1,15.8L11.4,20.1C11.8,20.5 12.3,20.7 12.8,20.7C13.2,20.7 13.7,20.5 14.1,20.1ZM38.2,13L33.9,17.3C33.1,18.1 33.1,19.3 33.9,20.1C34.3,20.5 34.8,20.7 35.3,20.7C35.8,20.7 36.3,20.5 36.7,20.1L41,15.8C41.8,15 41.8,13.8 41,13C40.2,12.3 38.9,12.3 38.2,13ZM22,8L22,14C22,15.1 22.9,16 24,16C25.1,16 26,15.1 26,14L26,8C26,6.9 25.1,6 24,6C22.9,6 22,6.9 22,8Z" style="fill:rgb(0,74,151);fill-rule:nonzero;"/>
    </g>
</svg>
